<svg width="279" height="131" viewBox="0 0 279 131" fill="none" xmlns="http://www.w3.org/2000/svg">
<path d="M233 42.5233L225.267 37.8998C217.533 33.2763 202.067 24.0292 186.6 21.0608C171.133 18.0924 155.667 21.4027 140.2 30.3744C124.733 39.346 109.267 53.9792 93.8 72.027C78.3333 90.0748 62.8667 111.537 47.4 121.571C31.9333 131.604 16.4667 130.209 8.73333 129.511L0.999993 128.813" stroke="#C6C8CC" stroke-linecap="round" stroke-dasharray="8 8"/>
<path d="M278 42.5233L270.267 37.8998C262.533 33.2763 247.067 24.0292 231.6 21.0608C216.133 18.0924 200.667 21.4027 185.2 30.3744C169.733 39.346 154.267 53.9792 138.8 72.027C123.333 90.0748 107.867 111.537 92.4 121.571C76.9333 131.604 61.4667 130.209 53.7333 129.511L46 128.813" stroke="#6D6F72" stroke-linecap="round"/>
<circle cx="154.5" cy="23.5" r="3.5" fill="#C6C8CC"/>
<circle cx="104.5" cy="60.5" r="3.5" fill="#C6C8CC"/>
<circle cx="60.5" cy="110.5" r="3.5" fill="#C6C8CC"/>
<path d="M111.354 99.6464C111.549 99.8417 111.549 100.158 111.354 100.354L108.172 103.536C107.976 103.731 107.66 103.731 107.464 103.536C107.269 103.34 107.269 103.024 107.464 102.828L110.293 100L107.464 97.1716C107.269 96.9763 107.269 96.6597 107.464 96.4645C107.66 96.2692 107.976 96.2692 108.172 96.4645L111.354 99.6464ZM100.872 100L100.872 100.5L100.867 100.5L100.872 100ZM81 99.8L80.99 99.3001L80.9975 99.3L81.005 99.3L81 99.8ZM70.99 99.5001L80.99 99.3001L81.01 100.3L71.01 100.5L70.99 99.5001ZM100.872 99.5L111 99.5L111 100.5L100.872 100.5L100.872 99.5ZM81.005 99.3L100.877 99.5L100.867 100.5L80.995 100.3L81.005 99.3Z" fill="#C6C8CC"/>
<path d="M134.354 71.8464C134.549 72.0417 134.549 72.3582 134.354 72.5535L131.172 75.7355C130.976 75.9307 130.66 75.9307 130.464 75.7355C130.269 75.5402 130.269 75.2236 130.464 75.0284L133.293 72.1999L130.464 69.3715C130.269 69.1763 130.269 68.8597 130.464 68.6644C130.66 68.4692 130.976 68.4692 131.172 68.6644L134.354 71.8464ZM123.872 72.1999L123.872 72.7L123.867 72.6999L123.872 72.1999ZM104 72L103.99 71.5001L103.998 71.4999L104.005 71.5L104 72ZM93.99 71.7L103.99 71.5001L104.01 72.4999L94.01 72.6998L93.99 71.7ZM123.872 71.6999L134 71.6999L134 72.6999L123.872 72.6999L123.872 71.6999ZM104.005 71.5L123.877 71.7L123.867 72.6999L103.995 72.4999L104.005 71.5Z" fill="#C6C8CC"/>
<path d="M167.354 38.8464C167.549 39.0417 167.549 39.3582 167.354 39.5535L164.172 42.7355C163.976 42.9307 163.66 42.9307 163.464 42.7355C163.269 42.5402 163.269 42.2236 163.464 42.0284L166.293 39.1999L163.464 36.3715C163.269 36.1763 163.269 35.8597 163.464 35.6644C163.66 35.4692 163.976 35.4692 164.172 35.6644L167.354 38.8464ZM156.872 39.1999L156.872 39.7L156.867 39.6999L156.872 39.1999ZM137 39L136.99 38.5001L136.998 38.4999L137.005 38.5L137 39ZM126.99 38.7L136.99 38.5001L137.01 39.4999L127.01 39.6998L126.99 38.7ZM156.872 38.6999L167 38.6999L167 39.6999L156.872 39.6999L156.872 38.6999ZM137.005 38.5L156.877 38.7L156.867 39.6999L136.995 39.4999L137.005 38.5Z" fill="#C6C8CC"/>
<path d="M104.772 13.18C104.452 13.18 104.148 13.096 103.86 12.928C103.244 12.576 102.804 11.956 102.54 11.068C102.412 10.636 102.348 10.208 102.348 9.784C102.348 9.096 102.456 8.292 102.672 7.372C102.888 6.444 103.192 5.52 103.584 4.6C104 3.616 104.484 2.824 105.036 2.224C105.596 1.616 106.176 1.312 106.776 1.312C107.176 1.312 107.544 1.432 107.88 1.672C108.224 1.912 108.496 2.22 108.696 2.596C108.896 2.964 108.996 3.328 108.996 3.688C108.988 3.768 108.948 3.844 108.876 3.916C108.804 3.988 108.732 4.024 108.66 4.024C108.588 4.024 108.536 4 108.504 3.952C108.456 3.88 108.42 3.752 108.396 3.568C108.332 3.064 108.152 2.66 107.856 2.356C107.56 2.044 107.196 1.888 106.764 1.888C106.332 1.888 105.868 2.184 105.372 2.776C104.956 3.272 104.56 3.94 104.184 4.78C103.816 5.62 103.52 6.476 103.296 7.348C103.072 8.212 102.96 8.924 102.96 9.484C102.96 10.372 103.124 11.112 103.452 11.704C103.78 12.296 104.252 12.592 104.868 12.592C105.348 12.592 105.896 12.368 106.512 11.92L106.932 11.62C107.02 11.54 107.104 11.5 107.184 11.5C107.32 11.5 107.388 11.572 107.388 11.716C107.388 11.828 107.328 11.928 107.208 12.016C106.984 12.168 106.8 12.3 106.656 12.412C105.976 12.924 105.348 13.18 104.772 13.18ZM110.885 13.108C110.469 13.108 110.157 12.944 109.949 12.616C109.749 12.288 109.649 11.896 109.649 11.44C109.649 10.712 109.769 10.008 110.009 9.328C110.257 8.64 110.593 8.072 111.017 7.624C111.425 7.168 111.885 6.94 112.397 6.94C113.133 6.94 113.501 7.5 113.501 8.62C113.501 9.18 113.409 9.752 113.225 10.336C113.041 10.92 112.801 11.44 112.505 11.896C112.217 12.352 111.917 12.68 111.605 12.88C111.365 13.032 111.125 13.108 110.885 13.108ZM110.981 12.568C111.229 12.568 111.505 12.352 111.809 11.92C112.121 11.488 112.381 10.952 112.589 10.312C112.805 9.672 112.913 9.128 112.913 8.68C112.913 8.216 112.885 7.928 112.829 7.816C112.781 7.696 112.721 7.612 112.649 7.564C112.577 7.516 112.465 7.492 112.313 7.492C112.145 7.492 111.969 7.556 111.785 7.684C111.417 7.916 111.097 8.316 110.825 8.884C110.401 9.732 110.189 10.556 110.189 11.356C110.189 11.9 110.345 12.276 110.657 12.484C110.769 12.54 110.877 12.568 110.981 12.568ZM115.431 13.144C114.695 13.144 114.327 12.692 114.327 11.788C114.327 11.1 114.399 10.44 114.543 9.808C114.695 9.168 114.891 8.612 115.131 8.14C115.379 7.668 115.647 7.328 115.935 7.12C116.159 6.96 116.367 6.88 116.559 6.88C116.927 6.88 117.187 6.956 117.339 7.108C117.251 6.828 117.123 6.54 116.955 6.244C116.771 5.94 116.619 5.664 116.499 5.416C116.131 4.736 115.947 4.08 115.947 3.448C115.947 3.04 116.027 2.68 116.187 2.368C116.355 2.048 116.579 1.8 116.859 1.624C117.139 1.44 117.455 1.348 117.807 1.348C118.127 1.348 118.419 1.392 118.683 1.48C119.019 1.576 119.267 1.64 119.427 1.672C119.595 1.704 119.795 1.72 120.027 1.72C120.427 1.72 120.743 1.676 120.975 1.588C120.975 1.588 121.059 1.56 121.227 1.504C121.291 1.48 121.371 1.468 121.467 1.468C121.611 1.468 121.683 1.528 121.683 1.648C121.683 1.824 121.535 1.972 121.239 2.092C120.943 2.212 120.619 2.272 120.267 2.272C119.971 2.272 119.743 2.26 119.583 2.236C119.423 2.204 119.139 2.132 118.731 2.02C118.379 1.932 118.011 1.888 117.627 1.888C117.267 1.888 116.991 2.044 116.799 2.356C116.607 2.668 116.511 3.036 116.511 3.46C116.511 3.844 116.563 4.188 116.667 4.492C116.771 4.788 116.979 5.2 117.291 5.728C117.803 6.576 118.059 7.312 118.059 7.936L117.999 8.476V8.5C117.999 9.124 117.907 9.74 117.723 10.348C117.547 10.956 117.315 11.488 117.027 11.944C116.747 12.4 116.455 12.728 116.151 12.928C115.927 13.072 115.687 13.144 115.431 13.144ZM115.419 12.556C115.627 12.556 115.819 12.488 115.995 12.352C116.171 12.208 116.339 12.004 116.499 11.74C116.779 11.252 117.007 10.672 117.183 10C117.359 9.36 117.447 8.796 117.447 8.308C117.447 8.044 117.379 7.844 117.243 7.708C117.107 7.572 116.927 7.504 116.703 7.504C116.495 7.504 116.319 7.564 116.175 7.684C116.039 7.804 115.871 8.02 115.671 8.332C115.471 8.652 115.283 9.12 115.107 9.736C114.939 10.344 114.855 10.86 114.855 11.284C114.855 11.732 114.895 12.056 114.975 12.256C115.055 12.456 115.203 12.556 115.419 12.556ZM124.787 13.144C124.547 13.144 124.379 13.064 124.283 12.904C124.195 12.744 124.151 12.472 124.151 12.088C124.151 11.432 124.311 10.596 124.631 9.58C124.143 9.964 123.583 10.156 122.951 10.156C122.735 10.156 122.567 10.148 122.447 10.132L122.483 10.408C122.483 10.8 122.379 11.2 122.171 11.608C121.971 12.008 121.703 12.344 121.367 12.616C121.039 12.88 120.699 13.012 120.347 13.012C119.755 13.012 119.459 12.636 119.459 11.884C119.459 10.948 119.643 9.98 120.011 8.98C120.179 8.508 120.295 8.152 120.359 7.912C120.423 7.672 120.467 7.42 120.491 7.156C120.515 7.076 120.559 7.008 120.623 6.952C120.695 6.896 120.767 6.868 120.839 6.868C120.935 6.868 121.003 6.936 121.043 7.072C121.011 7.408 120.947 7.74 120.851 8.068C120.763 8.396 120.635 8.816 120.467 9.328C120.155 10.312 119.999 11.1 119.999 11.692C119.999 12.02 120.067 12.252 120.203 12.388C120.251 12.444 120.351 12.472 120.503 12.472C120.647 12.472 120.811 12.408 120.995 12.28C121.179 12.152 121.339 11.988 121.475 11.788C121.779 11.364 121.931 10.9 121.931 10.396C121.931 10.276 121.919 10.164 121.895 10.06C121.343 9.948 121.067 9.764 121.067 9.508C121.067 9.364 121.135 9.24 121.271 9.136C121.415 9.032 121.555 8.98 121.691 8.98C121.931 8.98 122.135 9.184 122.303 9.592C122.431 9.624 122.595 9.64 122.795 9.64C123.267 9.64 123.695 9.524 124.079 9.292C124.463 9.06 124.783 8.736 125.039 8.32C125.095 8.152 125.135 8.012 125.159 7.9C125.327 7.252 125.547 6.928 125.819 6.928C125.963 6.928 126.035 7.028 126.035 7.228C125.891 7.724 125.707 8.168 125.483 8.56C124.971 10.048 124.715 11.18 124.715 11.956C124.715 12.388 124.771 12.604 124.883 12.604C124.987 12.604 125.079 12.576 125.159 12.52C125.247 12.456 125.347 12.368 125.459 12.256C125.563 12.144 125.651 12.06 125.723 12.004C125.795 11.94 125.859 11.908 125.915 11.908C126.067 11.908 126.143 11.976 126.143 12.112C126.143 12.184 126.111 12.264 126.047 12.352L125.735 12.64C125.567 12.808 125.419 12.932 125.291 13.012C125.171 13.1 125.003 13.144 124.787 13.144ZM127.044 7.624C126.948 7.624 126.864 7.596 126.792 7.54C126.728 7.484 126.696 7.424 126.696 7.36C126.696 7.304 126.724 7.256 126.78 7.216C127.452 6.928 128.292 6.784 129.3 6.784C129.732 6.784 130.088 6.8 130.368 6.832C130.64 6.872 130.876 6.9 131.076 6.916C131.244 6.94 131.344 6.968 131.376 7C131.408 7.04 131.424 7.096 131.424 7.168C131.424 7.24 131.384 7.312 131.304 7.384C131.224 7.448 131.124 7.48 131.004 7.48C130.868 7.48 130.64 7.444 130.32 7.372C129.984 7.308 129.664 7.276 129.36 7.276C128.544 7.276 127.804 7.388 127.14 7.612L127.092 7.624H127.044ZM127.668 13.18C127.532 13.18 127.464 13.1 127.464 12.94C127.464 12.86 127.492 12.784 127.548 12.712C127.62 12.52 127.692 12.26 127.764 11.932C127.86 11.524 127.924 11.272 127.956 11.176L128.076 10.564L128.208 9.796C128.344 9.012 128.472 8.448 128.592 8.104C128.72 7.76 128.892 7.588 129.108 7.588C129.188 7.588 129.252 7.64 129.3 7.744L129.456 8.152C129.456 8.32 129.396 8.448 129.276 8.536C129.244 8.56 129.204 8.572 129.156 8.572C129.108 8.572 129.064 8.548 129.024 8.5C128.84 9.18 128.728 9.676 128.688 9.988C128.608 10.508 128.54 10.908 128.484 11.188C128.452 11.276 128.416 11.404 128.376 11.572L128.268 11.968C128.06 12.776 127.86 13.18 127.668 13.18ZM134.492 13.12C134.404 13.12 134.308 13.048 134.204 12.904C134.108 12.752 134.06 12.62 134.06 12.508V12.304C134.06 12.056 134.232 11.308 134.576 10.06L134.732 9.4L134.408 10.084C134.304 10.348 134.136 10.72 133.904 11.2C133.312 12.464 132.68 13.096 132.008 13.096C131.608 13.096 131.336 12.876 131.192 12.436C131.152 12.292 131.132 12.112 131.132 11.896C131.132 11.448 131.216 10.876 131.384 10.18C131.48 9.78 131.56 9.484 131.624 9.292L131.72 8.98C131.808 8.676 131.896 8.356 131.984 8.02C132.08 7.676 132.132 7.416 132.14 7.24C132.164 7.16 132.208 7.092 132.272 7.036C132.344 6.98 132.42 6.952 132.5 6.952C132.58 6.952 132.644 7.056 132.692 7.264C132.692 7.472 132.652 7.728 132.572 8.032C132.492 8.328 132.412 8.592 132.332 8.824C132.26 9.056 132.216 9.204 132.2 9.268C131.872 10.3 131.708 11.196 131.708 11.956C131.708 12.196 131.8 12.364 131.984 12.46C132.048 12.492 132.136 12.508 132.248 12.508C132.472 12.508 132.74 12.284 133.052 11.836C133.34 11.42 133.632 10.9 133.928 10.276C134.224 9.652 134.464 9.084 134.648 8.572C134.84 8.02 135 7.616 135.128 7.36C135.256 7.104 135.396 6.976 135.548 6.976C135.684 6.976 135.752 7.044 135.752 7.18C135.752 7.284 135.688 7.568 135.56 8.032C135.44 8.424 135.36 8.704 135.32 8.872C135.28 9.032 135.232 9.26 135.176 9.556L134.888 11.188L134.756 11.872C134.748 11.944 134.728 12.052 134.696 12.196C134.696 12.348 134.72 12.448 134.768 12.496L134.876 12.64C134.9 12.664 134.912 12.716 134.912 12.796C134.912 12.876 134.864 12.948 134.768 13.012C134.68 13.084 134.588 13.12 134.492 13.12ZM137.873 13.12C137.617 13.12 137.417 13.08 137.273 13C137.129 12.912 137.013 12.78 136.925 12.604C136.757 12.292 136.673 11.916 136.673 11.476C136.673 10.708 136.789 9.98 137.021 9.292C137.253 8.596 137.569 8.012 137.969 7.54C138.353 7.092 138.773 6.868 139.229 6.868C139.469 6.868 139.657 6.968 139.793 7.168C139.937 7.36 140.009 7.596 140.009 7.876C140.009 8.364 139.881 8.788 139.625 9.148C139.377 9.508 139.041 9.808 138.617 10.048C138.249 10.264 137.801 10.48 137.273 10.696L137.249 11.56C137.249 12.232 137.453 12.568 137.861 12.568C138.045 12.568 138.237 12.524 138.437 12.436C138.637 12.34 138.845 12.228 139.061 12.1C139.165 12.044 139.249 12.016 139.313 12.016C139.449 12.016 139.517 12.088 139.517 12.232C139.517 12.336 139.417 12.46 139.217 12.604C139.025 12.748 138.797 12.872 138.533 12.976C138.269 13.072 138.049 13.12 137.873 13.12ZM137.369 10.12C137.441 10.08 137.601 9.996 137.849 9.868C137.961 9.82 138.121 9.74 138.329 9.628C138.705 9.42 138.985 9.18 139.169 8.908C139.361 8.636 139.457 8.3 139.457 7.9C139.457 7.588 139.325 7.432 139.061 7.432C138.829 7.432 138.557 7.644 138.245 8.068C137.917 8.492 137.653 9.048 137.453 9.736C137.397 9.928 137.369 10.056 137.369 10.12ZM144.257 17.932C143.777 17.932 143.309 17.84 142.853 17.656C142.397 17.472 142.001 17.232 141.665 16.936C141.321 16.648 141.073 16.34 140.921 16.012C140.809 15.748 140.753 15.524 140.753 15.34C140.753 14.54 140.909 14.14 141.221 14.14C141.317 14.14 141.385 14.208 141.425 14.344L141.377 14.74C141.353 14.876 141.341 15.036 141.341 15.22C141.341 15.612 141.497 15.98 141.809 16.324C142.113 16.668 142.505 16.932 142.985 17.116C143.441 17.292 143.941 17.38 144.485 17.38C144.997 17.38 145.469 17.28 145.901 17.08C146.333 16.88 146.693 16.604 146.981 16.252C147.525 15.572 147.797 14.728 147.797 13.72C147.797 13.32 147.701 12.928 147.509 12.544C147.317 12.152 147.061 11.836 146.741 11.596C146.429 11.356 146.093 11.236 145.733 11.236H145.661C145.253 11.476 144.869 11.62 144.509 11.668C144.349 11.652 144.269 11.584 144.269 11.464C144.269 11.344 144.381 11.22 144.605 11.092C144.829 10.956 145.081 10.856 145.361 10.792L145.745 10.552C145.977 10.416 146.225 10.224 146.489 9.976C146.761 9.72 146.989 9.456 147.173 9.184C147.357 8.912 147.449 8.676 147.449 8.476C147.449 8.116 147.381 7.848 147.245 7.672C147.109 7.488 146.845 7.396 146.453 7.396C145.661 7.396 144.953 7.76 144.329 8.488C144.249 8.584 144.169 8.632 144.089 8.632C143.929 8.632 143.849 8.56 143.849 8.416C143.849 8.216 143.989 7.996 144.269 7.756C144.557 7.508 144.905 7.3 145.313 7.132C145.721 6.964 146.093 6.88 146.429 6.88C146.757 6.88 147.041 6.944 147.281 7.072C147.521 7.2 147.701 7.368 147.821 7.576C147.949 7.776 148.013 7.992 148.013 8.224C148.013 8.56 147.913 8.9 147.713 9.244C147.505 9.596 147.177 9.988 146.729 10.42C146.537 10.596 146.389 10.724 146.285 10.804C146.917 10.94 147.421 11.284 147.797 11.836C148.181 12.388 148.373 13.04 148.373 13.792C148.373 14.584 148.221 15.292 147.917 15.916C147.613 16.54 147.153 17.032 146.537 17.392C145.921 17.752 145.161 17.932 144.257 17.932Z" fill="#6D6F72"/>
<path d="M186.852 74.06C186.732 74.06 186.66 73.976 186.636 73.808C186.732 73.248 186.904 72.392 187.152 71.24C187.384 70.176 187.524 69.516 187.572 69.26C186.892 69.044 186.552 68.848 186.552 68.672C186.552 68.584 186.584 68.516 186.648 68.468C186.712 68.412 186.784 68.384 186.864 68.384C186.984 68.384 187.124 68.42 187.284 68.492C187.38 68.524 187.452 68.552 187.5 68.576L187.692 68.66L188.892 63.032C188.54 63.136 188.28 63.34 188.112 63.644C188.04 63.74 187.948 63.788 187.836 63.788C187.692 63.788 187.62 63.72 187.62 63.584C187.62 63.576 187.628 63.532 187.644 63.452C187.932 62.916 188.408 62.584 189.072 62.456C189.16 62.296 189.26 62.216 189.372 62.216C189.484 62.216 189.552 62.276 189.576 62.396H189.624C190.2 62.396 190.704 62.532 191.136 62.804C191.576 63.076 191.912 63.432 192.144 63.872C192.376 64.312 192.492 64.784 192.492 65.288C192.492 66.112 192.344 66.84 192.048 67.472C191.752 68.104 191.316 68.596 190.74 68.948C190.172 69.3 189.484 69.476 188.676 69.476C188.468 69.476 188.268 69.448 188.076 69.392C188.02 69.712 187.912 70.236 187.752 70.964L187.656 71.408L187.596 71.696C187.388 72.656 187.252 73.332 187.188 73.724C187.172 73.82 187.128 73.9 187.056 73.964C186.992 74.028 186.924 74.06 186.852 74.06ZM189.048 68.912C189.432 68.912 189.808 68.824 190.176 68.648C190.552 68.464 190.876 68.22 191.148 67.916C191.708 67.276 191.988 66.496 191.988 65.576C191.988 65.096 191.884 64.656 191.676 64.256C191.468 63.848 191.172 63.528 190.788 63.296C190.404 63.056 189.96 62.936 189.456 62.936L188.196 68.84C188.388 68.888 188.672 68.912 189.048 68.912ZM197.104 74.024C196.92 74.024 196.748 73.928 196.588 73.736C196.436 73.536 196.36 73.324 196.36 73.1C196.36 72.604 196.492 71.764 196.756 70.58C196.556 71.012 196.296 71.456 195.976 71.912C195.664 72.36 195.356 72.756 195.052 73.1C194.748 73.444 194.524 73.668 194.38 73.772C194.18 73.924 193.96 74 193.72 74C193.264 74 193.036 73.712 193.036 73.136C193.036 72.576 193.248 71.88 193.672 71.048C194.096 70.208 194.6 69.48 195.184 68.864C195.768 68.256 196.24 67.952 196.6 67.952C196.968 67.952 197.176 68.112 197.224 68.432C197.248 68.528 197.26 68.632 197.26 68.744C197.3 68.72 197.344 68.708 197.392 68.708C197.576 68.708 197.668 68.796 197.668 68.972V69.02L197.524 69.548C197.412 69.948 197.296 70.54 197.176 71.324C197.056 72.108 196.996 72.76 196.996 73.28L197.116 73.352C197.308 73.472 197.404 73.592 197.404 73.712C197.404 73.792 197.376 73.864 197.32 73.928C197.264 73.992 197.192 74.024 197.104 74.024ZM193.816 73.376C193.904 73.376 193.976 73.348 194.032 73.292C194.848 72.596 195.572 71.632 196.204 70.4C196.564 69.72 196.76 69.316 196.792 69.188C196.808 69.044 196.816 68.956 196.816 68.924C196.816 68.844 196.796 68.772 196.756 68.708C196.716 68.644 196.664 68.612 196.6 68.612C196.52 68.612 196.416 68.648 196.288 68.72C195.968 68.888 195.588 69.244 195.148 69.788C194.716 70.332 194.36 70.908 194.08 71.516C193.784 72.132 193.636 72.68 193.636 73.16C193.636 73.304 193.696 73.376 193.816 73.376ZM199.83 74.144C199.446 74.144 199.142 74.004 198.918 73.724C198.702 73.436 198.594 73.092 198.594 72.692C198.594 71.988 198.722 71.26 198.978 70.508C199.242 69.756 199.586 69.128 200.01 68.624C200.434 68.12 200.882 67.868 201.354 67.868C201.698 67.868 201.922 67.992 202.026 68.24C202.05 68.28 202.07 68.324 202.086 68.372C202.102 68.412 202.118 68.452 202.134 68.492C202.174 68.604 202.214 68.668 202.254 68.684C202.286 68.764 202.302 68.824 202.302 68.864C202.302 68.936 202.266 69.004 202.194 69.068C202.13 69.132 202.058 69.164 201.978 69.164C201.81 69.164 201.702 69.04 201.654 68.792C201.606 68.544 201.474 68.42 201.258 68.42C200.97 68.42 200.666 68.644 200.346 69.092C200.026 69.532 199.75 70.092 199.518 70.772C199.294 71.412 199.182 71.984 199.182 72.488C199.182 73.2 199.442 73.556 199.962 73.556C200.226 73.556 200.47 73.432 200.694 73.184C200.718 73.152 200.762 73.1 200.826 73.028C200.89 72.948 200.95 72.892 201.006 72.86C201.062 72.82 201.114 72.8 201.162 72.8C201.314 72.8 201.39 72.868 201.39 73.004C201.39 73.164 201.314 73.336 201.162 73.52C201.01 73.696 200.814 73.844 200.574 73.964C200.334 74.084 200.086 74.144 199.83 74.144ZM204.797 74.24C204.349 74.24 204.125 73.892 204.125 73.196C204.125 72.276 204.321 71.34 204.713 70.388C204.801 70.164 204.933 69.856 205.109 69.464C204.925 69.52 204.749 69.548 204.581 69.548C204.093 69.548 203.757 69.336 203.573 68.912C203.333 69.256 203.213 69.612 203.213 69.98V70.04L203.261 70.244C203.261 70.332 203.229 70.412 203.165 70.484C203.101 70.548 203.029 70.58 202.949 70.58C202.757 70.58 202.661 70.428 202.661 70.124C202.661 69.844 202.721 69.54 202.841 69.212C202.961 68.876 203.109 68.596 203.285 68.372C203.461 68.14 203.629 68.024 203.789 68.024C203.909 68.024 203.985 68.088 204.017 68.216C204.017 68.608 204.161 68.852 204.449 68.948C204.521 68.98 204.609 68.996 204.713 68.996C204.985 68.996 205.221 68.908 205.421 68.732C205.709 68.18 205.993 67.904 206.273 67.904C206.417 67.928 206.489 68.032 206.489 68.216C206.489 68.4 206.277 68.668 205.853 69.02C205.717 69.284 205.597 69.56 205.493 69.848L205.193 70.64C204.833 71.536 204.653 72.324 204.653 73.004C204.653 73.46 204.733 73.688 204.893 73.688C205.093 73.688 205.413 73.38 205.853 72.764C205.909 72.692 205.969 72.612 206.033 72.524C206.089 72.444 206.137 72.388 206.177 72.356C206.225 72.316 206.289 72.296 206.369 72.296C206.513 72.296 206.585 72.36 206.585 72.488C206.585 72.528 206.569 72.588 206.537 72.668C206.113 73.22 205.769 73.62 205.505 73.868C205.241 74.116 205.005 74.24 204.797 74.24ZM208.432 74.12C208.176 74.12 207.976 74.08 207.832 74C207.688 73.912 207.572 73.78 207.484 73.604C207.316 73.292 207.232 72.916 207.232 72.476C207.232 71.708 207.348 70.98 207.58 70.292C207.812 69.596 208.128 69.012 208.528 68.54C208.912 68.092 209.332 67.868 209.788 67.868C210.028 67.868 210.216 67.968 210.352 68.168C210.496 68.36 210.568 68.596 210.568 68.876C210.568 69.364 210.44 69.788 210.184 70.148C209.936 70.508 209.6 70.808 209.176 71.048C208.808 71.264 208.36 71.48 207.832 71.696L207.808 72.56C207.808 73.232 208.012 73.568 208.42 73.568C208.604 73.568 208.796 73.524 208.996 73.436C209.196 73.34 209.404 73.228 209.62 73.1C209.724 73.044 209.808 73.016 209.872 73.016C210.008 73.016 210.076 73.088 210.076 73.232C210.076 73.336 209.976 73.46 209.776 73.604C209.584 73.748 209.356 73.872 209.092 73.976C208.828 74.072 208.608 74.12 208.432 74.12ZM207.928 71.12C208 71.08 208.16 70.996 208.408 70.868C208.52 70.82 208.68 70.74 208.888 70.628C209.264 70.42 209.544 70.18 209.728 69.908C209.92 69.636 210.016 69.3 210.016 68.9C210.016 68.588 209.884 68.432 209.62 68.432C209.388 68.432 209.116 68.644 208.804 69.068C208.476 69.492 208.212 70.048 208.012 70.736C207.956 70.928 207.928 71.056 207.928 71.12ZM211.267 68.624C211.171 68.624 211.087 68.596 211.015 68.54C210.951 68.484 210.919 68.424 210.919 68.36C210.919 68.304 210.947 68.256 211.003 68.216C211.675 67.928 212.515 67.784 213.523 67.784C213.955 67.784 214.311 67.8 214.591 67.832C214.863 67.872 215.099 67.9 215.299 67.916C215.467 67.94 215.567 67.968 215.599 68C215.631 68.04 215.647 68.096 215.647 68.168C215.647 68.24 215.607 68.312 215.527 68.384C215.447 68.448 215.347 68.48 215.227 68.48C215.091 68.48 214.863 68.444 214.543 68.372C214.207 68.308 213.887 68.276 213.583 68.276C212.767 68.276 212.027 68.388 211.363 68.612L211.315 68.624H211.267ZM211.891 74.18C211.755 74.18 211.687 74.1 211.687 73.94C211.687 73.86 211.715 73.784 211.771 73.712C211.843 73.52 211.915 73.26 211.987 72.932C212.083 72.524 212.147 72.272 212.179 72.176L212.299 71.564L212.431 70.796C212.567 70.012 212.695 69.448 212.815 69.104C212.943 68.76 213.115 68.588 213.331 68.588C213.411 68.588 213.475 68.64 213.523 68.744L213.679 69.152C213.679 69.32 213.619 69.448 213.499 69.536C213.467 69.56 213.427 69.572 213.379 69.572C213.331 69.572 213.287 69.548 213.247 69.5C213.063 70.18 212.951 70.676 212.911 70.988C212.831 71.508 212.763 71.908 212.707 72.188C212.675 72.276 212.639 72.404 212.599 72.572L212.491 72.968C212.283 73.776 212.083 74.18 211.891 74.18ZM219.123 74.132C218.899 74.132 218.727 74.072 218.607 73.952C218.495 73.832 218.439 73.676 218.439 73.484C218.439 73.284 218.491 72.94 218.595 72.452L218.871 71C218.287 71.44 217.747 71.66 217.251 71.66C216.891 71.66 216.615 71.564 216.423 71.372C216.407 71.452 216.391 71.532 216.375 71.612C216.367 71.692 216.355 71.772 216.339 71.852C216.307 72.116 216.267 72.384 216.219 72.656C216.075 73.608 215.859 74.084 215.571 74.084C215.451 74.084 215.379 74 215.355 73.832C215.427 73.208 215.603 72.24 215.883 70.928C216.171 69.608 216.375 68.716 216.495 68.252C216.519 68.172 216.563 68.104 216.627 68.048C216.699 67.992 216.771 67.964 216.843 67.964C216.939 67.964 217.007 68.032 217.047 68.168C217.047 68.296 216.975 68.712 216.831 69.416C216.719 69.952 216.631 70.412 216.567 70.796C216.743 70.996 217.019 71.096 217.395 71.096C217.763 71.096 218.167 70.912 218.607 70.544C218.743 70.424 218.871 70.296 218.991 70.16L219.171 69.356C219.307 68.772 219.455 68.368 219.615 68.144C219.695 68.016 219.803 67.952 219.939 67.952C220.075 67.952 220.143 68.028 220.143 68.18V68.24C219.703 69.752 219.427 70.848 219.315 71.528C219.211 72.112 219.143 72.572 219.111 72.908C219.087 73.172 219.071 73.316 219.063 73.34L219.051 73.496C219.051 73.544 219.071 73.568 219.111 73.568C219.143 73.568 219.171 73.556 219.195 73.532C219.235 73.508 219.299 73.496 219.387 73.496C219.523 73.496 219.591 73.568 219.591 73.712C219.591 73.992 219.435 74.132 219.123 74.132ZM222.201 74.108C221.785 74.108 221.473 73.944 221.265 73.616C221.065 73.288 220.965 72.896 220.965 72.44C220.965 71.712 221.085 71.008 221.325 70.328C221.573 69.64 221.909 69.072 222.333 68.624C222.741 68.168 223.201 67.94 223.713 67.94C224.449 67.94 224.817 68.5 224.817 69.62C224.817 70.18 224.725 70.752 224.541 71.336C224.357 71.92 224.117 72.44 223.821 72.896C223.533 73.352 223.233 73.68 222.921 73.88C222.681 74.032 222.441 74.108 222.201 74.108ZM222.297 73.568C222.545 73.568 222.821 73.352 223.125 72.92C223.437 72.488 223.697 71.952 223.905 71.312C224.121 70.672 224.229 70.128 224.229 69.68C224.229 69.216 224.201 68.928 224.145 68.816C224.097 68.696 224.037 68.612 223.965 68.564C223.893 68.516 223.781 68.492 223.629 68.492C223.461 68.492 223.285 68.556 223.101 68.684C222.733 68.916 222.413 69.316 222.141 69.884C221.717 70.732 221.505 71.556 221.505 72.356C221.505 72.9 221.661 73.276 221.973 73.484C222.085 73.54 222.193 73.568 222.297 73.568ZM226.772 74.12C226.516 74.12 226.316 74.08 226.172 74C226.028 73.912 225.912 73.78 225.824 73.604C225.656 73.292 225.572 72.916 225.572 72.476C225.572 71.708 225.688 70.98 225.92 70.292C226.152 69.596 226.468 69.012 226.868 68.54C227.252 68.092 227.672 67.868 228.128 67.868C228.368 67.868 228.556 67.968 228.692 68.168C228.836 68.36 228.908 68.596 228.908 68.876C228.908 69.364 228.78 69.788 228.524 70.148C228.276 70.508 227.94 70.808 227.516 71.048C227.148 71.264 226.7 71.48 226.172 71.696L226.148 72.56C226.148 73.232 226.352 73.568 226.76 73.568C226.944 73.568 227.136 73.524 227.336 73.436C227.536 73.34 227.744 73.228 227.96 73.1C228.064 73.044 228.148 73.016 228.212 73.016C228.348 73.016 228.416 73.088 228.416 73.232C228.416 73.336 228.316 73.46 228.116 73.604C227.924 73.748 227.696 73.872 227.432 73.976C227.168 74.072 226.948 74.12 226.772 74.12ZM226.268 71.12C226.34 71.08 226.5 70.996 226.748 70.868C226.86 70.82 227.02 70.74 227.228 70.628C227.604 70.42 227.884 70.18 228.068 69.908C228.26 69.636 228.356 69.3 228.356 68.9C228.356 68.588 228.224 68.432 227.96 68.432C227.728 68.432 227.456 68.644 227.144 69.068C226.816 69.492 226.552 70.048 226.352 70.736C226.296 70.928 226.268 71.056 226.268 71.12ZM186.996 96.92C186.5 96.92 186.132 96.776 185.892 96.488C185.652 96.2 185.532 95.828 185.532 95.372C185.532 94.948 185.656 94.536 185.904 94.136C186.152 93.736 186.504 93.336 186.96 92.936C187.416 92.536 188.024 92.056 188.784 91.496C188.816 91.048 188.832 90.752 188.832 90.608C188.832 90.312 188.788 90.08 188.7 89.912C188.612 89.736 188.452 89.644 188.22 89.636L188.052 89.756C187.484 90.156 187.056 90.356 186.768 90.356C186.664 90.356 186.588 90.332 186.54 90.284C186.492 90.236 186.468 90.176 186.468 90.104C186.468 90.04 186.516 89.956 186.612 89.852C186.74 89.716 186.932 89.576 187.188 89.432C187.444 89.28 187.736 89.176 188.064 89.12C188.544 88.696 188.88 88.34 189.072 88.052C189.272 87.756 189.372 87.404 189.372 86.996C189.372 86.804 189.324 86.664 189.228 86.576C189.132 86.488 188.96 86.444 188.712 86.444C188.44 86.444 188.208 86.472 188.016 86.528C187.832 86.584 187.608 86.708 187.344 86.9C187.072 87.1 186.892 87.2 186.804 87.2C186.66 87.2 186.588 87.116 186.588 86.948C186.588 86.868 186.652 86.764 186.78 86.636C186.916 86.508 187.084 86.388 187.284 86.276C187.78 86.02 188.256 85.892 188.712 85.892C189.152 85.892 189.46 85.98 189.636 86.156C189.812 86.332 189.9 86.604 189.9 86.972C189.9 87.772 189.528 88.508 188.784 89.18C189.184 89.356 189.384 89.828 189.384 90.596L189.36 91.088L190.272 90.44C190.336 90.408 190.392 90.392 190.44 90.392C190.576 90.392 190.644 90.464 190.644 90.608C190.644 90.68 190.612 90.76 190.548 90.848C190.38 90.96 190.276 91.028 190.236 91.052L189.3 91.712C189.172 92.672 188.992 93.572 188.76 94.412C188.536 95.26 188.344 95.82 188.184 96.092C188.024 96.364 187.856 96.568 187.68 96.704C187.504 96.848 187.276 96.92 186.996 96.92ZM186.876 96.404C187.116 96.404 187.312 96.316 187.464 96.14C187.72 95.836 188.012 95.06 188.34 93.812C188.5 93.252 188.62 92.696 188.7 92.144C187.716 92.896 186.984 93.564 186.504 94.148C186.2 94.524 186.048 94.896 186.048 95.264C186.048 95.624 186.124 95.904 186.276 96.104C186.428 96.304 186.628 96.404 186.876 96.404ZM195.018 92.132C194.794 92.132 194.622 92.072 194.502 91.952C194.39 91.832 194.334 91.676 194.334 91.484C194.334 91.284 194.386 90.94 194.49 90.452L194.766 89C194.182 89.44 193.642 89.66 193.146 89.66C192.786 89.66 192.51 89.564 192.318 89.372C192.302 89.452 192.286 89.532 192.27 89.612C192.262 89.692 192.25 89.772 192.234 89.852C192.202 90.116 192.162 90.384 192.114 90.656C191.97 91.608 191.754 92.084 191.466 92.084C191.346 92.084 191.274 92 191.25 91.832C191.322 91.208 191.498 90.24 191.778 88.928C192.066 87.608 192.27 86.716 192.39 86.252C192.414 86.172 192.458 86.104 192.522 86.048C192.594 85.992 192.666 85.964 192.738 85.964C192.834 85.964 192.902 86.032 192.942 86.168C192.942 86.296 192.87 86.712 192.726 87.416C192.614 87.952 192.526 88.412 192.462 88.796C192.638 88.996 192.914 89.096 193.29 89.096C193.658 89.096 194.062 88.912 194.502 88.544C194.638 88.424 194.766 88.296 194.886 88.16L195.066 87.356C195.202 86.772 195.35 86.368 195.51 86.144C195.59 86.016 195.698 85.952 195.834 85.952C195.97 85.952 196.038 86.028 196.038 86.18V86.24C195.598 87.752 195.322 88.848 195.21 89.528C195.106 90.112 195.038 90.572 195.006 90.908C194.982 91.172 194.966 91.316 194.958 91.34L194.946 91.496C194.946 91.544 194.966 91.568 195.006 91.568C195.038 91.568 195.066 91.556 195.09 91.532C195.13 91.508 195.194 91.496 195.282 91.496C195.418 91.496 195.486 91.568 195.486 91.712C195.486 91.992 195.33 92.132 195.018 92.132ZM200.76 92.024C200.576 92.024 200.404 91.928 200.244 91.736C200.092 91.536 200.016 91.324 200.016 91.1C200.016 90.604 200.148 89.764 200.412 88.58C200.212 89.012 199.952 89.456 199.632 89.912C199.32 90.36 199.012 90.756 198.708 91.1C198.404 91.444 198.18 91.668 198.036 91.772C197.836 91.924 197.616 92 197.376 92C196.92 92 196.692 91.712 196.692 91.136C196.692 90.576 196.904 89.88 197.328 89.048C197.752 88.208 198.256 87.48 198.84 86.864C199.424 86.256 199.896 85.952 200.256 85.952C200.624 85.952 200.832 86.112 200.88 86.432C200.904 86.528 200.916 86.632 200.916 86.744C200.956 86.72 201 86.708 201.048 86.708C201.232 86.708 201.324 86.796 201.324 86.972V87.02L201.18 87.548C201.068 87.948 200.952 88.54 200.832 89.324C200.712 90.108 200.652 90.76 200.652 91.28L200.772 91.352C200.964 91.472 201.06 91.592 201.06 91.712C201.06 91.792 201.032 91.864 200.976 91.928C200.92 91.992 200.848 92.024 200.76 92.024ZM197.472 91.376C197.56 91.376 197.632 91.348 197.688 91.292C198.504 90.596 199.228 89.632 199.86 88.4C200.22 87.72 200.416 87.316 200.448 87.188C200.464 87.044 200.472 86.956 200.472 86.924C200.472 86.844 200.452 86.772 200.412 86.708C200.372 86.644 200.32 86.612 200.256 86.612C200.176 86.612 200.072 86.648 199.944 86.72C199.624 86.888 199.244 87.244 198.804 87.788C198.372 88.332 198.016 88.908 197.736 89.516C197.44 90.132 197.292 90.68 197.292 91.16C197.292 91.304 197.352 91.376 197.472 91.376ZM204.387 92.24C203.939 92.24 203.715 91.892 203.715 91.196C203.715 90.276 203.911 89.34 204.303 88.388C204.391 88.164 204.523 87.856 204.699 87.464C204.515 87.52 204.339 87.548 204.171 87.548C203.683 87.548 203.347 87.336 203.163 86.912C202.923 87.256 202.803 87.612 202.803 87.98V88.04L202.851 88.244C202.851 88.332 202.819 88.412 202.755 88.484C202.691 88.548 202.619 88.58 202.539 88.58C202.347 88.58 202.251 88.428 202.251 88.124C202.251 87.844 202.311 87.54 202.431 87.212C202.551 86.876 202.699 86.596 202.875 86.372C203.051 86.14 203.219 86.024 203.379 86.024C203.499 86.024 203.575 86.088 203.607 86.216C203.607 86.608 203.751 86.852 204.039 86.948C204.111 86.98 204.199 86.996 204.303 86.996C204.575 86.996 204.811 86.908 205.011 86.732C205.299 86.18 205.583 85.904 205.863 85.904C206.007 85.928 206.079 86.032 206.079 86.216C206.079 86.4 205.867 86.668 205.443 87.02C205.307 87.284 205.187 87.56 205.083 87.848L204.783 88.64C204.423 89.536 204.243 90.324 204.243 91.004C204.243 91.46 204.323 91.688 204.483 91.688C204.683 91.688 205.003 91.38 205.443 90.764C205.499 90.692 205.559 90.612 205.623 90.524C205.679 90.444 205.727 90.388 205.767 90.356C205.815 90.316 205.879 90.296 205.959 90.296C206.103 90.296 206.175 90.36 206.175 90.488C206.175 90.528 206.159 90.588 206.127 90.668C205.703 91.22 205.359 91.62 205.095 91.868C204.831 92.116 204.595 92.24 204.387 92.24ZM208.022 92.12C207.766 92.12 207.566 92.08 207.422 92C207.278 91.912 207.162 91.78 207.074 91.604C206.906 91.292 206.822 90.916 206.822 90.476C206.822 89.708 206.938 88.98 207.17 88.292C207.402 87.596 207.718 87.012 208.118 86.54C208.502 86.092 208.922 85.868 209.378 85.868C209.618 85.868 209.806 85.968 209.942 86.168C210.086 86.36 210.158 86.596 210.158 86.876C210.158 87.364 210.03 87.788 209.774 88.148C209.526 88.508 209.19 88.808 208.766 89.048C208.398 89.264 207.95 89.48 207.422 89.696L207.398 90.56C207.398 91.232 207.602 91.568 208.01 91.568C208.194 91.568 208.386 91.524 208.586 91.436C208.786 91.34 208.994 91.228 209.21 91.1C209.314 91.044 209.398 91.016 209.462 91.016C209.598 91.016 209.666 91.088 209.666 91.232C209.666 91.336 209.566 91.46 209.366 91.604C209.174 91.748 208.946 91.872 208.682 91.976C208.418 92.072 208.198 92.12 208.022 92.12ZM207.518 89.12C207.59 89.08 207.75 88.996 207.998 88.868C208.11 88.82 208.27 88.74 208.478 88.628C208.854 88.42 209.134 88.18 209.318 87.908C209.51 87.636 209.606 87.3 209.606 86.9C209.606 86.588 209.474 86.432 209.21 86.432C208.978 86.432 208.706 86.644 208.394 87.068C208.066 87.492 207.802 88.048 207.602 88.736C207.546 88.928 207.518 89.056 207.518 89.12ZM214.564 92.132C214.34 92.132 214.168 92.072 214.048 91.952C213.936 91.832 213.88 91.676 213.88 91.484C213.88 91.284 213.932 90.94 214.036 90.452L214.312 89C213.728 89.44 213.188 89.66 212.692 89.66C212.332 89.66 212.056 89.564 211.864 89.372C211.848 89.452 211.832 89.532 211.816 89.612C211.808 89.692 211.796 89.772 211.78 89.852C211.748 90.116 211.708 90.384 211.66 90.656C211.516 91.608 211.3 92.084 211.012 92.084C210.892 92.084 210.82 92 210.796 91.832C210.868 91.208 211.044 90.24 211.324 88.928C211.612 87.608 211.816 86.716 211.936 86.252C211.96 86.172 212.004 86.104 212.068 86.048C212.14 85.992 212.212 85.964 212.284 85.964C212.38 85.964 212.448 86.032 212.488 86.168C212.488 86.296 212.416 86.712 212.272 87.416C212.16 87.952 212.072 88.412 212.008 88.796C212.184 88.996 212.46 89.096 212.836 89.096C213.204 89.096 213.608 88.912 214.048 88.544C214.184 88.424 214.312 88.296 214.432 88.16L214.612 87.356C214.748 86.772 214.896 86.368 215.056 86.144C215.136 86.016 215.244 85.952 215.38 85.952C215.516 85.952 215.584 86.028 215.584 86.18V86.24C215.144 87.752 214.868 88.848 214.756 89.528C214.652 90.112 214.584 90.572 214.552 90.908C214.528 91.172 214.512 91.316 214.504 91.34L214.492 91.496C214.492 91.544 214.512 91.568 214.552 91.568C214.584 91.568 214.612 91.556 214.636 91.532C214.676 91.508 214.74 91.496 214.828 91.496C214.964 91.496 215.032 91.568 215.032 91.712C215.032 91.992 214.876 92.132 214.564 92.132ZM219.887 92.12C219.799 92.12 219.703 92.048 219.599 91.904C219.503 91.752 219.455 91.62 219.455 91.508V91.304C219.455 91.056 219.627 90.308 219.971 89.06L220.127 88.4L219.803 89.084C219.699 89.348 219.531 89.72 219.299 90.2C218.707 91.464 218.075 92.096 217.403 92.096C217.003 92.096 216.731 91.876 216.587 91.436C216.547 91.292 216.527 91.112 216.527 90.896C216.527 90.448 216.611 89.876 216.779 89.18C216.875 88.78 216.955 88.484 217.019 88.292L217.115 87.98C217.203 87.676 217.291 87.356 217.379 87.02C217.475 86.676 217.527 86.416 217.535 86.24C217.559 86.16 217.603 86.092 217.667 86.036C217.739 85.98 217.815 85.952 217.895 85.952C217.975 85.952 218.039 86.056 218.087 86.264C218.087 86.472 218.047 86.728 217.967 87.032C217.887 87.328 217.807 87.592 217.727 87.824C217.655 88.056 217.611 88.204 217.595 88.268C217.267 89.3 217.103 90.196 217.103 90.956C217.103 91.196 217.195 91.364 217.379 91.46C217.443 91.492 217.531 91.508 217.643 91.508C217.867 91.508 218.135 91.284 218.447 90.836C218.735 90.42 219.027 89.9 219.323 89.276C219.619 88.652 219.859 88.084 220.043 87.572C220.235 87.02 220.395 86.616 220.523 86.36C220.651 86.104 220.791 85.976 220.943 85.976C221.079 85.976 221.147 86.044 221.147 86.18C221.147 86.284 221.083 86.568 220.955 87.032C220.835 87.424 220.755 87.704 220.715 87.872C220.675 88.032 220.627 88.26 220.571 88.556L220.283 90.188L220.151 90.872C220.143 90.944 220.123 91.052 220.091 91.196C220.091 91.348 220.115 91.448 220.163 91.496L220.271 91.64C220.295 91.664 220.307 91.716 220.307 91.796C220.307 91.876 220.259 91.948 220.163 92.012C220.075 92.084 219.983 92.12 219.887 92.12ZM223.268 92.12C223.012 92.12 222.812 92.08 222.668 92C222.524 91.912 222.408 91.78 222.32 91.604C222.152 91.292 222.068 90.916 222.068 90.476C222.068 89.708 222.184 88.98 222.416 88.292C222.648 87.596 222.964 87.012 223.364 86.54C223.748 86.092 224.168 85.868 224.624 85.868C224.864 85.868 225.052 85.968 225.188 86.168C225.332 86.36 225.404 86.596 225.404 86.876C225.404 87.364 225.276 87.788 225.02 88.148C224.772 88.508 224.436 88.808 224.012 89.048C223.644 89.264 223.196 89.48 222.668 89.696L222.644 90.56C222.644 91.232 222.848 91.568 223.256 91.568C223.44 91.568 223.632 91.524 223.832 91.436C224.032 91.34 224.24 91.228 224.456 91.1C224.56 91.044 224.644 91.016 224.708 91.016C224.844 91.016 224.912 91.088 224.912 91.232C224.912 91.336 224.812 91.46 224.612 91.604C224.42 91.748 224.192 91.872 223.928 91.976C223.664 92.072 223.444 92.12 223.268 92.12ZM222.764 89.12C222.836 89.08 222.996 88.996 223.244 88.868C223.356 88.82 223.516 88.74 223.724 88.628C224.1 88.42 224.38 88.18 224.564 87.908C224.756 87.636 224.852 87.3 224.852 86.9C224.852 86.588 224.72 86.432 224.456 86.432C224.224 86.432 223.952 86.644 223.64 87.068C223.312 87.492 223.048 88.048 222.848 88.736C222.792 88.928 222.764 89.056 222.764 89.12Z" fill="#17181A"/>
<path d="M53.772 52.18C53.452 52.18 53.148 52.096 52.86 51.928C52.244 51.576 51.804 50.956 51.54 50.068C51.412 49.636 51.348 49.208 51.348 48.784C51.348 48.096 51.456 47.292 51.672 46.372C51.888 45.444 52.192 44.52 52.584 43.6C53 42.616 53.484 41.824 54.036 41.224C54.596 40.616 55.176 40.312 55.776 40.312C56.176 40.312 56.544 40.432 56.88 40.672C57.224 40.912 57.496 41.22 57.696 41.596C57.896 41.964 57.996 42.328 57.996 42.688C57.988 42.768 57.948 42.844 57.876 42.916C57.804 42.988 57.732 43.024 57.66 43.024C57.588 43.024 57.536 43 57.504 42.952C57.456 42.88 57.42 42.752 57.396 42.568C57.332 42.064 57.152 41.66 56.856 41.356C56.56 41.044 56.196 40.888 55.764 40.888C55.332 40.888 54.868 41.184 54.372 41.776C53.956 42.272 53.56 42.94 53.184 43.78C52.816 44.62 52.52 45.476 52.296 46.348C52.072 47.212 51.96 47.924 51.96 48.484C51.96 49.372 52.124 50.112 52.452 50.704C52.78 51.296 53.252 51.592 53.868 51.592C54.348 51.592 54.896 51.368 55.512 50.92L55.932 50.62C56.02 50.54 56.104 50.5 56.184 50.5C56.32 50.5 56.388 50.572 56.388 50.716C56.388 50.828 56.328 50.928 56.208 51.016C55.984 51.168 55.8 51.3 55.656 51.412C54.976 51.924 54.348 52.18 53.772 52.18ZM59.8851 52.108C59.4691 52.108 59.1571 51.944 58.9491 51.616C58.7491 51.288 58.6491 50.896 58.6491 50.44C58.6491 49.712 58.7691 49.008 59.0091 48.328C59.2571 47.64 59.5931 47.072 60.0171 46.624C60.4251 46.168 60.8851 45.94 61.3971 45.94C62.1331 45.94 62.5011 46.5 62.5011 47.62C62.5011 48.18 62.4091 48.752 62.2251 49.336C62.0411 49.92 61.8011 50.44 61.5051 50.896C61.2171 51.352 60.9171 51.68 60.6051 51.88C60.3651 52.032 60.1251 52.108 59.8851 52.108ZM59.9811 51.568C60.2291 51.568 60.5051 51.352 60.8091 50.92C61.1211 50.488 61.3811 49.952 61.5891 49.312C61.8051 48.672 61.9131 48.128 61.9131 47.68C61.9131 47.216 61.8851 46.928 61.8291 46.816C61.7811 46.696 61.7211 46.612 61.6491 46.564C61.5771 46.516 61.4651 46.492 61.3131 46.492C61.1451 46.492 60.9691 46.556 60.7851 46.684C60.4171 46.916 60.0971 47.316 59.8251 47.884C59.4011 48.732 59.1891 49.556 59.1891 50.356C59.1891 50.9 59.3451 51.276 59.6571 51.484C59.7691 51.54 59.8771 51.568 59.9811 51.568ZM64.4314 52.144C63.6954 52.144 63.3274 51.692 63.3274 50.788C63.3274 50.1 63.3994 49.44 63.5434 48.808C63.6954 48.168 63.8914 47.612 64.1314 47.14C64.3794 46.668 64.6474 46.328 64.9354 46.12C65.1594 45.96 65.3674 45.88 65.5594 45.88C65.9274 45.88 66.1874 45.956 66.3394 46.108C66.2514 45.828 66.1234 45.54 65.9554 45.244C65.7714 44.94 65.6194 44.664 65.4994 44.416C65.1314 43.736 64.9474 43.08 64.9474 42.448C64.9474 42.04 65.0274 41.68 65.1874 41.368C65.3554 41.048 65.5794 40.8 65.8594 40.624C66.1394 40.44 66.4554 40.348 66.8074 40.348C67.1274 40.348 67.4194 40.392 67.6834 40.48C68.0194 40.576 68.2674 40.64 68.4274 40.672C68.5954 40.704 68.7954 40.72 69.0274 40.72C69.4274 40.72 69.7434 40.676 69.9754 40.588C69.9754 40.588 70.0594 40.56 70.2274 40.504C70.2914 40.48 70.3714 40.468 70.4674 40.468C70.6114 40.468 70.6834 40.528 70.6834 40.648C70.6834 40.824 70.5354 40.972 70.2394 41.092C69.9434 41.212 69.6194 41.272 69.2674 41.272C68.9714 41.272 68.7434 41.26 68.5834 41.236C68.4234 41.204 68.1394 41.132 67.7314 41.02C67.3794 40.932 67.0114 40.888 66.6274 40.888C66.2674 40.888 65.9914 41.044 65.7994 41.356C65.6074 41.668 65.5114 42.036 65.5114 42.46C65.5114 42.844 65.5634 43.188 65.6674 43.492C65.7714 43.788 65.9794 44.2 66.2914 44.728C66.8034 45.576 67.0594 46.312 67.0594 46.936L66.9994 47.476V47.5C66.9994 48.124 66.9074 48.74 66.7234 49.348C66.5474 49.956 66.3154 50.488 66.0274 50.944C65.7474 51.4 65.4554 51.728 65.1514 51.928C64.9274 52.072 64.6874 52.144 64.4314 52.144ZM64.4194 51.556C64.6274 51.556 64.8194 51.488 64.9954 51.352C65.1714 51.208 65.3394 51.004 65.4994 50.74C65.7794 50.252 66.0074 49.672 66.1834 49C66.3594 48.36 66.4474 47.796 66.4474 47.308C66.4474 47.044 66.3794 46.844 66.2434 46.708C66.1074 46.572 65.9274 46.504 65.7034 46.504C65.4954 46.504 65.3194 46.564 65.1754 46.684C65.0394 46.804 64.8714 47.02 64.6714 47.332C64.4714 47.652 64.2834 48.12 64.1074 48.736C63.9394 49.344 63.8554 49.86 63.8554 50.284C63.8554 50.732 63.8954 51.056 63.9754 51.256C64.0554 51.456 64.2034 51.556 64.4194 51.556ZM73.7871 52.144C73.5471 52.144 73.3791 52.064 73.2831 51.904C73.1951 51.744 73.1511 51.472 73.1511 51.088C73.1511 50.432 73.3111 49.596 73.6311 48.58C73.1431 48.964 72.5831 49.156 71.9511 49.156C71.7351 49.156 71.5671 49.148 71.4471 49.132L71.4831 49.408C71.4831 49.8 71.3791 50.2 71.1711 50.608C70.9711 51.008 70.7031 51.344 70.3671 51.616C70.0391 51.88 69.6991 52.012 69.3471 52.012C68.7551 52.012 68.4591 51.636 68.4591 50.884C68.4591 49.948 68.6431 48.98 69.0111 47.98C69.1791 47.508 69.2951 47.152 69.3591 46.912C69.4231 46.672 69.4671 46.42 69.4911 46.156C69.5151 46.076 69.5591 46.008 69.6231 45.952C69.6951 45.896 69.7671 45.868 69.8391 45.868C69.9351 45.868 70.0031 45.936 70.0431 46.072C70.0111 46.408 69.9471 46.74 69.8511 47.068C69.7631 47.396 69.6351 47.816 69.4671 48.328C69.1551 49.312 68.9991 50.1 68.9991 50.692C68.9991 51.02 69.0671 51.252 69.2031 51.388C69.2511 51.444 69.3511 51.472 69.5031 51.472C69.6471 51.472 69.8111 51.408 69.9951 51.28C70.1791 51.152 70.3391 50.988 70.4751 50.788C70.7791 50.364 70.9311 49.9 70.9311 49.396C70.9311 49.276 70.9191 49.164 70.8951 49.06C70.3431 48.948 70.0671 48.764 70.0671 48.508C70.0671 48.364 70.1351 48.24 70.2711 48.136C70.4151 48.032 70.5551 47.98 70.6911 47.98C70.9311 47.98 71.1351 48.184 71.3031 48.592C71.4311 48.624 71.5951 48.64 71.7951 48.64C72.2671 48.64 72.6951 48.524 73.0791 48.292C73.4631 48.06 73.7831 47.736 74.0391 47.32C74.0951 47.152 74.1351 47.012 74.1591 46.9C74.3271 46.252 74.5471 45.928 74.8191 45.928C74.9631 45.928 75.0351 46.028 75.0351 46.228C74.8911 46.724 74.7071 47.168 74.4831 47.56C73.9711 49.048 73.7151 50.18 73.7151 50.956C73.7151 51.388 73.7711 51.604 73.8831 51.604C73.9871 51.604 74.0791 51.576 74.1591 51.52C74.2471 51.456 74.3471 51.368 74.4591 51.256C74.5631 51.144 74.6511 51.06 74.7231 51.004C74.7951 50.94 74.8591 50.908 74.9151 50.908C75.0671 50.908 75.1431 50.976 75.1431 51.112C75.1431 51.184 75.1111 51.264 75.0471 51.352L74.7351 51.64C74.5671 51.808 74.4191 51.932 74.2911 52.012C74.1711 52.1 74.0031 52.144 73.7871 52.144ZM76.0439 46.624C75.9479 46.624 75.8639 46.596 75.7919 46.54C75.7279 46.484 75.6959 46.424 75.6959 46.36C75.6959 46.304 75.7239 46.256 75.7799 46.216C76.4519 45.928 77.2919 45.784 78.2999 45.784C78.7319 45.784 79.0879 45.8 79.3679 45.832C79.6399 45.872 79.8759 45.9 80.0759 45.916C80.2439 45.94 80.3439 45.968 80.3759 46C80.4079 46.04 80.4239 46.096 80.4239 46.168C80.4239 46.24 80.3839 46.312 80.3039 46.384C80.2239 46.448 80.1239 46.48 80.0039 46.48C79.8679 46.48 79.6399 46.444 79.3199 46.372C78.9839 46.308 78.6639 46.276 78.3599 46.276C77.5439 46.276 76.8039 46.388 76.1399 46.612L76.0919 46.624H76.0439ZM76.6679 52.18C76.5319 52.18 76.4639 52.1 76.4639 51.94C76.4639 51.86 76.4919 51.784 76.5479 51.712C76.6199 51.52 76.6919 51.26 76.7639 50.932C76.8599 50.524 76.9239 50.272 76.9559 50.176L77.0759 49.564L77.2079 48.796C77.3439 48.012 77.4719 47.448 77.5919 47.104C77.7199 46.76 77.8919 46.588 78.1079 46.588C78.1879 46.588 78.2519 46.64 78.2999 46.744L78.4559 47.152C78.4559 47.32 78.3959 47.448 78.2759 47.536C78.2439 47.56 78.2039 47.572 78.1559 47.572C78.1079 47.572 78.0639 47.548 78.0239 47.5C77.8399 48.18 77.7279 48.676 77.6879 48.988C77.6079 49.508 77.5399 49.908 77.4839 50.188C77.4519 50.276 77.4159 50.404 77.3759 50.572L77.2679 50.968C77.0599 51.776 76.8599 52.18 76.6679 52.18ZM83.4923 52.12C83.4043 52.12 83.3083 52.048 83.2043 51.904C83.1083 51.752 83.0603 51.62 83.0603 51.508V51.304C83.0603 51.056 83.2323 50.308 83.5763 49.06L83.7323 48.4L83.4083 49.084C83.3043 49.348 83.1363 49.72 82.9043 50.2C82.3123 51.464 81.6803 52.096 81.0083 52.096C80.6083 52.096 80.3363 51.876 80.1923 51.436C80.1523 51.292 80.1323 51.112 80.1323 50.896C80.1323 50.448 80.2163 49.876 80.3843 49.18C80.4803 48.78 80.5603 48.484 80.6243 48.292L80.7203 47.98C80.8083 47.676 80.8963 47.356 80.9843 47.02C81.0803 46.676 81.1323 46.416 81.1403 46.24C81.1643 46.16 81.2083 46.092 81.2723 46.036C81.3443 45.98 81.4203 45.952 81.5003 45.952C81.5803 45.952 81.6443 46.056 81.6923 46.264C81.6923 46.472 81.6523 46.728 81.5723 47.032C81.4923 47.328 81.4123 47.592 81.3323 47.824C81.2603 48.056 81.2163 48.204 81.2003 48.268C80.8723 49.3 80.7083 50.196 80.7083 50.956C80.7083 51.196 80.8003 51.364 80.9843 51.46C81.0483 51.492 81.1363 51.508 81.2483 51.508C81.4723 51.508 81.7403 51.284 82.0523 50.836C82.3403 50.42 82.6323 49.9 82.9283 49.276C83.2243 48.652 83.4643 48.084 83.6483 47.572C83.8403 47.02 84.0003 46.616 84.1283 46.36C84.2563 46.104 84.3963 45.976 84.5483 45.976C84.6843 45.976 84.7523 46.044 84.7523 46.18C84.7523 46.284 84.6883 46.568 84.5603 47.032C84.4403 47.424 84.3603 47.704 84.3203 47.872C84.2803 48.032 84.2323 48.26 84.1763 48.556L83.8883 50.188L83.7563 50.872C83.7483 50.944 83.7283 51.052 83.6963 51.196C83.6963 51.348 83.7203 51.448 83.7683 51.496L83.8763 51.64C83.9003 51.664 83.9123 51.716 83.9123 51.796C83.9123 51.876 83.8643 51.948 83.7683 52.012C83.6803 52.084 83.5883 52.12 83.4923 52.12ZM86.8733 52.12C86.6173 52.12 86.4173 52.08 86.2733 52C86.1293 51.912 86.0133 51.78 85.9253 51.604C85.7573 51.292 85.6733 50.916 85.6733 50.476C85.6733 49.708 85.7893 48.98 86.0213 48.292C86.2533 47.596 86.5693 47.012 86.9693 46.54C87.3533 46.092 87.7733 45.868 88.2293 45.868C88.4693 45.868 88.6573 45.968 88.7933 46.168C88.9373 46.36 89.0093 46.596 89.0093 46.876C89.0093 47.364 88.8813 47.788 88.6253 48.148C88.3773 48.508 88.0413 48.808 87.6173 49.048C87.2493 49.264 86.8013 49.48 86.2733 49.696L86.2493 50.56C86.2493 51.232 86.4533 51.568 86.8613 51.568C87.0453 51.568 87.2373 51.524 87.4373 51.436C87.6373 51.34 87.8453 51.228 88.0613 51.1C88.1653 51.044 88.2493 51.016 88.3133 51.016C88.4493 51.016 88.5173 51.088 88.5173 51.232C88.5173 51.336 88.4173 51.46 88.2173 51.604C88.0253 51.748 87.7973 51.872 87.5333 51.976C87.2693 52.072 87.0493 52.12 86.8733 52.12ZM86.3693 49.12C86.4413 49.08 86.6013 48.996 86.8493 48.868C86.9613 48.82 87.1213 48.74 87.3293 48.628C87.7053 48.42 87.9853 48.18 88.1693 47.908C88.3613 47.636 88.4573 47.3 88.4573 46.9C88.4573 46.588 88.3253 46.432 88.0613 46.432C87.8293 46.432 87.5573 46.644 87.2453 47.068C86.9173 47.492 86.6533 48.048 86.4533 48.736C86.3973 48.928 86.3693 49.056 86.3693 49.12ZM92.9692 52.108C92.7132 52.108 92.4932 52.024 92.3092 51.856C92.1252 51.688 92.0332 51.48 92.0332 51.232C92.0332 50.968 92.1292 50.752 92.3212 50.584C92.5212 50.408 92.7692 50.32 93.0652 50.32C93.2972 50.32 93.5252 50.348 93.7492 50.404C93.9812 50.46 94.1772 50.548 94.3372 50.668C95.7692 49.244 96.4852 48.14 96.4852 47.356C96.4852 46.748 96.0852 46.444 95.2852 46.444C94.9892 46.444 94.7052 46.5 94.4332 46.612C94.1692 46.716 93.9532 46.856 93.7852 47.032C93.6252 47.2 93.5452 47.38 93.5452 47.572C93.5132 47.644 93.4652 47.704 93.4012 47.752C93.3372 47.792 93.2772 47.812 93.2212 47.812C93.0772 47.812 93.0052 47.74 93.0052 47.596C93.0052 47.3 93.1332 47.024 93.3892 46.768C93.6532 46.504 93.9692 46.292 94.3372 46.132C94.7132 45.972 95.0532 45.892 95.3572 45.892C96.4692 45.892 97.0252 46.364 97.0252 47.308C97.0252 48.252 96.2892 49.46 94.8172 50.932C95.1852 51.148 95.4772 51.3 95.6932 51.388C95.9172 51.476 96.1452 51.52 96.3772 51.52C96.6012 51.52 96.7572 51.44 96.8452 51.28C96.9332 51.12 97.0092 50.884 97.0732 50.572C97.1292 50.268 97.2012 50.044 97.2892 49.9C97.3372 49.812 97.4172 49.768 97.5292 49.768C97.6332 49.768 97.7012 49.84 97.7332 49.984C97.6852 50.592 97.5892 51.028 97.4452 51.292C97.1572 51.812 96.8092 52.072 96.4012 52.072C96.1532 52.072 95.9092 52.024 95.6692 51.928C95.4372 51.824 95.1572 51.676 94.8292 51.484C94.6692 51.388 94.5492 51.32 94.4692 51.28C94.3412 51.456 94.1492 51.64 93.8932 51.832C93.6372 52.016 93.3292 52.108 92.9692 52.108ZM93.0052 51.532C93.2932 51.532 93.6132 51.368 93.9652 51.04C93.6292 50.904 93.3732 50.836 93.1972 50.836C93.0052 50.836 92.8492 50.876 92.7292 50.956C92.6172 51.036 92.5612 51.128 92.5612 51.232C92.5612 51.432 92.7092 51.532 93.0052 51.532Z" fill="#6D6F72"/>
<path d="M11.772 102.18C11.452 102.18 11.148 102.096 10.86 101.928C10.244 101.576 9.804 100.956 9.54 100.068C9.412 99.636 9.348 99.208 9.348 98.784C9.348 98.096 9.456 97.292 9.672 96.372C9.888 95.444 10.192 94.52 10.584 93.6C11 92.616 11.484 91.824 12.036 91.224C12.596 90.616 13.176 90.312 13.776 90.312C14.176 90.312 14.544 90.432 14.88 90.672C15.224 90.912 15.496 91.22 15.696 91.596C15.896 91.964 15.996 92.328 15.996 92.688C15.988 92.768 15.948 92.844 15.876 92.916C15.804 92.988 15.732 93.024 15.66 93.024C15.588 93.024 15.536 93 15.504 92.952C15.456 92.88 15.42 92.752 15.396 92.568C15.332 92.064 15.152 91.66 14.856 91.356C14.56 91.044 14.196 90.888 13.764 90.888C13.332 90.888 12.868 91.184 12.372 91.776C11.956 92.272 11.56 92.94 11.184 93.78C10.816 94.62 10.52 95.476 10.296 96.348C10.072 97.212 9.96 97.924 9.96 98.484C9.96 99.372 10.124 100.112 10.452 100.704C10.78 101.296 11.252 101.592 11.868 101.592C12.348 101.592 12.896 101.368 13.512 100.92L13.932 100.62C14.02 100.54 14.104 100.5 14.184 100.5C14.32 100.5 14.388 100.572 14.388 100.716C14.388 100.828 14.328 100.928 14.208 101.016C13.984 101.168 13.8 101.3 13.656 101.412C12.976 101.924 12.348 102.18 11.772 102.18ZM17.8851 102.108C17.4691 102.108 17.1571 101.944 16.9491 101.616C16.7491 101.288 16.6491 100.896 16.6491 100.44C16.6491 99.712 16.7691 99.008 17.0091 98.328C17.2571 97.64 17.5931 97.072 18.0171 96.624C18.4251 96.168 18.8851 95.94 19.3971 95.94C20.1331 95.94 20.5011 96.5 20.5011 97.62C20.5011 98.18 20.4091 98.752 20.2251 99.336C20.0411 99.92 19.8011 100.44 19.5051 100.896C19.2171 101.352 18.9171 101.68 18.6051 101.88C18.3651 102.032 18.1251 102.108 17.8851 102.108ZM17.9811 101.568C18.2291 101.568 18.5051 101.352 18.8091 100.92C19.1211 100.488 19.3811 99.952 19.5891 99.312C19.8051 98.672 19.9131 98.128 19.9131 97.68C19.9131 97.216 19.8851 96.928 19.8291 96.816C19.7811 96.696 19.7211 96.612 19.6491 96.564C19.5771 96.516 19.4651 96.492 19.3131 96.492C19.1451 96.492 18.9691 96.556 18.7851 96.684C18.4171 96.916 18.0971 97.316 17.8251 97.884C17.4011 98.732 17.1891 99.556 17.1891 100.356C17.1891 100.9 17.3451 101.276 17.6571 101.484C17.7691 101.54 17.8771 101.568 17.9811 101.568ZM22.4314 102.144C21.6954 102.144 21.3274 101.692 21.3274 100.788C21.3274 100.1 21.3994 99.44 21.5434 98.808C21.6954 98.168 21.8914 97.612 22.1314 97.14C22.3794 96.668 22.6474 96.328 22.9354 96.12C23.1594 95.96 23.3674 95.88 23.5594 95.88C23.9274 95.88 24.1874 95.956 24.3394 96.108C24.2514 95.828 24.1234 95.54 23.9554 95.244C23.7714 94.94 23.6194 94.664 23.4994 94.416C23.1314 93.736 22.9474 93.08 22.9474 92.448C22.9474 92.04 23.0274 91.68 23.1874 91.368C23.3554 91.048 23.5794 90.8 23.8594 90.624C24.1394 90.44 24.4554 90.348 24.8074 90.348C25.1274 90.348 25.4194 90.392 25.6834 90.48C26.0194 90.576 26.2674 90.64 26.4274 90.672C26.5954 90.704 26.7954 90.72 27.0274 90.72C27.4274 90.72 27.7434 90.676 27.9754 90.588C27.9754 90.588 28.0594 90.56 28.2274 90.504C28.2914 90.48 28.3714 90.468 28.4674 90.468C28.6114 90.468 28.6834 90.528 28.6834 90.648C28.6834 90.824 28.5354 90.972 28.2394 91.092C27.9434 91.212 27.6194 91.272 27.2674 91.272C26.9714 91.272 26.7434 91.26 26.5834 91.236C26.4234 91.204 26.1394 91.132 25.7314 91.02C25.3794 90.932 25.0114 90.888 24.6274 90.888C24.2674 90.888 23.9914 91.044 23.7994 91.356C23.6074 91.668 23.5114 92.036 23.5114 92.46C23.5114 92.844 23.5634 93.188 23.6674 93.492C23.7714 93.788 23.9794 94.2 24.2914 94.728C24.8034 95.576 25.0594 96.312 25.0594 96.936L24.9994 97.476V97.5C24.9994 98.124 24.9074 98.74 24.7234 99.348C24.5474 99.956 24.3154 100.488 24.0274 100.944C23.7474 101.4 23.4554 101.728 23.1514 101.928C22.9274 102.072 22.6874 102.144 22.4314 102.144ZM22.4194 101.556C22.6274 101.556 22.8194 101.488 22.9954 101.352C23.1714 101.208 23.3394 101.004 23.4994 100.74C23.7794 100.252 24.0074 99.672 24.1834 99C24.3594 98.36 24.4474 97.796 24.4474 97.308C24.4474 97.044 24.3794 96.844 24.2434 96.708C24.1074 96.572 23.9274 96.504 23.7034 96.504C23.4954 96.504 23.3194 96.564 23.1754 96.684C23.0394 96.804 22.8714 97.02 22.6714 97.332C22.4714 97.652 22.2834 98.12 22.1074 98.736C21.9394 99.344 21.8554 99.86 21.8554 100.284C21.8554 100.732 21.8954 101.056 21.9754 101.256C22.0554 101.456 22.2034 101.556 22.4194 101.556ZM31.7871 102.144C31.5471 102.144 31.3791 102.064 31.2831 101.904C31.1951 101.744 31.1511 101.472 31.1511 101.088C31.1511 100.432 31.3111 99.596 31.6311 98.58C31.1431 98.964 30.5831 99.156 29.9511 99.156C29.7351 99.156 29.5671 99.148 29.4471 99.132L29.4831 99.408C29.4831 99.8 29.3791 100.2 29.1711 100.608C28.9711 101.008 28.7031 101.344 28.3671 101.616C28.0391 101.88 27.6991 102.012 27.3471 102.012C26.7551 102.012 26.4591 101.636 26.4591 100.884C26.4591 99.948 26.6431 98.98 27.0111 97.98C27.1791 97.508 27.2951 97.152 27.3591 96.912C27.4231 96.672 27.4671 96.42 27.4911 96.156C27.5151 96.076 27.5591 96.008 27.6231 95.952C27.6951 95.896 27.7671 95.868 27.8391 95.868C27.9351 95.868 28.0031 95.936 28.0431 96.072C28.0111 96.408 27.9471 96.74 27.8511 97.068C27.7631 97.396 27.6351 97.816 27.4671 98.328C27.1551 99.312 26.9991 100.1 26.9991 100.692C26.9991 101.02 27.0671 101.252 27.2031 101.388C27.2511 101.444 27.3511 101.472 27.5031 101.472C27.6471 101.472 27.8111 101.408 27.9951 101.28C28.1791 101.152 28.3391 100.988 28.4751 100.788C28.7791 100.364 28.9311 99.9 28.9311 99.396C28.9311 99.276 28.9191 99.164 28.8951 99.06C28.3431 98.948 28.0671 98.764 28.0671 98.508C28.0671 98.364 28.1351 98.24 28.2711 98.136C28.4151 98.032 28.5551 97.98 28.6911 97.98C28.9311 97.98 29.1351 98.184 29.3031 98.592C29.4311 98.624 29.5951 98.64 29.7951 98.64C30.2671 98.64 30.6951 98.524 31.0791 98.292C31.4631 98.06 31.7831 97.736 32.0391 97.32C32.0951 97.152 32.1351 97.012 32.1591 96.9C32.3271 96.252 32.5471 95.928 32.8191 95.928C32.9631 95.928 33.0351 96.028 33.0351 96.228C32.8911 96.724 32.7071 97.168 32.4831 97.56C31.9711 99.048 31.7151 100.18 31.7151 100.956C31.7151 101.388 31.7711 101.604 31.8831 101.604C31.9871 101.604 32.0791 101.576 32.1591 101.52C32.2471 101.456 32.3471 101.368 32.4591 101.256C32.5631 101.144 32.6511 101.06 32.7231 101.004C32.7951 100.94 32.8591 100.908 32.9151 100.908C33.0671 100.908 33.1431 100.976 33.1431 101.112C33.1431 101.184 33.1111 101.264 33.0471 101.352L32.7351 101.64C32.5671 101.808 32.4191 101.932 32.2911 102.012C32.1711 102.1 32.0031 102.144 31.7871 102.144ZM34.0439 96.624C33.9479 96.624 33.8639 96.596 33.7919 96.54C33.7279 96.484 33.6959 96.424 33.6959 96.36C33.6959 96.304 33.7239 96.256 33.7799 96.216C34.4519 95.928 35.2919 95.784 36.2999 95.784C36.7319 95.784 37.0879 95.8 37.3679 95.832C37.6399 95.872 37.8759 95.9 38.0759 95.916C38.2439 95.94 38.3439 95.968 38.3759 96C38.4079 96.04 38.4239 96.096 38.4239 96.168C38.4239 96.24 38.3839 96.312 38.3039 96.384C38.2239 96.448 38.1239 96.48 38.0039 96.48C37.8679 96.48 37.6399 96.444 37.3199 96.372C36.9839 96.308 36.6639 96.276 36.3599 96.276C35.5439 96.276 34.8039 96.388 34.1399 96.612L34.0919 96.624H34.0439ZM34.6679 102.18C34.5319 102.18 34.4639 102.1 34.4639 101.94C34.4639 101.86 34.4919 101.784 34.5479 101.712C34.6199 101.52 34.6919 101.26 34.7639 100.932C34.8599 100.524 34.9239 100.272 34.9559 100.176L35.0759 99.564L35.2079 98.796C35.3439 98.012 35.4719 97.448 35.5919 97.104C35.7199 96.76 35.8919 96.588 36.1079 96.588C36.1879 96.588 36.2519 96.64 36.2999 96.744L36.4559 97.152C36.4559 97.32 36.3959 97.448 36.2759 97.536C36.2439 97.56 36.2039 97.572 36.1559 97.572C36.1079 97.572 36.0639 97.548 36.0239 97.5C35.8399 98.18 35.7279 98.676 35.6879 98.988C35.6079 99.508 35.5399 99.908 35.4839 100.188C35.4519 100.276 35.4159 100.404 35.3759 100.572L35.2679 100.968C35.0599 101.776 34.8599 102.18 34.6679 102.18ZM41.4923 102.12C41.4043 102.12 41.3083 102.048 41.2043 101.904C41.1083 101.752 41.0603 101.62 41.0603 101.508V101.304C41.0603 101.056 41.2323 100.308 41.5763 99.06L41.7323 98.4L41.4083 99.084C41.3043 99.348 41.1363 99.72 40.9043 100.2C40.3123 101.464 39.6803 102.096 39.0083 102.096C38.6083 102.096 38.3363 101.876 38.1923 101.436C38.1523 101.292 38.1323 101.112 38.1323 100.896C38.1323 100.448 38.2163 99.876 38.3843 99.18C38.4803 98.78 38.5603 98.484 38.6243 98.292L38.7203 97.98C38.8083 97.676 38.8963 97.356 38.9843 97.02C39.0803 96.676 39.1323 96.416 39.1403 96.24C39.1643 96.16 39.2083 96.092 39.2723 96.036C39.3443 95.98 39.4203 95.952 39.5003 95.952C39.5803 95.952 39.6443 96.056 39.6923 96.264C39.6923 96.472 39.6523 96.728 39.5723 97.032C39.4923 97.328 39.4123 97.592 39.3323 97.824C39.2603 98.056 39.2163 98.204 39.2003 98.268C38.8723 99.3 38.7083 100.196 38.7083 100.956C38.7083 101.196 38.8003 101.364 38.9843 101.46C39.0483 101.492 39.1363 101.508 39.2483 101.508C39.4723 101.508 39.7403 101.284 40.0523 100.836C40.3403 100.42 40.6323 99.9 40.9283 99.276C41.2243 98.652 41.4643 98.084 41.6483 97.572C41.8403 97.02 42.0003 96.616 42.1283 96.36C42.2563 96.104 42.3963 95.976 42.5483 95.976C42.6843 95.976 42.7523 96.044 42.7523 96.18C42.7523 96.284 42.6883 96.568 42.5603 97.032C42.4403 97.424 42.3603 97.704 42.3203 97.872C42.2803 98.032 42.2323 98.26 42.1763 98.556L41.8883 100.188L41.7563 100.872C41.7483 100.944 41.7283 101.052 41.6963 101.196C41.6963 101.348 41.7203 101.448 41.7683 101.496L41.8763 101.64C41.9003 101.664 41.9123 101.716 41.9123 101.796C41.9123 101.876 41.8643 101.948 41.7683 102.012C41.6803 102.084 41.5883 102.12 41.4923 102.12ZM44.8733 102.12C44.6173 102.12 44.4173 102.08 44.2733 102C44.1293 101.912 44.0133 101.78 43.9253 101.604C43.7573 101.292 43.6733 100.916 43.6733 100.476C43.6733 99.708 43.7893 98.98 44.0213 98.292C44.2533 97.596 44.5693 97.012 44.9693 96.54C45.3533 96.092 45.7733 95.868 46.2293 95.868C46.4693 95.868 46.6573 95.968 46.7933 96.168C46.9373 96.36 47.0093 96.596 47.0093 96.876C47.0093 97.364 46.8813 97.788 46.6253 98.148C46.3773 98.508 46.0413 98.808 45.6173 99.048C45.2493 99.264 44.8013 99.48 44.2733 99.696L44.2493 100.56C44.2493 101.232 44.4533 101.568 44.8613 101.568C45.0453 101.568 45.2373 101.524 45.4373 101.436C45.6373 101.34 45.8453 101.228 46.0613 101.1C46.1653 101.044 46.2493 101.016 46.3133 101.016C46.4493 101.016 46.5173 101.088 46.5173 101.232C46.5173 101.336 46.4173 101.46 46.2173 101.604C46.0253 101.748 45.7973 101.872 45.5333 101.976C45.2693 102.072 45.0493 102.12 44.8733 102.12ZM44.3693 99.12C44.4413 99.08 44.6013 98.996 44.8493 98.868C44.9613 98.82 45.1213 98.74 45.3293 98.628C45.7053 98.42 45.9853 98.18 46.1693 97.908C46.3613 97.636 46.4573 97.3 46.4573 96.9C46.4573 96.588 46.3253 96.432 46.0613 96.432C45.8293 96.432 45.5573 96.644 45.2453 97.068C44.9173 97.492 44.6533 98.048 44.4533 98.736C44.3973 98.928 44.3693 99.056 44.3693 99.12ZM49.9012 102.12C49.7572 102.12 49.6852 102.048 49.6852 101.904C49.6852 101.688 49.7332 101.58 49.8292 101.58C50.3652 101.58 50.7452 101.568 50.9692 101.544C51.0412 101.544 51.1332 101.536 51.2452 101.52L51.4972 101.508C51.6172 100.372 51.7212 99.584 51.8092 99.144C51.8892 98.824 51.9932 98.432 52.1212 97.968C51.7772 98.488 51.3692 98.972 50.8972 99.42C50.8252 99.468 50.7572 99.492 50.6932 99.492C50.5492 99.492 50.4772 99.42 50.4772 99.276C50.4772 99.212 50.5012 99.144 50.5492 99.072C50.9332 98.68 51.1972 98.396 51.3412 98.22C51.3892 98.156 51.4812 98.032 51.6172 97.848C51.7612 97.664 51.8892 97.46 52.0012 97.236C52.2812 96.676 52.4852 96.308 52.6132 96.132C52.7252 95.996 52.8252 95.928 52.9132 95.928C53.0172 95.928 53.0692 95.992 53.0692 96.12V96.18L53.0572 96.24L53.0212 96.36H53.0332L53.0092 96.396C52.5052 98.308 52.1812 100.004 52.0372 101.484C52.5012 101.468 52.8332 101.46 53.0332 101.46H53.5372L53.7052 101.472L53.9332 101.484C54.0692 101.524 54.1372 101.604 54.1372 101.724C54.1372 101.852 54.0652 101.952 53.9212 102.024C53.8732 102.048 53.8252 102.06 53.7772 102.06L52.9492 102L50.1052 102.048C50.0172 102.096 49.9492 102.12 49.9012 102.12Z" fill="#6D6F72"/>
</svg>
