<svg width="315" height="100" viewBox="0 0 315 100" fill="none" xmlns="http://www.w3.org/2000/svg">
<path d="M314.354 71.1035C314.549 70.9083 314.549 70.5917 314.354 70.3964L311.172 67.2144C310.976 67.0192 310.66 67.0192 310.464 67.2144C310.269 67.4097 310.269 67.7263 310.464 67.9215L313.293 70.75L310.464 73.5784C310.269 73.7737 310.269 74.0902 310.464 74.2855C310.66 74.4808 310.976 74.4808 311.172 74.2855L314.354 71.1035ZM156 71.25L155.997 71.75L156.003 71.75L156 71.25ZM235 70.75L235 70.25L234.997 70.25L235 70.75ZM80 70.75L80.0033 70.25L80 70.25L80 70.75ZM277.5 70.75L277.5 71.25L277.5 70.75ZM156.003 71.75L235.003 71.25L234.997 70.25L155.997 70.75L156.003 71.75ZM2 71.25L80 71.25L80 70.25L2 70.25L2 71.25ZM79.9967 71.25L155.997 71.75L156.003 70.75L80.0033 70.25L79.9967 71.25ZM235 71.25L277.5 71.25L277.5 70.25L235 70.25L235 71.25ZM277.5 71.25L314 71.25L314 70.25L277.5 70.25L277.5 71.25Z" fill="#C6C8CC"/>
<path d="M4.35356 0.646446C4.1583 0.451187 3.84171 0.451187 3.64645 0.646446L0.46447 3.82843C0.269208 4.02369 0.269208 4.34027 0.46447 4.53554C0.659732 4.7308 0.976315 4.7308 1.17158 4.53554L4 1.70711L6.82843 4.53553C7.02369 4.7308 7.34028 4.7308 7.53554 4.53553C7.7308 4.34027 7.7308 4.02369 7.53554 3.82843L4.35356 0.646446ZM4.5 57.5L5.00003 57.5L4.99998 57.4949L4.5 57.5ZM4.5 81L5 81.0139L5 81L4.5 81ZM4 8.5L3.49998 8.5L3.50003 8.5051L4 8.5ZM4.49981 99.0139L4.99981 81.0139L4.00019 80.9861L3.50019 98.9861L4.49981 99.0139ZM5 81L5 57.5L4 57.5L4 81L5 81ZM4.99998 57.4949L4.49998 8.4949L3.50003 8.5051L4.00003 57.5051L4.99998 57.4949ZM4.5 8.5L4.5 1L3.5 1L3.5 8.5L4.5 8.5Z" fill="#C6C8CC"/>
<path d="M134.5 11L135 25.6591L135 41L134.5 55.6591L135 64.8636L134.5 71" stroke="#939598" stroke-width="0.5" stroke-dasharray="4 4"/>
<path d="M86 71L86 77.3523L86 84L86 90.3523L86 94.3409L86 97" stroke="#939598" stroke-width="0.5" stroke-dasharray="4 4"/>
<path d="M228.5 71L228 56.3409L228 41L228.5 26.3409L228 10" stroke="#939598" stroke-width="0.5" stroke-dasharray="4 4"/>
<path d="M134 46.5L116.5 47L99.5 46.6667L67.5 47L50 46.6667L33.5 47L2 46.5" stroke="#939598" stroke-width="0.5" stroke-dasharray="4 4"/>
<circle cx="4.5" cy="46.5" r="2.5" fill="#C6C8CC"/>
<path d="M254 76.6713L250.444 72.7656C246.889 68.8599 239.778 61.0484 232.667 58.7982C225.556 56.5479 218.444 59.8589 211.333 64.0138C204.222 68.1688 197.111 73.1677 190 77.6762C182.889 82.1846 175.778 86.2026 168.667 80.8512C161.556 75.4999 154.444 60.7792 147.333 52.903C140.222 45.0267 133.111 43.995 126 49.2736C118.889 54.5522 111.778 66.1411 104.667 77.3836C97.5556 88.626 90.4445 99.5218 83.3333 96.4841C76.2222 93.4465 69.1111 76.4753 65.5556 67.9898L62 59.5042" stroke="#939598" stroke-linecap="round"/>
<path d="M171.384 18.252C171.24 18.252 171.168 18.18 171.168 18.036L171.324 17.256C171.452 16.632 171.588 15.956 171.732 15.228C171.956 13.98 172.128 13.044 172.248 12.42C172.672 10.172 173.096 8.32 173.52 6.864L169.2 6.924H168.48C168.456 6.964 168.44 6.984 168.432 6.984C168.408 7.088 168.396 7.2 168.396 7.32C168.38 7.48 168.364 7.596 168.348 7.668L166.248 17.808C166.16 17.968 166.048 18.048 165.912 18.048C165.792 18.048 165.724 17.968 165.708 17.808C165.924 16.568 166.196 15.176 166.524 13.632L167.28 10.212C167.656 8.532 167.848 7.592 167.856 7.392C167.872 7.16 167.892 7 167.916 6.912C167.26 6.896 166.64 6.856 166.056 6.792C165.904 6.744 165.828 6.676 165.828 6.588C165.828 6.508 165.864 6.436 165.936 6.372C166.016 6.3 166.108 6.26 166.212 6.252C167.172 6.348 168.032 6.396 168.792 6.396C169.672 6.396 170.24 6.392 170.496 6.384C170.744 6.384 171.124 6.376 171.636 6.36C171.9 6.36 172.272 6.352 172.752 6.336L173.316 6.324C173.556 6.324 174.008 6.336 174.672 6.36C174.792 6.408 174.852 6.472 174.852 6.552C174.852 6.76 174.588 6.86 174.06 6.852C173.764 7.844 173.484 8.992 173.22 10.296C173.012 11.32 172.884 11.928 172.836 12.12C172.812 12.256 172.78 12.42 172.74 12.612L172.596 13.332C172.54 13.556 172.452 13.988 172.332 14.628C172.308 14.74 172.28 14.876 172.248 15.036C172.216 15.196 172.18 15.372 172.14 15.564L172.02 16.212L171.684 17.976C171.62 18.16 171.52 18.252 171.384 18.252ZM175.854 18.12C175.598 18.12 175.398 18.08 175.254 18C175.11 17.912 174.994 17.78 174.906 17.604C174.738 17.292 174.654 16.916 174.654 16.476C174.654 15.708 174.77 14.98 175.002 14.292C175.234 13.596 175.55 13.012 175.95 12.54C176.334 12.092 176.754 11.868 177.21 11.868C177.45 11.868 177.638 11.968 177.774 12.168C177.918 12.36 177.99 12.596 177.99 12.876C177.99 13.364 177.862 13.788 177.606 14.148C177.358 14.508 177.022 14.808 176.598 15.048C176.23 15.264 175.782 15.48 175.254 15.696L175.23 16.56C175.23 17.232 175.434 17.568 175.842 17.568C176.026 17.568 176.218 17.524 176.418 17.436C176.618 17.34 176.826 17.228 177.042 17.1C177.146 17.044 177.23 17.016 177.294 17.016C177.43 17.016 177.498 17.088 177.498 17.232C177.498 17.336 177.398 17.46 177.198 17.604C177.006 17.748 176.778 17.872 176.514 17.976C176.25 18.072 176.03 18.12 175.854 18.12ZM175.35 15.12C175.422 15.08 175.582 14.996 175.83 14.868C175.942 14.82 176.102 14.74 176.31 14.628C176.686 14.42 176.966 14.18 177.15 13.908C177.342 13.636 177.438 13.3 177.438 12.9C177.438 12.588 177.306 12.432 177.042 12.432C176.81 12.432 176.538 12.644 176.226 13.068C175.898 13.492 175.634 14.048 175.434 14.736C175.378 14.928 175.35 15.056 175.35 15.12ZM177.836 22.92C177.716 22.92 177.648 22.84 177.632 22.68C177.872 21.768 178.08 20.856 178.256 19.944L178.616 18.06L178.976 16.176L179.072 15.672C179.392 14.008 179.608 12.896 179.72 12.336V12.072C179.72 11.992 179.756 11.916 179.828 11.844C179.9 11.772 179.984 11.736 180.08 11.736C180.168 11.736 180.236 11.772 180.284 11.844C180.332 11.908 180.356 11.98 180.356 12.06C180.356 12.172 180.336 12.288 180.296 12.408L180.248 12.564C180.232 12.628 180.224 12.672 180.224 12.696L180.056 13.56C180.632 12.464 181.248 11.916 181.904 11.916C182.248 11.916 182.496 12.02 182.648 12.228C182.808 12.428 182.888 12.732 182.888 13.14C182.888 13.908 182.78 14.672 182.564 15.432C182.348 16.192 182.036 16.832 181.628 17.352C181.212 17.888 180.716 18.156 180.14 18.156C179.916 18.156 179.736 18.108 179.6 18.012C179.472 17.924 179.368 17.768 179.288 17.544L179.144 18.252C178.952 19.132 178.812 19.796 178.724 20.244C178.532 21.22 178.348 22.032 178.172 22.68C178.1 22.84 177.988 22.92 177.836 22.92ZM180.224 17.592C180.64 17.592 181.028 17.328 181.388 16.8C181.836 16.12 182.132 15.228 182.276 14.124C182.316 13.78 182.336 13.484 182.336 13.236C182.336 12.716 182.208 12.456 181.952 12.456C181.696 12.456 181.404 12.64 181.076 13.008C180.628 13.512 180.26 14.12 179.972 14.832C179.684 15.536 179.54 16.148 179.54 16.668C179.54 17.284 179.768 17.592 180.224 17.592ZM187.004 18.12C186.916 18.12 186.82 18.048 186.716 17.904C186.62 17.752 186.572 17.62 186.572 17.508V17.304C186.572 17.056 186.744 16.308 187.088 15.06L187.244 14.4L186.92 15.084C186.816 15.348 186.648 15.72 186.416 16.2C185.824 17.464 185.192 18.096 184.52 18.096C184.12 18.096 183.848 17.876 183.704 17.436C183.664 17.292 183.644 17.112 183.644 16.896C183.644 16.448 183.728 15.876 183.896 15.18C183.992 14.78 184.072 14.484 184.136 14.292L184.232 13.98C184.32 13.676 184.408 13.356 184.496 13.02C184.592 12.676 184.644 12.416 184.652 12.24C184.676 12.16 184.72 12.092 184.784 12.036C184.856 11.98 184.932 11.952 185.012 11.952C185.092 11.952 185.156 12.056 185.204 12.264C185.204 12.472 185.164 12.728 185.084 13.032C185.004 13.328 184.924 13.592 184.844 13.824C184.772 14.056 184.728 14.204 184.712 14.268C184.384 15.3 184.22 16.196 184.22 16.956C184.22 17.196 184.312 17.364 184.496 17.46C184.56 17.492 184.648 17.508 184.76 17.508C184.984 17.508 185.252 17.284 185.564 16.836C185.852 16.42 186.144 15.9 186.44 15.276C186.736 14.652 186.976 14.084 187.16 13.572C187.352 13.02 187.512 12.616 187.64 12.36C187.768 12.104 187.908 11.976 188.06 11.976C188.196 11.976 188.264 12.044 188.264 12.18C188.264 12.284 188.2 12.568 188.072 13.032C187.952 13.424 187.872 13.704 187.832 13.872C187.792 14.032 187.744 14.26 187.688 14.556L187.4 16.188L187.268 16.872C187.26 16.944 187.24 17.052 187.208 17.196C187.208 17.348 187.232 17.448 187.28 17.496L187.388 17.64C187.412 17.664 187.424 17.716 187.424 17.796C187.424 17.876 187.376 17.948 187.28 18.012C187.192 18.084 187.1 18.12 187.004 18.12ZM190.385 18.108C189.969 18.108 189.657 17.944 189.449 17.616C189.249 17.288 189.149 16.896 189.149 16.44C189.149 15.712 189.269 15.008 189.509 14.328C189.757 13.64 190.093 13.072 190.517 12.624C190.925 12.168 191.385 11.94 191.897 11.94C192.633 11.94 193.001 12.5 193.001 13.62C193.001 14.18 192.909 14.752 192.725 15.336C192.541 15.92 192.301 16.44 192.005 16.896C191.717 17.352 191.417 17.68 191.105 17.88C190.865 18.032 190.625 18.108 190.385 18.108ZM190.481 17.568C190.729 17.568 191.005 17.352 191.309 16.92C191.621 16.488 191.881 15.952 192.089 15.312C192.305 14.672 192.413 14.128 192.413 13.68C192.413 13.216 192.385 12.928 192.329 12.816C192.281 12.696 192.221 12.612 192.149 12.564C192.077 12.516 191.965 12.492 191.813 12.492C191.645 12.492 191.469 12.556 191.285 12.684C190.917 12.916 190.597 13.316 190.325 13.884C189.901 14.732 189.689 15.556 189.689 16.356C189.689 16.9 189.845 17.276 190.157 17.484C190.269 17.54 190.377 17.568 190.481 17.568ZM194.475 22.92C194.091 22.92 193.767 22.788 193.503 22.524C193.247 22.268 193.119 21.94 193.119 21.54C193.119 21.172 193.203 20.82 193.371 20.484C193.547 20.156 193.799 19.816 194.127 19.464C194.407 19.16 194.743 18.844 195.135 18.516L196.263 17.58C196.319 17.38 196.367 17.168 196.407 16.944C196.495 16.592 196.563 16.304 196.611 16.08C196.307 17.032 195.915 17.656 195.435 17.952C195.283 18.048 195.135 18.096 194.991 18.096C194.711 18.096 194.479 17.984 194.295 17.76C194.119 17.536 194.031 17.24 194.031 16.872C194.031 16.176 194.163 15.448 194.427 14.688C194.691 13.92 195.043 13.264 195.483 12.72C195.939 12.168 196.435 11.892 196.971 11.892C197.227 11.892 197.471 11.956 197.703 12.084C197.751 12.06 197.803 12.048 197.859 12.048C197.995 12.048 198.063 12.112 198.063 12.24C198.063 12.376 198.039 12.504 197.991 12.624C197.767 13.208 197.391 14.728 196.863 17.184C196.991 17.104 197.139 16.988 197.307 16.836C197.347 16.804 197.419 16.744 197.523 16.656C197.627 16.56 197.711 16.492 197.775 16.452C197.839 16.412 197.895 16.392 197.943 16.392C198.079 16.392 198.147 16.46 198.147 16.596C198.147 16.7 198.119 16.78 198.063 16.836C197.567 17.212 197.143 17.524 196.791 17.772L196.599 18.9L196.539 19.2C196.443 19.704 196.359 20.124 196.287 20.46C196.215 20.804 196.127 21.132 196.023 21.444C195.871 21.884 195.663 22.24 195.399 22.512C195.143 22.784 194.835 22.92 194.475 22.92ZM195.027 17.52C195.187 17.52 195.371 17.412 195.579 17.196C195.787 16.972 195.987 16.684 196.179 16.332C196.379 15.972 196.539 15.596 196.659 15.204C196.843 14.636 196.999 14.112 197.127 13.632C197.207 13.352 197.307 12.984 197.427 12.528C197.315 12.424 197.163 12.372 196.971 12.372C196.627 12.372 196.267 12.6 195.891 13.056C195.523 13.512 195.211 14.088 194.955 14.784C194.707 15.472 194.583 16.1 194.583 16.668C194.583 17.236 194.731 17.52 195.027 17.52ZM194.367 22.32C194.535 22.32 194.687 22.28 194.823 22.2C194.959 22.128 195.087 22 195.207 21.816C195.327 21.624 195.447 21.356 195.567 21.012C195.687 20.668 195.783 20.316 195.855 19.956C195.919 19.684 195.971 19.436 196.011 19.212L196.059 18.948C196.067 18.884 196.079 18.816 196.095 18.744C196.111 18.672 196.123 18.596 196.131 18.516L196.167 18.228C195.383 18.876 194.775 19.464 194.343 19.992C193.919 20.52 193.707 20.992 193.707 21.408C193.707 21.848 193.803 22.128 193.995 22.248C194.075 22.296 194.199 22.32 194.367 22.32Z" fill="#6D6F72"/>
<path d="M287.264 61.72C287.128 61.72 287.052 61.64 287.036 61.48C287.052 61.32 287.08 61.16 287.12 61L286.772 60.928C286.292 60.832 286.044 60.704 286.028 60.544C286.02 60.528 286.016 60.496 286.016 60.448C286.016 60.4 286.04 60.352 286.088 60.304C286.136 60.248 286.18 60.22 286.22 60.22C286.252 60.22 286.292 60.228 286.34 60.244C286.404 60.26 286.496 60.296 286.616 60.352C286.736 60.416 286.944 60.448 287.24 60.448L287.552 59.14C287.688 58.436 287.824 57.816 287.96 57.28L288.404 55.384L288.044 55.372C287.924 55.372 287.864 55.304 287.864 55.168C287.864 54.976 288.08 54.88 288.512 54.88C288.688 54.152 288.844 53.344 288.98 52.456C289.108 51.608 289.284 50.828 289.508 50.116C289.364 50.18 289.232 50.264 289.112 50.368C289.04 50.512 288.936 50.584 288.8 50.584C288.752 50.584 288.704 50.564 288.656 50.524C288.616 50.484 288.596 50.424 288.596 50.344C288.596 50.168 288.708 50.008 288.932 49.864C289.156 49.72 289.428 49.616 289.748 49.552C289.796 49.472 289.86 49.432 289.94 49.432C289.996 49.432 290.056 49.464 290.12 49.528C290.864 49.552 291.46 49.808 291.908 50.296C292.356 50.784 292.58 51.432 292.58 52.24C292.58 52.672 292.464 53.096 292.232 53.512C292.008 53.92 291.712 54.264 291.344 54.544C290.976 54.824 290.592 54.992 290.192 55.048C290.632 55.072 291.048 55.22 291.44 55.492C291.832 55.756 292.148 56.088 292.388 56.488C292.628 56.88 292.748 57.272 292.748 57.664C292.748 58.784 292.32 59.636 291.464 60.22C290.608 60.804 289.416 61.096 287.888 61.096L287.636 61.084C287.612 61.196 287.6 61.292 287.6 61.372C287.576 61.468 287.532 61.548 287.468 61.612C287.404 61.684 287.336 61.72 287.264 61.72ZM289.04 54.868C289.584 54.828 290.08 54.692 290.528 54.46C290.984 54.22 291.34 53.908 291.596 53.524C291.86 53.14 291.992 52.716 291.992 52.252C291.992 51.548 291.812 51.008 291.452 50.632C291.092 50.256 290.608 50.06 290 50.044C289.8 50.732 289.612 51.604 289.436 52.66C289.252 53.78 289.12 54.516 289.04 54.868ZM288.212 60.556C289.052 60.556 289.768 60.444 290.36 60.22C290.96 59.988 291.416 59.66 291.728 59.236C292.04 58.812 292.196 58.312 292.196 57.736C292.196 57.344 292.068 56.972 291.812 56.62C291.564 56.26 291.236 55.972 290.828 55.756C290.42 55.54 289.996 55.432 289.556 55.432C289.3 55.432 289.088 55.424 288.92 55.408C288.608 56.744 288.372 57.792 288.212 58.552C288.108 59.032 288.044 59.308 288.02 59.38L287.936 59.728L287.84 60.124C287.8 60.284 287.768 60.42 287.744 60.532C287.888 60.548 288.044 60.556 288.212 60.556ZM292.852 65.92C292.732 65.92 292.664 65.84 292.648 65.68C292.888 64.768 293.096 63.856 293.272 62.944L293.632 61.06L293.992 59.176L294.088 58.672C294.408 57.008 294.624 55.896 294.736 55.336V55.072C294.736 54.992 294.772 54.916 294.844 54.844C294.916 54.772 295 54.736 295.096 54.736C295.184 54.736 295.252 54.772 295.3 54.844C295.348 54.908 295.372 54.98 295.372 55.06C295.372 55.172 295.352 55.288 295.312 55.408L295.264 55.564C295.248 55.628 295.24 55.672 295.24 55.696L295.072 56.56C295.648 55.464 296.264 54.916 296.92 54.916C297.264 54.916 297.512 55.02 297.664 55.228C297.824 55.428 297.904 55.732 297.904 56.14C297.904 56.908 297.796 57.672 297.58 58.432C297.364 59.192 297.052 59.832 296.644 60.352C296.228 60.888 295.732 61.156 295.156 61.156C294.932 61.156 294.752 61.108 294.616 61.012C294.488 60.924 294.384 60.768 294.304 60.544L294.16 61.252C293.968 62.132 293.828 62.796 293.74 63.244C293.548 64.22 293.364 65.032 293.188 65.68C293.116 65.84 293.004 65.92 292.852 65.92ZM295.24 60.592C295.656 60.592 296.044 60.328 296.404 59.8C296.852 59.12 297.148 58.228 297.292 57.124C297.332 56.78 297.352 56.484 297.352 56.236C297.352 55.716 297.224 55.456 296.968 55.456C296.712 55.456 296.42 55.64 296.092 56.008C295.644 56.512 295.276 57.12 294.988 57.832C294.7 58.536 294.556 59.148 294.556 59.668C294.556 60.284 294.784 60.592 295.24 60.592ZM299.776 61.12C299.52 61.12 299.32 61.08 299.176 61C299.032 60.912 298.916 60.78 298.828 60.604C298.66 60.292 298.576 59.916 298.576 59.476C298.576 58.708 298.692 57.98 298.924 57.292C299.156 56.596 299.472 56.012 299.872 55.54C300.256 55.092 300.676 54.868 301.132 54.868C301.372 54.868 301.56 54.968 301.696 55.168C301.84 55.36 301.912 55.596 301.912 55.876C301.912 56.364 301.784 56.788 301.528 57.148C301.28 57.508 300.944 57.808 300.52 58.048C300.152 58.264 299.704 58.48 299.176 58.696L299.152 59.56C299.152 60.232 299.356 60.568 299.764 60.568C299.948 60.568 300.14 60.524 300.34 60.436C300.54 60.34 300.748 60.228 300.964 60.1C301.068 60.044 301.152 60.016 301.216 60.016C301.352 60.016 301.42 60.088 301.42 60.232C301.42 60.336 301.32 60.46 301.12 60.604C300.928 60.748 300.7 60.872 300.436 60.976C300.172 61.072 299.952 61.12 299.776 61.12ZM299.272 58.12C299.344 58.08 299.504 57.996 299.752 57.868C299.864 57.82 300.024 57.74 300.232 57.628C300.608 57.42 300.888 57.18 301.072 56.908C301.264 56.636 301.36 56.3 301.36 55.9C301.36 55.588 301.228 55.432 300.964 55.432C300.732 55.432 300.46 55.644 300.148 56.068C299.82 56.492 299.556 57.048 299.356 57.736C299.3 57.928 299.272 58.056 299.272 58.12ZM307.218 61.096C307.09 61.096 307.018 61.012 307.002 60.844C307.082 60.14 307.258 59.408 307.53 58.648C307.786 57.912 308.014 57.08 308.214 56.152L307.758 56.716L307.302 57.268C306.798 57.924 306.33 58.428 305.898 58.78C305.826 58.828 305.746 58.852 305.658 58.852C305.57 58.852 305.494 58.812 305.43 58.732C305.366 58.652 305.306 58.524 305.25 58.348C305.202 58.164 305.154 57.936 305.106 57.664L304.926 56.656L304.866 56.392C304.226 57.864 303.79 58.904 303.558 59.512C303.534 59.584 303.506 59.656 303.474 59.728C303.45 59.792 303.426 59.86 303.402 59.932L303.258 60.328C303.242 60.376 303.234 60.416 303.234 60.448C303.218 60.512 303.202 60.56 303.186 60.592C303.218 60.616 303.234 60.664 303.234 60.736C303.234 60.8 303.194 60.864 303.114 60.928C303.042 60.992 302.962 61.024 302.874 61.024C302.738 61.024 302.67 60.948 302.67 60.796C302.67 60.148 303.39 58.276 304.83 55.18C304.926 55.036 305.022 54.964 305.118 54.964C305.302 54.964 305.394 55.06 305.394 55.252C305.394 55.332 305.37 55.444 305.322 55.588C305.322 55.732 305.35 55.912 305.406 56.128C305.438 56.296 305.49 56.612 305.562 57.076C305.602 57.42 305.678 57.788 305.79 58.18L306.354 57.568C307.202 56.632 307.714 56.02 307.89 55.732C308.226 55.164 308.494 54.88 308.694 54.88C308.83 54.88 308.918 54.948 308.958 55.084C308.87 55.948 308.642 56.944 308.274 58.072C307.898 59.224 307.658 60.12 307.554 60.76C307.53 60.856 307.482 60.936 307.41 61C307.346 61.064 307.282 61.096 307.218 61.096ZM309.375 61.12C309.063 61.12 308.811 61.032 308.619 60.856C308.563 60.808 308.535 60.74 308.535 60.652C308.535 60.572 308.571 60.5 308.643 60.436C308.707 60.372 308.783 60.34 308.871 60.34C308.959 60.34 309.019 60.368 309.051 60.424C309.107 60.48 309.155 60.52 309.195 60.544C309.243 60.56 309.327 60.568 309.447 60.568C309.687 60.568 309.947 60.408 310.227 60.088C310.331 59.984 310.483 59.796 310.683 59.524C311.003 59.092 311.255 58.768 311.439 58.552C311.495 58.48 311.579 58.38 311.691 58.252C311.747 58.172 311.831 58.068 311.943 57.94L312.123 57.724C311.707 58.1 311.359 58.288 311.079 58.288C310.887 58.288 310.731 58.228 310.611 58.108C310.499 57.98 310.443 57.788 310.443 57.532C310.443 57.252 310.563 56.884 310.803 56.428C311.043 55.972 311.331 55.584 311.667 55.264C312.035 54.936 312.375 54.772 312.687 54.772C312.999 54.772 313.243 54.88 313.419 55.096C313.427 55.112 313.471 55.18 313.551 55.3C313.575 55.284 313.619 55.276 313.683 55.276C313.795 55.276 313.863 55.344 313.887 55.48C313.887 55.856 313.759 56.268 313.503 56.716C313.439 56.82 313.391 56.876 313.359 56.884L313.311 57.148C313.239 57.548 313.179 57.86 313.131 58.084C312.875 59.308 312.735 60.088 312.711 60.424C312.687 60.696 312.655 60.872 312.615 60.952C312.575 61.024 312.491 61.06 312.363 61.06C312.251 61.06 312.183 61.04 312.159 61C312.135 60.952 312.123 60.88 312.123 60.784C312.203 59.96 312.391 58.904 312.687 57.616C312.239 58.12 311.827 58.64 311.451 59.176L310.707 60.196C310.499 60.484 310.295 60.712 310.095 60.88C309.903 61.04 309.663 61.12 309.375 61.12ZM311.271 57.88C311.615 57.88 312.043 57.592 312.555 57.016C312.707 56.848 312.815 56.724 312.879 56.644C312.975 56.26 313.067 55.964 313.155 55.756C313.051 55.564 312.963 55.448 312.891 55.408C312.835 55.376 312.755 55.36 312.651 55.36C312.443 55.36 312.203 55.48 311.931 55.72C311.659 55.96 311.435 56.244 311.259 56.572C311.083 56.9 310.995 57.176 310.995 57.4C310.995 57.72 311.087 57.88 311.271 57.88Z" fill="#6D6F72"/>
<path d="M23.768 18.144C23.664 18.144 23.596 18.1 23.564 18.012C23.532 17.924 23.516 17.76 23.516 17.52V17.004C23.516 16.332 23.556 14.964 23.636 12.9C23.668 11.884 23.696 11.108 23.72 10.572L23.744 9.792C23.76 9.464 23.776 8.964 23.792 8.292C23.416 9.132 22.748 10.472 21.788 12.312C20.74 14.304 20.096 15.544 19.856 16.032C19.776 16.2 19.676 16.284 19.556 16.284C19.444 16.284 19.364 16.228 19.316 16.116C19.3 16.044 19.28 15.96 19.256 15.864C19.24 15.768 19.22 15.66 19.196 15.54L18.392 11.928C18.064 10.48 17.78 9.172 17.54 8.004C17.268 9.388 16.856 11.22 16.304 13.5C16.08 14.412 15.9 15.152 15.764 15.72C15.628 16.288 15.52 16.736 15.44 17.064L15.248 17.892C15.176 18.052 15.068 18.132 14.924 18.132C14.804 18.132 14.732 18.052 14.708 17.892C14.924 16.7 15.356 14.736 16.004 12C16.604 9.528 17.024 7.756 17.264 6.684C17.288 6.604 17.332 6.536 17.396 6.48C17.468 6.424 17.536 6.396 17.6 6.396C17.704 6.396 17.776 6.464 17.816 6.6C18.144 8 18.48 9.532 18.824 11.196C19.16 12.828 19.436 14.1 19.652 15.012C20.068 14.3 20.452 13.604 20.804 12.924C21.156 12.236 21.608 11.34 22.16 10.236L22.496 9.564C22.928 8.684 23.416 7.72 23.96 6.672C24.072 6.48 24.192 6.384 24.32 6.384C24.44 6.384 24.5 6.444 24.5 6.564V6.6C24.276 10.328 24.144 13.98 24.104 17.556C24.12 17.604 24.128 17.648 24.128 17.688C24.128 17.8 24.092 17.904 24.02 18C23.948 18.096 23.864 18.144 23.768 18.144ZM30.0608 18.024C29.8768 18.024 29.7048 17.928 29.5448 17.736C29.3928 17.536 29.3168 17.324 29.3168 17.1C29.3168 16.604 29.4488 15.764 29.7128 14.58C29.5128 15.012 29.2528 15.456 28.9328 15.912C28.6208 16.36 28.3128 16.756 28.0088 17.1C27.7048 17.444 27.4808 17.668 27.3368 17.772C27.1368 17.924 26.9168 18 26.6768 18C26.2208 18 25.9928 17.712 25.9928 17.136C25.9928 16.576 26.2048 15.88 26.6288 15.048C27.0528 14.208 27.5568 13.48 28.1408 12.864C28.7248 12.256 29.1968 11.952 29.5568 11.952C29.9248 11.952 30.1328 12.112 30.1808 12.432C30.2048 12.528 30.2168 12.632 30.2168 12.744C30.2568 12.72 30.3008 12.708 30.3488 12.708C30.5328 12.708 30.6248 12.796 30.6248 12.972V13.02L30.4808 13.548C30.3688 13.948 30.2528 14.54 30.1328 15.324C30.0128 16.108 29.9528 16.76 29.9528 17.28L30.0728 17.352C30.2648 17.472 30.3608 17.592 30.3608 17.712C30.3608 17.792 30.3328 17.864 30.2768 17.928C30.2208 17.992 30.1488 18.024 30.0608 18.024ZM26.7728 17.376C26.8608 17.376 26.9328 17.348 26.9888 17.292C27.8048 16.596 28.5288 15.632 29.1608 14.4C29.5208 13.72 29.7168 13.316 29.7488 13.188C29.7648 13.044 29.7728 12.956 29.7728 12.924C29.7728 12.844 29.7528 12.772 29.7128 12.708C29.6728 12.644 29.6208 12.612 29.5568 12.612C29.4768 12.612 29.3728 12.648 29.2448 12.72C28.9248 12.888 28.5448 13.244 28.1048 13.788C27.6728 14.332 27.3168 14.908 27.0368 15.516C26.7408 16.132 26.5928 16.68 26.5928 17.16C26.5928 17.304 26.6528 17.376 26.7728 17.376ZM31.9834 18.12C31.8554 18.12 31.7834 18.036 31.7674 17.868L31.8994 17.112C31.9794 16.6 32.0754 16.044 32.1874 15.444L32.2594 15.012C32.4354 13.996 32.5434 13.404 32.5834 13.236C32.6714 12.828 32.7314 12.484 32.7634 12.204C32.7874 12.124 32.8314 12.056 32.8954 12C32.9674 11.944 33.0394 11.916 33.1114 11.916C33.2074 11.916 33.2754 11.984 33.3154 12.12C33.3154 12.248 33.2994 12.392 33.2674 12.552C33.2354 12.656 33.1954 12.876 33.1474 13.212L32.9434 14.28C33.8394 13.032 34.5994 12.26 35.2234 11.964C35.3674 11.892 35.5114 11.856 35.6554 11.856C35.7914 11.856 35.9394 11.956 36.0994 12.156C36.2674 12.356 36.3514 12.532 36.3514 12.684C36.3514 12.812 36.3194 12.912 36.2554 12.984C36.1914 13.056 36.1154 13.092 36.0274 13.092C35.9074 13.092 35.7994 12.98 35.7034 12.756C35.6954 12.74 35.6754 12.7 35.6434 12.636C35.6194 12.564 35.5914 12.512 35.5594 12.48C35.5354 12.44 35.5074 12.42 35.4754 12.42C35.4194 12.42 35.3074 12.468 35.1394 12.564C34.9794 12.652 34.7194 12.888 34.3594 13.272C34.0074 13.648 33.7354 13.968 33.5434 14.232C33.6154 14.984 33.7674 15.648 33.9994 16.224C34.2314 16.8 34.4834 17.192 34.7554 17.4C34.8994 17.504 35.0354 17.556 35.1634 17.556C35.2994 17.556 35.4074 17.52 35.4874 17.448C35.5754 17.376 35.6434 17.26 35.6914 17.1C35.7554 16.94 35.8074 16.856 35.8474 16.848C35.8714 16.832 35.9154 16.824 35.9794 16.824C36.0274 16.824 36.0834 16.852 36.1474 16.908C36.2034 16.964 36.2314 17.068 36.2314 17.22C36.2314 17.38 36.1634 17.532 36.0274 17.676C35.7634 17.972 35.4994 18.12 35.2354 18.12C34.4674 18.12 33.8714 17.488 33.4474 16.224C33.2634 15.696 33.1474 15.244 33.0994 14.868C33.0754 14.9 32.9874 15.052 32.8354 15.324L32.6914 15.588C32.5634 16.284 32.4394 17.016 32.3194 17.784C32.3114 17.872 32.2714 17.948 32.1994 18.012C32.1274 18.084 32.0554 18.12 31.9834 18.12ZM38.2835 18.144C37.8995 18.144 37.5955 18.004 37.3715 17.724C37.1555 17.436 37.0475 17.092 37.0475 16.692C37.0475 15.988 37.1755 15.26 37.4315 14.508C37.6955 13.756 38.0395 13.128 38.4635 12.624C38.8875 12.12 39.3355 11.868 39.8075 11.868C40.1515 11.868 40.3755 11.992 40.4795 12.24C40.5035 12.28 40.5235 12.324 40.5395 12.372C40.5555 12.412 40.5715 12.452 40.5875 12.492C40.6275 12.604 40.6675 12.668 40.7075 12.684C40.7395 12.764 40.7555 12.824 40.7555 12.864C40.7555 12.936 40.7195 13.004 40.6475 13.068C40.5835 13.132 40.5115 13.164 40.4315 13.164C40.2635 13.164 40.1555 13.04 40.1075 12.792C40.0595 12.544 39.9275 12.42 39.7115 12.42C39.4235 12.42 39.1195 12.644 38.7995 13.092C38.4795 13.532 38.2035 14.092 37.9715 14.772C37.7475 15.412 37.6355 15.984 37.6355 16.488C37.6355 17.2 37.8955 17.556 38.4155 17.556C38.6795 17.556 38.9235 17.432 39.1475 17.184C39.1715 17.152 39.2155 17.1 39.2795 17.028C39.3435 16.948 39.4035 16.892 39.4595 16.86C39.5155 16.82 39.5675 16.8 39.6155 16.8C39.7675 16.8 39.8435 16.868 39.8435 17.004C39.8435 17.164 39.7675 17.336 39.6155 17.52C39.4635 17.696 39.2675 17.844 39.0275 17.964C38.7875 18.084 38.5395 18.144 38.2835 18.144ZM44.5939 18.12C44.5059 18.12 44.4099 18.048 44.3059 17.904C44.2099 17.752 44.1619 17.62 44.1619 17.508V17.304C44.1619 17.056 44.3339 16.308 44.6779 15.06L44.8339 14.4L44.5099 15.084C44.4059 15.348 44.2379 15.72 44.0059 16.2C43.4139 17.464 42.7819 18.096 42.1099 18.096C41.7099 18.096 41.4379 17.876 41.2939 17.436C41.2539 17.292 41.2339 17.112 41.2339 16.896C41.2339 16.448 41.3179 15.876 41.4859 15.18C41.5819 14.78 41.6619 14.484 41.7259 14.292L41.8219 13.98C41.9099 13.676 41.9979 13.356 42.0859 13.02C42.1819 12.676 42.2339 12.416 42.2419 12.24C42.2659 12.16 42.3099 12.092 42.3739 12.036C42.4459 11.98 42.5219 11.952 42.6019 11.952C42.6819 11.952 42.7459 12.056 42.7939 12.264C42.7939 12.472 42.7539 12.728 42.6739 13.032C42.5939 13.328 42.5139 13.592 42.4339 13.824C42.3619 14.056 42.3179 14.204 42.3019 14.268C41.9739 15.3 41.8099 16.196 41.8099 16.956C41.8099 17.196 41.9019 17.364 42.0859 17.46C42.1499 17.492 42.2379 17.508 42.3499 17.508C42.5739 17.508 42.8419 17.284 43.1539 16.836C43.4419 16.42 43.7339 15.9 44.0299 15.276C44.3259 14.652 44.5659 14.084 44.7499 13.572C44.9419 13.02 45.1019 12.616 45.2299 12.36C45.3579 12.104 45.4979 11.976 45.6499 11.976C45.7859 11.976 45.8539 12.044 45.8539 12.18C45.8539 12.284 45.7899 12.568 45.6619 13.032C45.5419 13.424 45.4619 13.704 45.4219 13.872C45.3819 14.032 45.3339 14.26 45.2779 14.556L44.9899 16.188L44.8579 16.872C44.8499 16.944 44.8299 17.052 44.7979 17.196C44.7979 17.348 44.8219 17.448 44.8699 17.496L44.9779 17.64C45.0019 17.664 45.0139 17.716 45.0139 17.796C45.0139 17.876 44.9659 17.948 44.8699 18.012C44.7819 18.084 44.6899 18.12 44.5939 18.12ZM51.4097 18.096C51.2817 18.096 51.2097 18.012 51.1937 17.844C51.2737 17.14 51.4497 16.408 51.7217 15.648C51.9777 14.912 52.2057 14.08 52.4057 13.152L51.9497 13.716L51.4937 14.268C50.9897 14.924 50.5217 15.428 50.0897 15.78C50.0177 15.828 49.9377 15.852 49.8497 15.852C49.7617 15.852 49.6857 15.812 49.6217 15.732C49.5577 15.652 49.4977 15.524 49.4417 15.348C49.3937 15.164 49.3457 14.936 49.2977 14.664L49.1177 13.656L49.0577 13.392C48.4177 14.864 47.9817 15.904 47.7497 16.512C47.7257 16.584 47.6977 16.656 47.6657 16.728C47.6417 16.792 47.6177 16.86 47.5937 16.932L47.4497 17.328C47.4337 17.376 47.4257 17.416 47.4257 17.448C47.4097 17.512 47.3937 17.56 47.3777 17.592C47.4097 17.616 47.4257 17.664 47.4257 17.736C47.4257 17.8 47.3857 17.864 47.3057 17.928C47.2337 17.992 47.1537 18.024 47.0657 18.024C46.9297 18.024 46.8617 17.948 46.8617 17.796C46.8617 17.148 47.5817 15.276 49.0217 12.18C49.1177 12.036 49.2137 11.964 49.3097 11.964C49.4937 11.964 49.5857 12.06 49.5857 12.252C49.5857 12.332 49.5617 12.444 49.5137 12.588C49.5137 12.732 49.5417 12.912 49.5977 13.128C49.6297 13.296 49.6817 13.612 49.7537 14.076C49.7937 14.42 49.8697 14.788 49.9817 15.18L50.5457 14.568C51.3937 13.632 51.9057 13.02 52.0817 12.732C52.4177 12.164 52.6857 11.88 52.8857 11.88C53.0217 11.88 53.1097 11.948 53.1497 12.084C53.0617 12.948 52.8337 13.944 52.4657 15.072C52.0897 16.224 51.8497 17.12 51.7457 17.76C51.7217 17.856 51.6737 17.936 51.6017 18C51.5377 18.064 51.4737 18.096 51.4097 18.096ZM57.6467 18.024C57.4627 18.024 57.2907 17.928 57.1307 17.736C56.9787 17.536 56.9027 17.324 56.9027 17.1C56.9027 16.604 57.0347 15.764 57.2987 14.58C57.0987 15.012 56.8387 15.456 56.5187 15.912C56.2067 16.36 55.8987 16.756 55.5947 17.1C55.2907 17.444 55.0667 17.668 54.9227 17.772C54.7227 17.924 54.5027 18 54.2627 18C53.8067 18 53.5787 17.712 53.5787 17.136C53.5787 16.576 53.7907 15.88 54.2147 15.048C54.6387 14.208 55.1427 13.48 55.7267 12.864C56.3107 12.256 56.7827 11.952 57.1427 11.952C57.5107 11.952 57.7187 12.112 57.7667 12.432C57.7907 12.528 57.8027 12.632 57.8027 12.744C57.8427 12.72 57.8867 12.708 57.9347 12.708C58.1187 12.708 58.2107 12.796 58.2107 12.972V13.02L58.0667 13.548C57.9547 13.948 57.8387 14.54 57.7187 15.324C57.5987 16.108 57.5387 16.76 57.5387 17.28L57.6587 17.352C57.8507 17.472 57.9467 17.592 57.9467 17.712C57.9467 17.792 57.9187 17.864 57.8627 17.928C57.8067 17.992 57.7347 18.024 57.6467 18.024ZM54.3587 17.376C54.4467 17.376 54.5187 17.348 54.5747 17.292C55.3907 16.596 56.1147 15.632 56.7467 14.4C57.1067 13.72 57.3027 13.316 57.3347 13.188C57.3507 13.044 57.3587 12.956 57.3587 12.924C57.3587 12.844 57.3387 12.772 57.2987 12.708C57.2587 12.644 57.2067 12.612 57.1427 12.612C57.0627 12.612 56.9587 12.648 56.8307 12.72C56.5107 12.888 56.1307 13.244 55.6907 13.788C55.2587 14.332 54.9027 14.908 54.6227 15.516C54.3267 16.132 54.1787 16.68 54.1787 17.16C54.1787 17.304 54.2387 17.376 54.3587 17.376ZM59.6053 18.144C59.3173 18.144 59.0893 18.076 58.9213 17.94C58.7533 17.796 58.6173 17.56 58.5133 17.232C58.4973 17.208 58.4893 17.156 58.4893 17.076C58.4893 17.004 58.5213 16.936 58.5853 16.872C58.6493 16.8 58.7213 16.764 58.8013 16.764C58.8733 16.764 58.9413 16.808 59.0053 16.896C59.0053 17.384 59.2373 17.628 59.7013 17.628C60.0453 17.628 60.3893 17.456 60.7333 17.112C61.0773 16.76 61.3933 16.3 61.6813 15.732C61.9373 15.236 62.1253 14.784 62.2453 14.376L62.3413 14.064C62.4293 13.768 62.5213 13.472 62.6173 13.176C62.7213 12.872 62.8253 12.612 62.9293 12.396C63.0653 12.116 63.2013 11.976 63.3373 11.976C63.4813 11.976 63.5533 12.052 63.5533 12.204C63.5533 12.34 63.4773 12.624 63.3253 13.056C63.1573 13.56 63.0173 14.16 62.9053 14.856C62.7933 15.544 62.7373 16.232 62.7373 16.92C62.7373 17.312 62.8173 17.532 62.9773 17.58L63.1213 17.592C63.2413 17.592 63.3453 17.564 63.4333 17.508C63.4573 17.5 63.5133 17.46 63.6013 17.388C63.6173 17.372 63.6813 17.32 63.7933 17.232C63.9053 17.136 64.0013 17.088 64.0813 17.088C64.2253 17.088 64.2973 17.164 64.2973 17.316C64.2973 17.412 64.2253 17.524 64.0813 17.652C63.9373 17.78 63.7653 17.888 63.5653 17.976C63.3653 18.064 63.1813 18.108 63.0133 18.108C62.5013 18.108 62.2453 17.552 62.2453 16.44C62.2453 16.224 62.2653 15.928 62.3053 15.552C62.0173 16.296 61.6173 16.916 61.1053 17.412C60.6013 17.9 60.1013 18.144 59.6053 18.144ZM66.4637 18.18C65.7757 18.18 65.4317 17.712 65.4317 16.776C65.4317 16.432 65.4837 16.012 65.5877 15.516L65.8037 14.484L66.2717 12.204C66.3037 12.14 66.3557 12.088 66.4277 12.048C66.4997 12 66.5677 11.976 66.6317 11.976C66.6877 11.976 66.7437 12.012 66.7997 12.084C66.8557 12.156 66.8837 12.232 66.8837 12.312L66.4997 13.812L66.1277 15.384C65.9997 15.96 65.9357 16.4 65.9357 16.704C65.9357 17.04 65.9837 17.28 66.0797 17.424C66.1757 17.56 66.3317 17.628 66.5477 17.628C66.8837 17.628 67.1597 17.516 67.3757 17.292C67.5917 17.068 67.7477 16.772 67.8437 16.404C67.9317 16.052 67.9757 15.744 67.9757 15.48C67.9757 14.792 67.8077 14.448 67.4717 14.448C67.2557 14.448 67.0597 14.62 66.8837 14.964C66.7877 15.156 66.7037 15.296 66.6317 15.384C66.5677 15.448 66.5117 15.48 66.4637 15.48C66.3197 15.48 66.2477 15.412 66.2477 15.276C66.2477 15.196 66.3277 15.032 66.4877 14.784C66.6557 14.528 66.7917 14.34 66.8957 14.22C67.1197 13.996 67.3277 13.884 67.5197 13.884C67.8397 13.884 68.0837 14.036 68.2517 14.34C68.4197 14.644 68.5037 15.016 68.5037 15.456C68.5037 15.96 68.4117 16.42 68.2277 16.836C68.0517 17.252 67.8077 17.58 67.4957 17.82C67.1837 18.06 66.8397 18.18 66.4637 18.18ZM73.1152 18.132C72.8912 18.132 72.7192 18.072 72.5992 17.952C72.4872 17.832 72.4312 17.676 72.4312 17.484C72.4312 17.284 72.4832 16.94 72.5872 16.452L72.8632 15C72.2792 15.44 71.7392 15.66 71.2432 15.66C70.8832 15.66 70.6072 15.564 70.4152 15.372C70.3992 15.452 70.3832 15.532 70.3672 15.612C70.3592 15.692 70.3472 15.772 70.3312 15.852C70.2992 16.116 70.2592 16.384 70.2112 16.656C70.0672 17.608 69.8512 18.084 69.5632 18.084C69.4432 18.084 69.3712 18 69.3472 17.832C69.4192 17.208 69.5952 16.24 69.8752 14.928C70.1632 13.608 70.3672 12.716 70.4872 12.252C70.5112 12.172 70.5552 12.104 70.6192 12.048C70.6912 11.992 70.7632 11.964 70.8352 11.964C70.9312 11.964 70.9992 12.032 71.0392 12.168C71.0392 12.296 70.9672 12.712 70.8232 13.416C70.7112 13.952 70.6232 14.412 70.5592 14.796C70.7352 14.996 71.0112 15.096 71.3872 15.096C71.7552 15.096 72.1592 14.912 72.5992 14.544C72.7352 14.424 72.8632 14.296 72.9832 14.16L73.1632 13.356C73.2992 12.772 73.4472 12.368 73.6072 12.144C73.6872 12.016 73.7952 11.952 73.9312 11.952C74.0672 11.952 74.1352 12.028 74.1352 12.18V12.24C73.6952 13.752 73.4192 14.848 73.3072 15.528C73.2032 16.112 73.1352 16.572 73.1032 16.908C73.0792 17.172 73.0632 17.316 73.0552 17.34L73.0432 17.496C73.0432 17.544 73.0632 17.568 73.1032 17.568C73.1352 17.568 73.1632 17.556 73.1872 17.532C73.2272 17.508 73.2912 17.496 73.3792 17.496C73.5152 17.496 73.5832 17.568 73.5832 17.712C73.5832 17.992 73.4272 18.132 73.1152 18.132ZM78.8577 18.024C78.6737 18.024 78.5017 17.928 78.3417 17.736C78.1897 17.536 78.1137 17.324 78.1137 17.1C78.1137 16.604 78.2457 15.764 78.5097 14.58C78.3097 15.012 78.0497 15.456 77.7297 15.912C77.4177 16.36 77.1097 16.756 76.8057 17.1C76.5017 17.444 76.2777 17.668 76.1337 17.772C75.9337 17.924 75.7137 18 75.4737 18C75.0177 18 74.7897 17.712 74.7897 17.136C74.7897 16.576 75.0017 15.88 75.4257 15.048C75.8497 14.208 76.3537 13.48 76.9377 12.864C77.5217 12.256 77.9937 11.952 78.3537 11.952C78.7217 11.952 78.9297 12.112 78.9777 12.432C79.0017 12.528 79.0137 12.632 79.0137 12.744C79.0537 12.72 79.0977 12.708 79.1457 12.708C79.3297 12.708 79.4217 12.796 79.4217 12.972V13.02L79.2777 13.548C79.1657 13.948 79.0497 14.54 78.9297 15.324C78.8097 16.108 78.7497 16.76 78.7497 17.28L78.8697 17.352C79.0617 17.472 79.1577 17.592 79.1577 17.712C79.1577 17.792 79.1297 17.864 79.0737 17.928C79.0177 17.992 78.9457 18.024 78.8577 18.024ZM75.5697 17.376C75.6577 17.376 75.7297 17.348 75.7857 17.292C76.6017 16.596 77.3257 15.632 77.9577 14.4C78.3177 13.72 78.5137 13.316 78.5457 13.188C78.5617 13.044 78.5697 12.956 78.5697 12.924C78.5697 12.844 78.5497 12.772 78.5097 12.708C78.4697 12.644 78.4177 12.612 78.3537 12.612C78.2737 12.612 78.1697 12.648 78.0417 12.72C77.7217 12.888 77.3417 13.244 76.9017 13.788C76.4697 14.332 76.1137 14.908 75.8337 15.516C75.5377 16.132 75.3897 16.68 75.3897 17.16C75.3897 17.304 75.4497 17.376 75.5697 17.376ZM80.1683 18.12C79.8563 18.12 79.6043 18.032 79.4123 17.856C79.3563 17.808 79.3283 17.74 79.3283 17.652C79.3283 17.572 79.3643 17.5 79.4363 17.436C79.5003 17.372 79.5763 17.34 79.6643 17.34C79.7523 17.34 79.8123 17.368 79.8443 17.424C79.9003 17.48 79.9483 17.52 79.9883 17.544C80.0363 17.56 80.1203 17.568 80.2403 17.568C80.4803 17.568 80.7403 17.408 81.0203 17.088C81.1243 16.984 81.2763 16.796 81.4763 16.524C81.7963 16.092 82.0483 15.768 82.2323 15.552C82.2883 15.48 82.3723 15.38 82.4843 15.252C82.5403 15.172 82.6243 15.068 82.7363 14.94L82.9163 14.724C82.5003 15.1 82.1523 15.288 81.8723 15.288C81.6803 15.288 81.5243 15.228 81.4043 15.108C81.2923 14.98 81.2363 14.788 81.2363 14.532C81.2363 14.252 81.3563 13.884 81.5963 13.428C81.8363 12.972 82.1243 12.584 82.4603 12.264C82.8283 11.936 83.1683 11.772 83.4803 11.772C83.7923 11.772 84.0363 11.88 84.2123 12.096C84.2203 12.112 84.2643 12.18 84.3443 12.3C84.3683 12.284 84.4123 12.276 84.4763 12.276C84.5883 12.276 84.6563 12.344 84.6803 12.48C84.6803 12.856 84.5523 13.268 84.2963 13.716C84.2323 13.82 84.1843 13.876 84.1523 13.884L84.1043 14.148C84.0323 14.548 83.9723 14.86 83.9243 15.084C83.6683 16.308 83.5283 17.088 83.5043 17.424C83.4803 17.696 83.4483 17.872 83.4083 17.952C83.3683 18.024 83.2843 18.06 83.1563 18.06C83.0443 18.06 82.9763 18.04 82.9523 18C82.9283 17.952 82.9163 17.88 82.9163 17.784C82.9963 16.96 83.1843 15.904 83.4803 14.616C83.0323 15.12 82.6203 15.64 82.2443 16.176L81.5003 17.196C81.2923 17.484 81.0883 17.712 80.8883 17.88C80.6963 18.04 80.4563 18.12 80.1683 18.12ZM82.0643 14.88C82.4083 14.88 82.8363 14.592 83.3483 14.016C83.5003 13.848 83.6083 13.724 83.6723 13.644C83.7683 13.26 83.8603 12.964 83.9483 12.756C83.8443 12.564 83.7563 12.448 83.6843 12.408C83.6283 12.376 83.5483 12.36 83.4443 12.36C83.2363 12.36 82.9963 12.48 82.7243 12.72C82.4523 12.96 82.2283 13.244 82.0523 13.572C81.8763 13.9 81.7883 14.176 81.7883 14.4C81.7883 14.72 81.8803 14.88 82.0643 14.88ZM18.26 36.024C18.076 36.024 17.904 35.928 17.744 35.736C17.592 35.536 17.516 35.324 17.516 35.1C17.516 34.604 17.648 33.764 17.912 32.58C17.712 33.012 17.452 33.456 17.132 33.912C16.82 34.36 16.512 34.756 16.208 35.1C15.904 35.444 15.68 35.668 15.536 35.772C15.336 35.924 15.116 36 14.876 36C14.42 36 14.192 35.712 14.192 35.136C14.192 34.576 14.404 33.88 14.828 33.048C15.252 32.208 15.756 31.48 16.34 30.864C16.924 30.256 17.396 29.952 17.756 29.952C18.124 29.952 18.332 30.112 18.38 30.432C18.404 30.528 18.416 30.632 18.416 30.744C18.456 30.72 18.5 30.708 18.548 30.708C18.732 30.708 18.824 30.796 18.824 30.972V31.02L18.68 31.548C18.568 31.948 18.452 32.54 18.332 33.324C18.212 34.108 18.152 34.76 18.152 35.28L18.272 35.352C18.464 35.472 18.56 35.592 18.56 35.712C18.56 35.792 18.532 35.864 18.476 35.928C18.42 35.992 18.348 36.024 18.26 36.024ZM14.972 35.376C15.06 35.376 15.132 35.348 15.188 35.292C16.004 34.596 16.728 33.632 17.36 32.4C17.72 31.72 17.916 31.316 17.948 31.188C17.964 31.044 17.972 30.956 17.972 30.924C17.972 30.844 17.952 30.772 17.912 30.708C17.872 30.644 17.82 30.612 17.756 30.612C17.676 30.612 17.572 30.648 17.444 30.72C17.124 30.888 16.744 31.244 16.304 31.788C15.872 32.332 15.516 32.908 15.236 33.516C14.94 34.132 14.792 34.68 14.792 35.16C14.792 35.304 14.852 35.376 14.972 35.376ZM24.5386 36.096C24.4106 36.096 24.3386 36.012 24.3226 35.844C24.4026 35.14 24.5786 34.408 24.8506 33.648C25.1066 32.912 25.3346 32.08 25.5346 31.152L25.0786 31.716L24.6226 32.268C24.1186 32.924 23.6506 33.428 23.2186 33.78C23.1466 33.828 23.0666 33.852 22.9786 33.852C22.8906 33.852 22.8146 33.812 22.7506 33.732C22.6866 33.652 22.6266 33.524 22.5706 33.348C22.5226 33.164 22.4746 32.936 22.4266 32.664L22.2466 31.656L22.1866 31.392C21.5466 32.864 21.1106 33.904 20.8786 34.512C20.8546 34.584 20.8266 34.656 20.7946 34.728C20.7706 34.792 20.7466 34.86 20.7226 34.932L20.5786 35.328C20.5626 35.376 20.5546 35.416 20.5546 35.448C20.5386 35.512 20.5226 35.56 20.5066 35.592C20.5386 35.616 20.5546 35.664 20.5546 35.736C20.5546 35.8 20.5146 35.864 20.4346 35.928C20.3626 35.992 20.2826 36.024 20.1946 36.024C20.0586 36.024 19.9906 35.948 19.9906 35.796C19.9906 35.148 20.7106 33.276 22.1506 30.18C22.2466 30.036 22.3426 29.964 22.4386 29.964C22.6226 29.964 22.7146 30.06 22.7146 30.252C22.7146 30.332 22.6906 30.444 22.6426 30.588C22.6426 30.732 22.6706 30.912 22.7266 31.128C22.7586 31.296 22.8106 31.612 22.8826 32.076C22.9226 32.42 22.9986 32.788 23.1106 33.18L23.6746 32.568C24.5226 31.632 25.0346 31.02 25.2106 30.732C25.5466 30.164 25.8146 29.88 26.0146 29.88C26.1506 29.88 26.2386 29.948 26.2786 30.084C26.1906 30.948 25.9626 31.944 25.5946 33.072C25.2186 34.224 24.9786 35.12 24.8746 35.76C24.8506 35.856 24.8026 35.936 24.7306 36C24.6666 36.064 24.6026 36.096 24.5386 36.096ZM30.2476 36.072C30.1196 36.072 30.0276 36.048 29.9716 36C29.9156 35.952 29.8956 35.868 29.9116 35.748L30.4996 32.244C30.5716 31.812 30.6076 31.48 30.6076 31.248C30.6076 30.864 30.4996 30.672 30.2836 30.672C30.1156 30.672 29.8676 30.94 29.5396 31.476C29.2196 32.004 28.8996 32.604 28.5796 33.276C28.2596 33.94 28.0436 34.432 27.9316 34.752L27.7636 35.148C27.6916 35.348 27.6396 35.476 27.6076 35.532C27.4636 35.844 27.3196 36 27.1756 36C27.0956 36 27.0436 35.984 27.0196 35.952C27.0036 35.912 26.9956 35.832 26.9956 35.712C26.9956 35.592 27.1516 34.668 27.4636 32.94C27.7836 31.212 27.9676 30.304 28.0156 30.216C28.0636 30.12 28.1036 30.06 28.1356 30.036C28.1756 30.012 28.2476 30 28.3516 30C28.4476 30 28.5236 30.036 28.5796 30.108C28.6436 30.18 28.6756 30.252 28.6756 30.324C28.6756 30.404 28.6676 30.464 28.6516 30.504C28.6516 30.52 28.6116 30.652 28.5316 30.9C28.3396 31.42 28.1596 32.176 27.9916 33.168L27.8716 33.876C28.0076 33.588 28.1076 33.364 28.1716 33.204C28.3956 32.684 28.5996 32.228 28.7836 31.836C28.9756 31.444 29.1876 31.08 29.4196 30.744C29.7716 30.24 30.0996 29.988 30.4036 29.988C30.9396 29.988 31.2076 30.42 31.2076 31.284C31.2076 31.548 31.1756 31.864 31.1116 32.232C31.0556 32.6 30.9596 33.112 30.8236 33.768L30.7636 34.08C30.6596 34.656 30.5996 35.132 30.5836 35.508L30.5116 35.832C30.5116 35.928 30.4956 35.992 30.4636 36.024C30.4396 36.056 30.3676 36.072 30.2476 36.072ZM32.6991 36.144C32.4111 36.144 32.1831 36.076 32.0151 35.94C31.8471 35.796 31.7111 35.56 31.6071 35.232C31.5911 35.208 31.5831 35.156 31.5831 35.076C31.5831 35.004 31.6151 34.936 31.6791 34.872C31.7431 34.8 31.8151 34.764 31.8951 34.764C31.9671 34.764 32.0351 34.808 32.0991 34.896C32.0991 35.384 32.3311 35.628 32.7951 35.628C33.1391 35.628 33.4831 35.456 33.8271 35.112C34.1711 34.76 34.4871 34.3 34.7751 33.732C35.0311 33.236 35.2191 32.784 35.3391 32.376L35.4351 32.064C35.5231 31.768 35.6151 31.472 35.7111 31.176C35.8151 30.872 35.9191 30.612 36.0231 30.396C36.1591 30.116 36.2951 29.976 36.4311 29.976C36.5751 29.976 36.6471 30.052 36.6471 30.204C36.6471 30.34 36.5711 30.624 36.4191 31.056C36.2511 31.56 36.1111 32.16 35.9991 32.856C35.8871 33.544 35.8311 34.232 35.8311 34.92C35.8311 35.312 35.9111 35.532 36.0711 35.58L36.2151 35.592C36.3351 35.592 36.4391 35.564 36.5271 35.508C36.5511 35.5 36.6071 35.46 36.6951 35.388C36.7111 35.372 36.7751 35.32 36.8871 35.232C36.9991 35.136 37.0951 35.088 37.1751 35.088C37.3191 35.088 37.3911 35.164 37.3911 35.316C37.3911 35.412 37.3191 35.524 37.1751 35.652C37.0311 35.78 36.8591 35.888 36.6591 35.976C36.4591 36.064 36.2751 36.108 36.1071 36.108C35.5951 36.108 35.3391 35.552 35.3391 34.44C35.3391 34.224 35.3591 33.928 35.3991 33.552C35.1111 34.296 34.7111 34.916 34.1991 35.412C33.6951 35.9 33.1951 36.144 32.6991 36.144ZM41.9455 36.12C41.8575 36.12 41.7615 36.048 41.6575 35.904C41.5615 35.752 41.5135 35.62 41.5135 35.508V35.304C41.5135 35.056 41.6855 34.308 42.0295 33.06L42.1855 32.4L41.8615 33.084C41.7575 33.348 41.5895 33.72 41.3575 34.2C40.7655 35.464 40.1335 36.096 39.4615 36.096C39.0615 36.096 38.7895 35.876 38.6455 35.436C38.6055 35.292 38.5855 35.112 38.5855 34.896C38.5855 34.448 38.6695 33.876 38.8375 33.18C38.9335 32.78 39.0135 32.484 39.0775 32.292L39.1735 31.98C39.2615 31.676 39.3495 31.356 39.4375 31.02C39.5335 30.676 39.5855 30.416 39.5935 30.24C39.6175 30.16 39.6615 30.092 39.7255 30.036C39.7975 29.98 39.8735 29.952 39.9535 29.952C40.0335 29.952 40.0975 30.056 40.1455 30.264C40.1455 30.472 40.1055 30.728 40.0255 31.032C39.9455 31.328 39.8655 31.592 39.7855 31.824C39.7135 32.056 39.6695 32.204 39.6535 32.268C39.3255 33.3 39.1615 34.196 39.1615 34.956C39.1615 35.196 39.2535 35.364 39.4375 35.46C39.5015 35.492 39.5895 35.508 39.7015 35.508C39.9255 35.508 40.1935 35.284 40.5055 34.836C40.7935 34.42 41.0855 33.9 41.3815 33.276C41.6775 32.652 41.9175 32.084 42.1015 31.572C42.2935 31.02 42.4535 30.616 42.5815 30.36C42.7095 30.104 42.8495 29.976 43.0015 29.976C43.1375 29.976 43.2055 30.044 43.2055 30.18C43.2055 30.284 43.1415 30.568 43.0135 31.032C42.8935 31.424 42.8135 31.704 42.7735 31.872C42.7335 32.032 42.6855 32.26 42.6295 32.556L42.3415 34.188L42.2095 34.872C42.2015 34.944 42.1815 35.052 42.1495 35.196C42.1495 35.348 42.1735 35.448 42.2215 35.496L42.3295 35.64C42.3535 35.664 42.3655 35.716 42.3655 35.796C42.3655 35.876 42.3175 35.948 42.2215 36.012C42.1335 36.084 42.0415 36.12 41.9455 36.12ZM44.1533 30.624C44.0573 30.624 43.9733 30.596 43.9013 30.54C43.8373 30.484 43.8053 30.424 43.8053 30.36C43.8053 30.304 43.8333 30.256 43.8893 30.216C44.5613 29.928 45.4013 29.784 46.4093 29.784C46.8413 29.784 47.1973 29.8 47.4773 29.832C47.7493 29.872 47.9853 29.9 48.1853 29.916C48.3533 29.94 48.4533 29.968 48.4853 30C48.5173 30.04 48.5333 30.096 48.5333 30.168C48.5333 30.24 48.4933 30.312 48.4133 30.384C48.3333 30.448 48.2333 30.48 48.1133 30.48C47.9773 30.48 47.7493 30.444 47.4293 30.372C47.0933 30.308 46.7733 30.276 46.4693 30.276C45.6533 30.276 44.9133 30.388 44.2493 30.612L44.2013 30.624H44.1533ZM44.7773 36.18C44.6413 36.18 44.5733 36.1 44.5733 35.94C44.5733 35.86 44.6013 35.784 44.6573 35.712C44.7293 35.52 44.8013 35.26 44.8733 34.932C44.9693 34.524 45.0333 34.272 45.0653 34.176L45.1853 33.564L45.3173 32.796C45.4533 32.012 45.5813 31.448 45.7013 31.104C45.8293 30.76 46.0013 30.588 46.2173 30.588C46.2973 30.588 46.3613 30.64 46.4093 30.744L46.5653 31.152C46.5653 31.32 46.5053 31.448 46.3853 31.536C46.3533 31.56 46.3133 31.572 46.2653 31.572C46.2173 31.572 46.1733 31.548 46.1333 31.5C45.9493 32.18 45.8373 32.676 45.7973 32.988C45.7173 33.508 45.6493 33.908 45.5933 34.188C45.5613 34.276 45.5253 34.404 45.4853 34.572L45.3773 34.968C45.1693 35.776 44.9693 36.18 44.7773 36.18ZM48.6857 41.004C48.4217 41.004 48.1897 40.936 47.9897 40.8C47.7977 40.664 47.6497 40.492 47.5457 40.284C47.4417 40.084 47.3897 39.884 47.3897 39.684C47.3897 39.212 47.5137 38.768 47.7617 38.352C48.0097 37.944 48.3657 37.544 48.8297 37.152C49.0057 36.992 49.4097 36.676 50.0417 36.204L50.6297 35.76L50.6897 35.484L50.7737 35.112C50.8137 34.92 50.8417 34.792 50.8577 34.728L50.9297 34.404C50.7857 34.844 50.5457 35.236 50.2097 35.58C49.8817 35.924 49.5657 36.096 49.2617 36.096C48.9417 36.096 48.6857 35.976 48.4937 35.736C48.3017 35.488 48.2057 35.152 48.2057 34.728C48.2057 34.056 48.3977 32.996 48.7817 31.548C48.9737 30.828 49.0697 30.44 49.0697 30.384L49.0457 30.24C49.0377 30.184 49.0897 30.116 49.2017 30.036C49.3137 29.956 49.4057 29.916 49.4777 29.916C49.6377 29.916 49.7177 29.996 49.7177 30.156C49.7177 30.316 49.5697 30.988 49.2737 32.172C48.9777 33.356 48.8297 34.16 48.8297 34.584C48.8297 35 48.8817 35.26 48.9857 35.364C49.0817 35.468 49.2017 35.52 49.3457 35.52C49.6497 35.52 49.9737 35.264 50.3177 34.752C50.5897 34.352 50.8297 33.816 51.0377 33.144C51.2537 32.464 51.4537 31.748 51.6377 30.996L51.6977 30.756C51.7857 30.396 51.8617 30.172 51.9257 30.084C51.9897 29.988 52.0777 29.94 52.1897 29.94C52.2777 29.94 52.3377 29.964 52.3697 30.012C52.4097 30.052 52.4217 30.096 52.4057 30.144C52.2857 30.736 52.0897 31.604 51.8177 32.748C51.5697 33.788 51.3937 34.624 51.2897 35.256C51.2657 35.272 51.4057 35.144 51.7097 34.872C51.8697 34.712 51.9897 34.6 52.0697 34.536C52.1497 34.472 52.2257 34.44 52.2977 34.44C52.4337 34.44 52.5017 34.508 52.5017 34.644C52.5017 34.74 52.4697 34.82 52.4057 34.884C52.0857 35.172 51.6697 35.516 51.1577 35.916C50.7577 38.012 50.3977 39.376 50.0777 40.008C49.9017 40.36 49.6417 40.64 49.2977 40.848C49.1217 40.952 48.9177 41.004 48.6857 41.004ZM48.6857 40.428C48.9657 40.428 49.2177 40.248 49.4417 39.888C49.5937 39.648 49.7577 39.264 49.9337 38.736L50.0897 38.148L50.2097 37.68L50.4857 36.456L50.2817 36.636C50.0017 36.876 49.7257 37.104 49.4537 37.32C48.4857 38.104 48.0017 38.852 48.0017 39.564C48.0017 39.892 48.1097 40.144 48.3257 40.32C48.4057 40.392 48.5257 40.428 48.6857 40.428ZM53.9168 40.92C53.5328 40.92 53.2088 40.788 52.9448 40.524C52.6888 40.268 52.5608 39.94 52.5608 39.54C52.5608 39.172 52.6448 38.82 52.8128 38.484C52.9888 38.156 53.2408 37.816 53.5688 37.464C53.8488 37.16 54.1848 36.844 54.5768 36.516L55.7048 35.58C55.7608 35.38 55.8088 35.168 55.8488 34.944C55.9368 34.592 56.0048 34.304 56.0528 34.08C55.7488 35.032 55.3568 35.656 54.8768 35.952C54.7248 36.048 54.5768 36.096 54.4328 36.096C54.1528 36.096 53.9208 35.984 53.7368 35.76C53.5608 35.536 53.4728 35.24 53.4728 34.872C53.4728 34.176 53.6048 33.448 53.8688 32.688C54.1328 31.92 54.4848 31.264 54.9248 30.72C55.3808 30.168 55.8768 29.892 56.4128 29.892C56.6688 29.892 56.9128 29.956 57.1448 30.084C57.1928 30.06 57.2448 30.048 57.3008 30.048C57.4368 30.048 57.5048 30.112 57.5048 30.24C57.5048 30.376 57.4808 30.504 57.4328 30.624C57.2088 31.208 56.8328 32.728 56.3048 35.184C56.4328 35.104 56.5808 34.988 56.7488 34.836C56.7888 34.804 56.8608 34.744 56.9648 34.656C57.0688 34.56 57.1528 34.492 57.2168 34.452C57.2808 34.412 57.3368 34.392 57.3848 34.392C57.5208 34.392 57.5888 34.46 57.5888 34.596C57.5888 34.7 57.5608 34.78 57.5048 34.836C57.0088 35.212 56.5848 35.524 56.2328 35.772L56.0408 36.9L55.9808 37.2C55.8848 37.704 55.8008 38.124 55.7288 38.46C55.6568 38.804 55.5688 39.132 55.4648 39.444C55.3128 39.884 55.1048 40.24 54.8408 40.512C54.5848 40.784 54.2768 40.92 53.9168 40.92ZM54.4688 35.52C54.6288 35.52 54.8128 35.412 55.0208 35.196C55.2288 34.972 55.4288 34.684 55.6208 34.332C55.8208 33.972 55.9808 33.596 56.1008 33.204C56.2848 32.636 56.4408 32.112 56.5688 31.632C56.6488 31.352 56.7488 30.984 56.8688 30.528C56.7568 30.424 56.6048 30.372 56.4128 30.372C56.0688 30.372 55.7088 30.6 55.3328 31.056C54.9648 31.512 54.6528 32.088 54.3968 32.784C54.1488 33.472 54.0248 34.1 54.0248 34.668C54.0248 35.236 54.1728 35.52 54.4688 35.52ZM53.8088 40.32C53.9768 40.32 54.1288 40.28 54.2648 40.2C54.4008 40.128 54.5288 40 54.6488 39.816C54.7688 39.624 54.8888 39.356 55.0088 39.012C55.1288 38.668 55.2248 38.316 55.2968 37.956C55.3608 37.684 55.4128 37.436 55.4528 37.212L55.5008 36.948C55.5088 36.884 55.5208 36.816 55.5368 36.744C55.5528 36.672 55.5648 36.596 55.5728 36.516L55.6088 36.228C54.8248 36.876 54.2168 37.464 53.7848 37.992C53.3608 38.52 53.1488 38.992 53.1488 39.408C53.1488 39.848 53.2448 40.128 53.4368 40.248C53.5168 40.296 53.6408 40.32 53.8088 40.32ZM62.5686 36.024C62.3846 36.024 62.2126 35.928 62.0526 35.736C61.9006 35.536 61.8246 35.324 61.8246 35.1C61.8246 34.604 61.9566 33.764 62.2206 32.58C62.0206 33.012 61.7606 33.456 61.4406 33.912C61.1286 34.36 60.8206 34.756 60.5166 35.1C60.2126 35.444 59.9886 35.668 59.8446 35.772C59.6446 35.924 59.4246 36 59.1846 36C58.7286 36 58.5006 35.712 58.5006 35.136C58.5006 34.576 58.7126 33.88 59.1366 33.048C59.5606 32.208 60.0646 31.48 60.6486 30.864C61.2326 30.256 61.7046 29.952 62.0646 29.952C62.4326 29.952 62.6406 30.112 62.6886 30.432C62.7126 30.528 62.7246 30.632 62.7246 30.744C62.7646 30.72 62.8086 30.708 62.8566 30.708C63.0406 30.708 63.1326 30.796 63.1326 30.972V31.02L62.9886 31.548C62.8766 31.948 62.7606 32.54 62.6406 33.324C62.5206 34.108 62.4606 34.76 62.4606 35.28L62.5806 35.352C62.7726 35.472 62.8686 35.592 62.8686 35.712C62.8686 35.792 62.8406 35.864 62.7846 35.928C62.7286 35.992 62.6566 36.024 62.5686 36.024ZM59.2806 35.376C59.3686 35.376 59.4406 35.348 59.4966 35.292C60.3126 34.596 61.0366 33.632 61.6686 32.4C62.0286 31.72 62.2246 31.316 62.2566 31.188C62.2726 31.044 62.2806 30.956 62.2806 30.924C62.2806 30.844 62.2606 30.772 62.2206 30.708C62.1806 30.644 62.1286 30.612 62.0646 30.612C61.9846 30.612 61.8806 30.648 61.7526 30.72C61.4326 30.888 61.0526 31.244 60.6126 31.788C60.1806 32.332 59.8246 32.908 59.5446 33.516C59.2486 34.132 59.1006 34.68 59.1006 35.16C59.1006 35.304 59.1606 35.376 59.2806 35.376Z" fill="#6D6F72"/>
</svg>
