<svg width="106" height="126" viewBox="0 0 106 126" fill="none" xmlns="http://www.w3.org/2000/svg">
    <path d="M56.3075 68.9424L54.38 68.2249C54.3543 68.2149 54.3312 68.1991 54.3125 68.1787C54.2939 68.1583 54.2802 68.1339 54.2725 68.1074L53.605 65.5949C53.5964 65.5291 53.5639 65.4687 53.5136 65.4254C53.4633 65.382 53.3989 65.3587 53.3325 65.3599H53.31C53.2436 65.3587 53.1792 65.382 53.1289 65.4254C53.0786 65.4687 53.0461 65.5291 53.0375 65.5949L52.37 68.1074C52.3623 68.1339 52.3486 68.1583 52.33 68.1787C52.3113 68.1991 52.2882 68.2149 52.2625 68.2249L50.335 68.9424C50.2702 68.9532 50.2113 68.9866 50.1688 69.0367C50.1263 69.0869 50.103 69.1504 50.103 69.2162C50.103 69.2819 50.1263 69.3455 50.1688 69.3956C50.2113 69.4457 50.2702 69.4791 50.335 69.4899L52.2625 70.2099C52.2887 70.2192 52.3121 70.2348 52.3309 70.2553C52.3496 70.2758 52.363 70.3005 52.37 70.3274L53.0375 72.8274C53.0461 72.8932 53.0786 72.9536 53.1289 72.9969C53.1792 73.0403 53.2436 73.0636 53.31 73.0624H53.3325C53.3989 73.0636 53.4633 73.0403 53.5136 72.9969C53.5639 72.9536 53.5964 72.8932 53.605 72.8274L54.2725 70.3274C54.2795 70.3005 54.2929 70.2758 54.3116 70.2553C54.3304 70.2348 54.3538 70.2192 54.38 70.2099L56.3075 69.4899C56.3723 69.4791 56.4312 69.4457 56.4737 69.3956C56.5162 69.3455 56.5395 69.2819 56.5395 69.2162C56.5395 69.1504 56.5162 69.0869 56.4737 69.0367C56.4312 68.9866 56.3723 68.9532 56.3075 68.9424Z"
          fill="#939598"/>
    <path d="M71.195 60.37C70.0775 60.37 70.075 62.12 71.195 62.12C72.315 62.12 72.315 60.37 71.195 60.37Z"
          fill="#939598"/>
    <path d="M64.25 65.5C62.58 65.5 62.5775 68.0975 64.25 68.0975C65.9225 68.0975 65.935 65.5 64.25 65.5Z"
          fill="#939598"/>
    <path d="M43.2675 64.6475C40.5175 64.6475 40.5175 68.935 43.2675 68.935C46.0175 68.935 46.03 64.6475 43.2675 64.6475Z"
          fill="#939598"/>
    <path d="M37.9275 61.6475L36.6775 61.1775C36.6606 61.171 36.6454 61.1606 36.6332 61.1472C36.621 61.1337 36.6122 61.1175 36.6075 61.1L36.1725 59.4575C36.1659 59.4147 36.144 59.3757 36.111 59.3477C36.0779 59.3196 36.0358 59.3045 35.9925 59.305H35.9775C35.9345 59.3046 35.8927 59.3198 35.8601 59.3479C35.8274 59.3759 35.8061 59.4149 35.8 59.4575L35.3625 61.1C35.3582 61.1177 35.3495 61.1341 35.3373 61.1476C35.3251 61.1611 35.3097 61.1714 35.2925 61.1775L34.0425 61.6475C33.9994 61.6525 33.9598 61.6735 33.9316 61.7064C33.9033 61.7393 33.8885 61.7817 33.89 61.825C33.889 61.8685 33.9039 61.9108 33.932 61.944C33.9601 61.9772 33.9994 61.9989 34.0425 62.005L35.2925 62.475C35.3096 62.4805 35.325 62.4902 35.3373 62.5034C35.3495 62.5165 35.3582 62.5326 35.3625 62.55L35.8 64.1925C35.8055 64.2354 35.8267 64.2746 35.8595 64.3028C35.8923 64.3309 35.9343 64.346 35.9775 64.345H35.9925C36.036 64.3461 36.0783 64.3311 36.1115 64.303C36.1447 64.2749 36.1664 64.2356 36.1725 64.1925L36.6075 62.55C36.6122 62.5328 36.621 62.5169 36.6332 62.5038C36.6454 62.4908 36.6606 62.4809 36.6775 62.475L37.9275 62.005C37.9706 61.9989 38.0099 61.9772 38.038 61.944C38.0661 61.9108 38.0811 61.8685 38.08 61.825C38.0816 61.7817 38.0667 61.7393 38.0385 61.7064C38.0102 61.6735 37.9706 61.6525 37.9275 61.6475Z"
          fill="#939598"/>
    <path d="M49.9675 35.41L51.895 36.1275C51.9207 36.1371 51.9437 36.1529 51.9619 36.1733C51.9802 36.1938 51.9933 36.2184 52 36.245L52.6675 38.75C52.6777 38.8156 52.711 38.8753 52.7615 38.9184C52.8119 38.9616 52.8761 38.9852 52.9425 38.985H52.9625C53.0313 38.9894 53.0991 38.9676 53.1525 38.924C53.2058 38.8804 53.2407 38.8182 53.25 38.75L53.905 36.25C53.9127 36.2235 53.9264 36.1991 53.9451 36.1787C53.9637 36.1583 53.9868 36.1425 54.0125 36.1325L55.9375 35.415C56.0035 35.4058 56.0639 35.3728 56.1072 35.3221C56.1505 35.2714 56.1738 35.2066 56.1725 35.14C56.1742 35.0735 56.1511 35.0087 56.1077 34.9583C56.0642 34.9079 56.0036 34.8755 55.9375 34.8675L54.0125 34.1475C53.9866 34.1378 53.9633 34.1221 53.9446 34.1017C53.9259 34.0812 53.9124 34.0567 53.905 34.03L53.2375 31.53C53.2283 31.4639 53.1953 31.4036 53.1446 31.3603C53.0939 31.317 53.0292 31.2937 52.9625 31.295H52.9425C52.876 31.2943 52.8115 31.3177 52.7609 31.3609C52.7104 31.4041 52.6772 31.4642 52.6675 31.53L52 34.03C51.9937 34.0568 51.9808 34.0815 51.9624 34.1021C51.9441 34.1226 51.9209 34.1382 51.895 34.1475L49.9675 34.8675C49.9017 34.8756 49.8413 34.908 49.7982 34.9585C49.7552 35.0089 49.7326 35.0737 49.735 35.14C49.7344 35.2055 49.7576 35.2691 49.8004 35.3188C49.8432 35.3685 49.9026 35.4009 49.9675 35.41Z"
          fill="#939598"/>
    <path d="M35.08 43.9825C36.1975 43.9825 36.1975 42.2325 35.08 42.2325C33.9625 42.2325 33.96 43.9825 35.08 43.9825Z"
          fill="#939598"/>
    <path d="M42.0125 38.86C43.685 38.86 43.6875 36.2599 42.0125 36.2599C40.3375 36.2599 40.34 38.86 42.0125 38.86Z"
          fill="#939598"/>
    <path d="M63 39.705C65.75 39.705 65.75 35.4175 63 35.4175C60.25 35.4175 60.25 39.705 63 39.705Z" fill="#939598"/>
    <path d="M68.3475 42.705L69.5975 43.175C69.6142 43.1814 69.6291 43.1918 69.6409 43.2053C69.6526 43.2188 69.6609 43.235 69.665 43.2525L70.1025 44.8925C70.1086 44.9357 70.1302 44.9753 70.1633 45.0039C70.1964 45.0324 70.2388 45.0479 70.2825 45.0475H70.295C70.3387 45.0479 70.3811 45.0324 70.4142 45.0039C70.4473 44.9753 70.4689 44.9357 70.475 44.8925L70.91 43.2525C70.9147 43.2349 70.9235 43.2188 70.9357 43.2053C70.9479 43.1918 70.9631 43.1814 70.98 43.175L72.23 42.705C72.2729 42.6994 72.3121 42.6782 72.3403 42.6454C72.3684 42.6127 72.3835 42.5706 72.3825 42.5275C72.3836 42.484 72.3686 42.4416 72.3405 42.4085C72.3124 42.3753 72.2731 42.3536 72.23 42.3475L70.98 41.8775C70.9628 41.8713 70.9474 41.8611 70.9352 41.8475C70.923 41.834 70.9143 41.8177 70.91 41.8L70.475 40.16C70.4689 40.1167 70.4473 40.0771 70.4142 40.0485C70.3811 40.02 70.3387 40.0045 70.295 40.005H70.2825C70.2388 40.0045 70.1964 40.02 70.1633 40.0485C70.1302 40.0771 70.1086 40.1167 70.1025 40.16L69.665 41.8C69.6611 41.8175 69.6529 41.8338 69.6411 41.8473C69.6293 41.8608 69.6143 41.8712 69.5975 41.8775L68.3475 42.3475C68.3044 42.3536 68.2651 42.3753 68.237 42.4085C68.2089 42.4416 68.194 42.484 68.195 42.5275C68.194 42.5706 68.2091 42.6127 68.2372 42.6454C68.2654 42.6782 68.3047 42.6994 68.3475 42.705Z"
          fill="#939598"/>
    <path d="M53.3877 55.2451C55.0638 55.2416 56.4198 53.8799 56.4163 52.2037C56.4128 50.5276 55.0511 49.1716 53.3749 49.1751C51.6988 49.1786 50.3428 50.5403 50.3463 52.2165C50.3498 53.8926 51.7115 55.2486 53.3877 55.2451Z"
          fill="#939598"/>
    <path d="M53.3825 76.6475C58.2169 76.65 62.9435 75.2187 66.9643 72.5346C70.9851 69.8505 74.1196 66.0342 75.9713 61.5684C77.8229 57.1027 78.3086 52.1881 77.3667 47.4463C76.4249 42.7045 74.098 38.3485 70.6802 34.9294C67.2625 31.5102 62.9075 29.1815 58.1661 28.2377C53.4247 27.294 48.5099 27.7776 44.0434 29.6274C39.5769 31.4773 35.7593 34.6102 33.0735 38.6299C30.3878 42.6496 28.9545 47.3756 28.955 52.21C28.9616 58.6875 31.537 64.8979 36.1164 69.4791C40.6957 74.0603 46.905 76.6383 53.3825 76.6475ZM60.6325 52.21C60.6325 57.025 57.5875 60.96 53.7725 61.21C53.63 61.21 53.4875 61.21 53.3475 61.21C49.375 61.18 46.1525 57.1475 46.1525 52.1925C46.1525 47.2375 49.375 43.1925 53.3475 43.1725C53.4875 43.1725 53.63 43.1725 53.7725 43.1725C57.5775 43.4475 60.6225 47.3925 60.6225 52.21H60.6325ZM57.8825 43.575C63.845 44.56 69.8825 47.4525 75.8825 52.21C69.8825 56.96 63.8525 59.8575 57.8825 60.8425C60.245 59.0325 61.8175 55.8425 61.8175 52.21C61.8175 48.5775 60.25 45.3875 57.8775 43.575H57.8825ZM44.9575 52.21C44.9575 55.87 46.5575 59.0875 48.9575 60.89C42.935 59.945 36.8775 57.0325 30.8975 52.21C36.8775 47.385 42.935 44.46 48.9575 43.53C46.5525 45.3325 44.9525 48.5475 44.9525 52.21H44.9575ZM53.3875 75.46C47.3901 75.4517 41.6275 73.1279 37.3021 68.9734C32.9767 64.819 30.4225 59.1547 30.1725 53.1625C37.5958 59.1425 45.0825 62.2159 52.6325 62.3825C52.8815 62.4104 53.1319 62.4246 53.3825 62.425C53.6599 62.4248 53.9371 62.4081 54.2125 62.375C61.6625 62.14 69.1242 59.0675 76.5975 53.1575C76.3475 59.1497 73.7933 64.814 69.4679 68.9684C65.1425 73.1229 59.3799 75.4467 53.3825 75.455L53.3875 75.46ZM53.3875 28.96C59.3857 28.9684 65.149 31.2929 69.4746 35.4484C73.8001 39.604 76.3537 45.2695 76.6025 51.2625C69.1425 45.3525 61.6808 42.28 54.2175 42.045C53.9421 42.012 53.6649 41.9953 53.3875 41.995C53.1369 41.9955 52.8865 42.0097 52.6375 42.0375C45.1025 42.2042 37.6158 45.2775 30.1775 51.2575C30.4281 45.2675 32.9811 39.6054 37.3043 35.4517C41.6276 31.298 47.3872 28.9734 53.3825 28.9625L53.3875 28.96Z"
          fill="#939598"/>
    <path class="rotate360" d="M53.33 25.9351C53.4878 25.9351 53.6392 25.8724 53.7507 25.7608C53.8623 25.6492 53.925 25.4979 53.925 25.3401V10.7751C53.925 10.6969 53.9096 10.6195 53.8797 10.5474C53.8498 10.4752 53.806 10.4096 53.7507 10.3543C53.6955 10.2991 53.6299 10.2552 53.5577 10.2253C53.4855 10.1954 53.4081 10.1801 53.33 10.1801C53.2519 10.1801 53.1745 10.1954 53.1023 10.2253C53.0301 10.2552 52.9645 10.2991 52.9093 10.3543C52.854 10.4096 52.8102 10.4752 52.7803 10.5474C52.7504 10.6195 52.735 10.6969 52.735 10.7751V25.3401C52.7347 25.4183 52.7498 25.4958 52.7796 25.5681C52.8094 25.6405 52.8532 25.7062 52.9085 25.7615C52.9639 25.8168 53.0296 25.8607 53.1019 25.8904C53.1743 25.9202 53.2518 25.9354 53.33 25.9351Z"
          fill="#939598"/>
    <path class="rotate360" d="M47.0625 23.5424L47.3825 25.3525C47.4045 25.4918 47.4755 25.6187 47.5828 25.7104C47.69 25.802 47.8264 25.8524 47.9675 25.8525H48.07C48.147 25.8389 48.2206 25.8102 48.2865 25.7682C48.3525 25.7262 48.4095 25.6715 48.4543 25.6075C48.4991 25.5434 48.5308 25.4711 48.5477 25.3947C48.5645 25.3184 48.5662 25.2394 48.5525 25.1625L48.235 23.3499C48.2075 23.1945 48.1193 23.0563 47.9899 22.9658C47.8605 22.8753 47.7005 22.8399 47.545 22.8674C47.3895 22.895 47.2513 22.9831 47.1608 23.1125C47.0704 23.2419 47.035 23.402 47.0625 23.5575V23.5424Z"
          fill="#939598"/>
    <path class="rotate360" d="M46.2975 19.1999C46.32 19.3391 46.3912 19.4657 46.4983 19.5573C46.6054 19.6488 46.7416 19.6994 46.8825 19.6999C46.9166 19.7024 46.9509 19.7024 46.985 19.6999C47.0631 19.6864 47.1377 19.6575 47.2045 19.6148C47.2713 19.5722 47.329 19.5167 47.3741 19.4515C47.4192 19.3864 47.451 19.3129 47.4674 19.2354C47.4839 19.1578 47.4848 19.0778 47.47 18.9999L46.6925 14.5974C46.665 14.442 46.5768 14.3038 46.4474 14.2133C46.318 14.1228 46.158 14.0874 46.0025 14.1149C45.847 14.1425 45.7088 14.2306 45.6184 14.36C45.5279 14.4894 45.4925 14.6495 45.52 14.8049L46.2975 19.1999Z"
          fill="#fff"/>
    <path  class="rotate360" d="M42.965 27.2774C43.0066 27.3925 43.0828 27.4919 43.183 27.5622C43.2832 27.6324 43.4026 27.6701 43.525 27.6699C43.5942 27.6696 43.6628 27.6569 43.7275 27.6324C43.8731 27.5788 43.992 27.4703 44.0588 27.3302C44.1256 27.1901 44.135 27.0294 44.085 26.8824L39.105 13.1824C39.051 13.0339 38.9401 12.913 38.7969 12.8461C38.6537 12.7793 38.4898 12.7722 38.3412 12.8262C38.1927 12.8802 38.0718 12.9911 38.0049 13.1343C37.9381 13.2775 37.931 13.4414 37.985 13.5899L42.965 27.2774Z"
          fill="#939598"/>
    <path  class="rotate360" d="M38.4775 28.925C38.5588 29.0568 38.6882 29.1517 38.8384 29.1896C38.9885 29.2274 39.1475 29.2053 39.2816 29.1278C39.4156 29.0504 39.5142 28.9237 39.5564 28.7748C39.5986 28.6258 39.5811 28.4662 39.5075 28.33L38.585 26.73C38.5459 26.6622 38.4939 26.6027 38.4319 26.5551C38.3698 26.5074 38.299 26.4724 38.2234 26.4521C38.1479 26.4318 38.069 26.4265 37.9915 26.4367C37.9139 26.4468 37.8391 26.4722 37.7713 26.5112C37.7035 26.5503 37.644 26.6023 37.5963 26.6644C37.5487 26.7264 37.5137 26.7972 37.4933 26.8728C37.473 26.9484 37.4678 27.0272 37.4779 27.1048C37.4881 27.1824 37.5134 27.2572 37.5525 27.325L38.4775 28.925Z"
          fill="#939598"/>
    <path class="rotate360" d="M35.34 23.5C35.393 23.5902 35.4686 23.6652 35.5593 23.7173C35.6501 23.7695 35.7528 23.7971 35.8575 23.7975C35.9618 23.7964 36.0642 23.7689 36.155 23.7175C36.2917 23.6381 36.3914 23.5077 36.4321 23.3549C36.4729 23.2022 36.4514 23.0395 36.3725 22.9025L34.1225 19.0175C34.0847 18.9475 34.0332 18.8857 33.9711 18.8359C33.9091 18.7862 33.8376 18.7493 33.761 18.7277C33.6845 18.706 33.6043 18.6999 33.5254 18.7097C33.4464 18.7195 33.3702 18.7451 33.3013 18.7849C33.2324 18.8247 33.1722 18.878 33.1242 18.9414C33.0762 19.0049 33.0415 19.0774 33.022 19.1546C33.0025 19.2317 32.9987 19.312 33.0108 19.3907C33.023 19.4693 33.0507 19.5447 33.0925 19.6125L35.34 23.5Z"
          fill="#939598"/>
    <path class="rotate360" d="M34.985 32.25C35.0411 32.3166 35.1112 32.3702 35.1902 32.4069C35.2692 32.4436 35.3554 32.4626 35.4425 32.4625C35.5557 32.4623 35.6665 32.4299 35.7619 32.369C35.8573 32.3081 35.9334 32.2212 35.9812 32.1186C36.0289 32.016 36.0464 31.9018 36.0316 31.7896C36.0168 31.6774 35.9703 31.5717 35.8975 31.485L26.54 20.3225C26.4386 20.2015 26.2932 20.1257 26.1359 20.1119C25.9786 20.0981 25.8223 20.1473 25.7012 20.2487C25.5802 20.3502 25.5045 20.4956 25.4907 20.6528C25.4768 20.8101 25.5261 20.9665 25.6275 21.0875L34.985 32.25Z"
          fill="#939598"/>
    <path class="rotate360" d="M32.085 34.4225L30.665 33.28C30.6041 33.2308 30.5341 33.194 30.459 33.1718C30.3839 33.1496 30.3051 33.1425 30.2272 33.1507C30.1494 33.159 30.0739 33.1825 30.0051 33.2199C29.9363 33.2573 29.8755 33.3079 29.8263 33.3688C29.7268 33.4918 29.6803 33.6493 29.6969 33.8066C29.7136 33.9639 29.792 34.1081 29.915 34.2075L31.3375 35.35C31.4605 35.4495 31.618 35.496 31.7753 35.4794C31.9326 35.4627 32.0768 35.3843 32.1763 35.2613C32.2757 35.1383 32.3222 34.9808 32.3056 34.8235C32.2889 34.6662 32.2105 34.522 32.0875 34.4225H32.085Z"
          fill="#939598"/>
    <path  class="rotate360" d="M23.0625 28.6975L26.515 31.4725C26.6209 31.5567 26.7522 31.6026 26.8875 31.6025C27.011 31.6027 27.1314 31.5646 27.2322 31.4933C27.3331 31.4221 27.4092 31.3212 27.4501 31.2047C27.4911 31.0883 27.4947 30.962 27.4607 30.8433C27.4266 30.7246 27.3565 30.6195 27.26 30.5425L23.81 27.7675C23.6863 27.6719 23.5301 27.6286 23.3749 27.6469C23.2196 27.6652 23.0777 27.7436 22.9796 27.8652C22.8815 27.9869 22.835 28.1422 22.85 28.2978C22.865 28.4533 22.9404 28.5968 23.06 28.6975H23.0625Z"
          fill="#939598"/>
    <path class="rotate360" d="M16.5775 32.36L29.185 39.6425C29.2754 39.6949 29.378 39.7225 29.4825 39.7225C29.6134 39.7224 29.7406 39.6791 29.8444 39.5994C29.9482 39.5197 30.0228 39.4079 30.0567 39.2815C30.0906 39.1551 30.0819 39.021 30.0318 38.9001C29.9818 38.7791 29.8933 38.678 29.78 38.6125L17.1725 31.33C17.0362 31.2564 16.8767 31.2389 16.7277 31.2811C16.5787 31.3232 16.4521 31.4218 16.3746 31.5559C16.2972 31.69 16.275 31.849 16.3129 31.9991C16.3508 32.1492 16.4457 32.2787 16.5775 32.36Z"
          fill="#939598"/>
    <path class="rotate360" d="M27.25 42.6801L25.5925 42.0776C25.5185 42.0481 25.4394 42.0337 25.3598 42.0354C25.2802 42.0371 25.2018 42.0547 25.1291 42.0872C25.0564 42.1198 24.991 42.1665 24.9368 42.2248C24.8825 42.2831 24.8405 42.3516 24.8132 42.4264C24.786 42.5012 24.774 42.5808 24.778 42.6603C24.782 42.7398 24.8019 42.8177 24.8366 42.8894C24.8713 42.961 24.92 43.025 24.9798 43.0775C25.0396 43.13 25.1094 43.17 25.185 43.1951L26.8425 43.8001C26.9073 43.8238 26.9759 43.8356 27.045 43.8351C27.1854 43.836 27.3217 43.7872 27.4296 43.6974C27.5376 43.6075 27.6103 43.4823 27.6348 43.344C27.6594 43.2058 27.6342 43.0632 27.5638 42.9417C27.4933 42.8202 27.3822 42.7275 27.25 42.6801Z"
          fill="#939598"/>
    <path d="M17.585 39.1676C17.4381 39.1189 17.278 39.1293 17.1387 39.1967C16.9994 39.2641 16.8918 39.3831 16.8388 39.5285C16.7858 39.6739 16.7915 39.8342 16.8547 39.9755C16.9179 40.1167 17.0337 40.2278 17.1775 40.2851L21.2025 41.7501C21.2765 41.7795 21.3556 41.7939 21.4352 41.7922C21.5148 41.7905 21.5932 41.7729 21.6659 41.7404C21.7386 41.7079 21.804 41.6611 21.8582 41.6028C21.9125 41.5445 21.9545 41.476 21.9818 41.4012C22.009 41.3264 22.021 41.2469 22.017 41.1673C22.013 41.0878 21.9931 41.0099 21.9584 40.9383C21.9237 40.8666 21.875 40.8026 21.8152 40.7501C21.7553 40.6976 21.6856 40.6576 21.61 40.6326L17.585 39.1676Z"
          fill="#939598"/>
    <path d="M11.9275 46.05L26.265 48.5801C26.3 48.5825 26.3351 48.5825 26.37 48.5801C26.5179 48.5786 26.6599 48.5221 26.7684 48.4216C26.8768 48.3211 26.944 48.1839 26.9568 48.0366C26.9696 47.8893 26.9271 47.7425 26.8376 47.6248C26.748 47.5071 26.6179 47.427 26.4725 47.4001L12.1325 44.8775C11.977 44.8504 11.8171 44.8861 11.688 44.9768C11.5588 45.0675 11.471 45.2058 11.4438 45.3613C11.4166 45.5168 11.4523 45.6767 11.543 45.8059C11.6337 45.935 11.772 46.0229 11.9275 46.05Z"
          fill="#939598"/>
    <path d="M58.5875 25.8375C58.6225 25.8399 58.6576 25.8399 58.6925 25.8375C58.8334 25.8369 58.9696 25.7864 59.0767 25.6948C59.1839 25.6032 59.255 25.4766 59.2775 25.3375L59.5975 23.5275C59.625 23.372 59.5897 23.212 59.4992 23.0826C59.4087 22.9532 59.2705 22.865 59.115 22.8375C58.9595 22.81 58.7995 22.8453 58.6701 22.9358C58.5407 23.0263 58.4525 23.1645 58.425 23.32L58.105 25.1325C58.0895 25.2105 58.0897 25.2909 58.1057 25.3689C58.1216 25.4468 58.153 25.5208 58.198 25.5865C58.2429 25.6522 58.3005 25.7082 58.3674 25.7513C58.4343 25.7944 58.5091 25.8237 58.5875 25.8375Z"
          fill="#939598"/>
    <path d="M59.6725 19.6825C59.7074 19.6849 59.7425 19.6849 59.7775 19.6825C59.9183 19.6814 60.0542 19.6307 60.1612 19.5392C60.2682 19.4477 60.3395 19.3214 60.3625 19.1825L61.1375 14.78C61.165 14.6245 61.1296 14.4645 61.0391 14.3351C60.9487 14.2057 60.8105 14.1175 60.655 14.09C60.4995 14.0625 60.3395 14.0978 60.2101 14.1883C60.0807 14.2788 59.9925 14.417 59.965 14.5725L59.19 19C59.1646 19.1543 59.2009 19.3125 59.2912 19.4402C59.3815 19.568 59.5185 19.655 59.6725 19.6825Z"
          fill="#939598"/>
    <path d="M62.93 27.6325C63.0766 27.684 63.2375 27.6756 63.378 27.6091C63.5184 27.5427 63.6269 27.4235 63.68 27.2775L68.66 13.59C68.7087 13.4431 68.6983 13.283 68.6309 13.1437C68.5635 13.0044 68.4445 12.8968 68.2991 12.8438C68.1537 12.7908 67.9933 12.7965 67.8521 12.8597C67.7109 12.923 67.5998 13.0388 67.5425 13.1825L62.575 26.87C62.521 27.0182 62.5281 27.1818 62.5947 27.3248C62.6613 27.4677 62.7819 27.5784 62.93 27.6325Z"
          fill="#939598"/>
    <path d="M68.075 26.73L67.15 28.33C67.072 28.4671 67.0514 28.6294 67.0926 28.7816C67.1338 28.9338 67.2335 29.0635 67.37 29.1425C67.4593 29.1953 67.5613 29.2229 67.665 29.2225C67.7698 29.2226 67.8727 29.1952 67.9636 29.143C68.0544 29.0908 68.1299 29.0156 68.1825 28.925L69.105 27.325C69.1468 27.2573 69.1745 27.1818 69.1867 27.1032C69.1988 27.0245 69.195 26.9443 69.1755 26.8671C69.156 26.7899 69.1213 26.7175 69.0733 26.654C69.0253 26.5905 68.9651 26.5373 68.8962 26.4975C68.8273 26.4576 68.7511 26.4321 68.6721 26.4222C68.5932 26.4124 68.513 26.4185 68.4365 26.4402C68.3599 26.4619 68.2884 26.4987 68.2264 26.5485C68.1643 26.5982 68.1128 26.66 68.075 26.73Z"
          fill="#939598"/>
    <path d="M70.5 23.71C70.5906 23.7619 70.6931 23.7895 70.7975 23.79C70.902 23.7915 71.0051 23.7656 71.0964 23.7147C71.1877 23.6638 71.2639 23.5897 71.3175 23.5L73.5675 19.6124C73.6077 19.5443 73.6341 19.4689 73.6452 19.3906C73.6563 19.3123 73.6518 19.2325 73.6321 19.1559C73.6124 19.0793 73.5777 19.0074 73.5302 18.9441C73.4826 18.8809 73.4231 18.8277 73.355 18.7875C73.2869 18.7472 73.2115 18.7208 73.1332 18.7097C73.0548 18.6987 72.9751 18.7031 72.8985 18.7228C72.8219 18.7426 72.7499 18.7772 72.6867 18.8247C72.6234 18.8723 72.5702 18.9318 72.53 19L70.28 22.885C70.2394 22.9533 70.2129 23.0292 70.202 23.1079C70.1911 23.1867 70.1961 23.2669 70.2166 23.3437C70.2371 23.4205 70.2727 23.4925 70.3214 23.5554C70.37 23.6183 70.4308 23.6708 70.5 23.71Z"
          fill="#939598"/>
    <path d="M70.835 32.3175C70.9415 32.4087 71.0773 32.4584 71.2175 32.4575C71.3043 32.4576 71.39 32.4385 71.4686 32.4018C71.5472 32.3651 71.6168 32.3116 71.6725 32.245L81.0325 21.0875C81.1339 20.9665 81.1832 20.8101 81.1693 20.6528C81.1555 20.4956 81.0797 20.3502 80.9587 20.2487C80.8377 20.1473 80.6814 20.0981 80.5241 20.1119C80.3668 20.1257 80.2214 20.2015 80.12 20.3225L70.75 31.48C70.7006 31.5406 70.6635 31.6103 70.641 31.6851C70.6186 31.76 70.6111 31.8386 70.6189 31.9164C70.6268 31.9941 70.65 32.0696 70.6871 32.1384C70.7241 32.2073 70.7744 32.2681 70.835 32.3175Z"
          fill="#939598"/>
    <path d="M75.32 35.35L76.74 34.2075C76.8009 34.1583 76.8515 34.0975 76.8889 34.0287C76.9264 33.9599 76.9499 33.8844 76.9581 33.8066C76.9663 33.7287 76.9592 33.6499 76.937 33.5748C76.9148 33.4997 76.878 33.4297 76.8288 33.3688C76.7795 33.3079 76.7188 33.2573 76.6499 33.2199C76.5811 33.1825 76.5056 33.159 76.4278 33.1507C76.3499 33.1425 76.2711 33.1496 76.196 33.1718C76.1209 33.194 76.0509 33.2308 75.99 33.28L74.57 34.4225C74.447 34.522 74.3686 34.6662 74.3519 34.8235C74.3353 34.9808 74.3818 35.1383 74.4812 35.2613C74.5807 35.3843 74.725 35.4627 74.8823 35.4794C75.0395 35.496 75.197 35.4495 75.32 35.35Z"
          fill="#939598"/>
    <path d="M79.3075 31.38C79.4061 31.5028 79.5494 31.5815 79.7059 31.5988C79.8624 31.6161 80.0194 31.5707 80.1425 31.4725L83.595 28.6975C83.7183 28.598 83.7971 28.4537 83.814 28.2961C83.8309 28.1386 83.7845 27.9808 83.685 27.8575C83.5855 27.7342 83.4412 27.6554 83.2836 27.6385C83.1261 27.6217 82.9683 27.668 82.845 27.7675L79.3925 30.5425C79.3319 30.5919 79.2816 30.6527 79.2446 30.7216C79.2075 30.7904 79.1843 30.8659 79.1764 30.9436C79.1685 31.0214 79.1761 31.1 79.1986 31.1749C79.221 31.2497 79.2581 31.3194 79.3075 31.38Z"
          fill="#939598"/>
    <path d="M76.66 39.425C76.7122 39.5154 76.7873 39.5905 76.8777 39.6427C76.9681 39.6949 77.0706 39.7224 77.175 39.7225C77.2796 39.7232 77.3824 39.6956 77.4725 39.6425L90.0825 32.36C90.2143 32.2787 90.3092 32.1492 90.3471 31.9991C90.385 31.849 90.3628 31.69 90.2854 31.5559C90.2079 31.4218 90.0813 31.3232 89.9323 31.2811C89.7833 31.2389 89.6238 31.2564 89.4875 31.33L76.8775 38.6125C76.8097 38.6513 76.7502 38.7032 76.7025 38.7652C76.6548 38.8271 76.6198 38.8979 76.5996 38.9734C76.5794 39.049 76.5743 39.1277 76.5847 39.2052C76.595 39.2827 76.6206 39.3574 76.66 39.425Z"
          fill="#939598"/>
    <path d="M79.625 43.835C79.6949 43.8358 79.7643 43.824 79.83 43.8L81.485 43.195C81.562 43.1713 81.6333 43.1321 81.6947 43.08C81.756 43.0278 81.8062 42.9637 81.8421 42.8916C81.878 42.8195 81.8988 42.7409 81.9034 42.6605C81.908 42.5801 81.8962 42.4995 81.8688 42.4238C81.8413 42.3481 81.7988 42.2787 81.7438 42.2199C81.6887 42.1611 81.6223 42.1141 81.5486 42.0817C81.4748 42.0494 81.3953 42.0323 81.3147 42.0316C81.2342 42.0309 81.1543 42.0465 81.08 42.0775L79.4225 42.68C79.2905 42.7274 79.1795 42.8199 79.1091 42.9412C79.0386 43.0624 79.0133 43.2047 79.0375 43.3428C79.0617 43.4809 79.1339 43.6061 79.2414 43.6961C79.3489 43.7862 79.4848 43.8354 79.625 43.835Z"
          fill="#939598"/>
    <path d="M85.25 41.7875C85.3192 41.7872 85.3878 41.7745 85.4525 41.75L89.4775 40.285C89.5531 40.26 89.6229 40.22 89.6827 40.1675C89.7426 40.115 89.7913 40.051 89.8259 39.9793C89.8606 39.9076 89.8805 39.8297 89.8845 39.7502C89.8885 39.6707 89.8766 39.5912 89.8493 39.5164C89.822 39.4416 89.78 39.373 89.7257 39.3148C89.6715 39.2565 89.6061 39.2097 89.5334 39.1772C89.4608 39.1447 89.3823 39.127 89.3027 39.1254C89.2231 39.1237 89.144 39.138 89.07 39.1675L85.045 40.6325C84.9128 40.68 84.8017 40.7727 84.7312 40.8942C84.6608 41.0157 84.6356 41.1582 84.6602 41.2965C84.6847 41.4348 84.7574 41.56 84.8654 41.6498C84.9733 41.7397 85.1096 41.7885 85.25 41.7875Z"
          fill="#939598"/>
    <path d="M79.705 48.0975C79.727 48.2368 79.798 48.3637 79.9053 48.4554C80.0125 48.547 80.1489 48.5974 80.29 48.5975C80.3241 48.6 80.3584 48.6 80.3925 48.5975L94.7325 46.0675C94.888 46.04 95.0262 45.9518 95.1167 45.8224C95.2072 45.693 95.2425 45.533 95.215 45.3775C95.1875 45.222 95.0993 45.0838 94.9699 44.9933C94.8405 44.9028 94.6805 44.8675 94.525 44.895L80.1875 47.425C80.0352 47.4519 79.8995 47.5374 79.8094 47.663C79.7192 47.7887 79.6818 47.9446 79.705 48.0975Z"
          fill="#939598"/>
    <path d="M25.8925 52.1H23.6425C23.491 52.1098 23.349 52.1769 23.2452 52.2876C23.1414 52.3984 23.0836 52.5444 23.0836 52.6962C23.0836 52.848 23.1414 52.9941 23.2452 53.1048C23.349 53.2156 23.491 53.2827 23.6425 53.2925H25.8925C26.044 53.2827 26.186 53.2156 26.2898 53.1048C26.3936 52.9941 26.4514 52.848 26.4514 52.6962C26.4514 52.5444 26.3936 52.3984 26.2898 52.2876C26.186 52.1769 26.044 52.1098 25.8925 52.1Z"
          fill="#939598"/>
    <path d="M12.7125 52.1C12.561 52.1098 12.419 52.1769 12.3152 52.2876C12.2114 52.3984 12.1536 52.5444 12.1536 52.6962C12.1536 52.848 12.2114 52.9941 12.3152 53.1048C12.419 53.2156 12.561 53.2827 12.7125 53.2925H18.2125C18.364 53.2827 18.506 53.2156 18.6098 53.1048C18.7136 52.9941 18.7714 52.848 18.7714 52.6962C18.7714 52.5444 18.7136 52.3984 18.6098 52.2876C18.506 52.1769 18.364 52.1098 18.2125 52.1H12.7125Z"
          fill="#939598"/>
    <path d="M80.9525 53.2925H83.215C83.3665 53.2827 83.5085 53.2156 83.6123 53.1048C83.7161 52.9941 83.7739 52.848 83.7739 52.6962C83.7739 52.5444 83.7161 52.3984 83.6123 52.2876C83.5085 52.1769 83.3665 52.1098 83.215 52.1H80.9525C80.801 52.1098 80.659 52.1769 80.5552 52.2876C80.4514 52.3984 80.3936 52.5444 80.3936 52.6962C80.3936 52.848 80.4514 52.9941 80.5552 53.1048C80.659 53.2156 80.801 53.2827 80.9525 53.2925Z"
          fill="#939598"/>
    <path d="M94.1325 53.2925C94.284 53.2827 94.426 53.2156 94.5298 53.1048C94.6336 52.9941 94.6914 52.848 94.6914 52.6962C94.6914 52.5444 94.6336 52.3984 94.5298 52.2876C94.426 52.1769 94.284 52.1098 94.1325 52.1H88.6325C88.481 52.1098 88.339 52.1769 88.2352 52.2876C88.1314 52.3984 88.0736 52.5444 88.0736 52.6962C88.0736 52.848 88.1314 52.9941 88.2352 53.1048C88.339 53.2156 88.481 53.2827 88.6325 53.2925H94.1325Z"
          fill="#939598"/>
    <path d="M53.33 78.7675C53.1722 78.7675 53.0209 78.8301 52.9093 78.9417C52.7977 79.0533 52.735 79.2047 52.735 79.3625V93.9275C52.735 94.0853 52.7977 94.2366 52.9093 94.3482C53.0209 94.4598 53.1722 94.5225 53.33 94.5225C53.4878 94.5225 53.6391 94.4598 53.7507 94.3482C53.8623 94.2366 53.925 94.0853 53.925 93.9275V79.3625C53.9243 79.2049 53.8614 79.0539 53.75 78.9425C53.6386 78.831 53.4876 78.7681 53.33 78.7675Z"
          fill="#939598"/>
    <path d="M48.07 78.8649C47.993 78.8513 47.914 78.853 47.8377 78.8701C47.7613 78.8871 47.6891 78.9191 47.6252 78.9642C47.5613 79.0093 47.507 79.0666 47.4653 79.1328C47.4236 79.199 47.3955 79.2728 47.3825 79.3499L47.0625 81.1599C47.0485 81.2369 47.0499 81.316 47.0666 81.3925C47.0833 81.4689 47.115 81.5414 47.1599 81.6055C47.2047 81.6697 47.2619 81.7243 47.328 81.7662C47.3941 81.8082 47.4678 81.8366 47.545 81.8499C47.5799 81.8536 47.6151 81.8536 47.65 81.8499C47.7909 81.8493 47.9271 81.7988 48.0342 81.7072C48.1413 81.6156 48.2125 81.489 48.235 81.3499L48.5525 79.5374C48.5751 79.3846 48.5374 79.229 48.4473 79.1035C48.3573 78.978 48.222 78.8924 48.07 78.8649Z"
          fill="#939598"/>
    <path d="M46.985 85.0201C46.8299 84.9932 46.6704 85.0289 46.5416 85.1193C46.4127 85.2098 46.325 85.3476 46.2975 85.5026L45.52 89.9051C45.5063 89.9821 45.508 90.061 45.5248 90.1374C45.5417 90.2137 45.5734 90.286 45.6182 90.3501C45.663 90.4142 45.72 90.4688 45.786 90.5109C45.8519 90.5529 45.9255 90.5815 46.0025 90.5951C46.0374 90.5988 46.0726 90.5988 46.1075 90.5951C46.2484 90.5945 46.3846 90.544 46.4917 90.4524C46.5988 90.3608 46.67 90.2342 46.6925 90.0951L47.47 85.6926C47.4919 85.5395 47.4536 85.3839 47.3631 85.2585C47.2727 85.1331 47.1372 85.0477 46.985 85.0201Z"
          fill="#939598"/>
    <path d="M43.7275 77.0699C43.5809 77.0191 43.4202 77.0278 43.28 77.0942C43.1397 77.1606 43.0311 77.2793 42.9775 77.4249L37.9975 91.1124C37.9709 91.1859 37.959 91.264 37.9625 91.3421C37.966 91.4203 37.9849 91.497 38.0182 91.5678C38.0514 91.6386 38.0982 91.7022 38.156 91.7549C38.2138 91.8076 38.2814 91.8484 38.355 91.8749C38.4198 91.8988 38.4884 91.9107 38.5575 91.9099C38.6799 91.91 38.7993 91.8724 38.8995 91.8021C38.9997 91.7319 39.0759 91.6325 39.1175 91.5174L44.0975 77.8324C44.1239 77.7581 44.1352 77.6793 44.1308 77.6005C44.1265 77.5218 44.1065 77.4447 44.072 77.3737C44.0376 77.3028 43.9894 77.2394 43.9303 77.1872C43.8711 77.1351 43.8022 77.0952 43.7275 77.0699Z"
          fill="#939598"/>
    <path d="M38.585 77.9726L39.5 76.3751C39.5792 76.2385 39.601 76.076 39.5604 75.9234C39.5198 75.7708 39.4203 75.6406 39.2837 75.5613C39.1472 75.4821 38.9847 75.4604 38.8321 75.5009C38.6795 75.5415 38.5492 75.641 38.47 75.7776L37.545 77.3776C37.4667 77.5147 37.4456 77.6772 37.4864 77.8298C37.5271 77.9823 37.6263 78.1127 37.7625 78.1926C37.8533 78.244 37.9557 78.2715 38.06 78.2726C38.1663 78.2741 38.2711 78.247 38.3634 78.1943C38.4558 78.1415 38.5323 78.065 38.585 77.9726Z"
          fill="#939598"/>
    <path d="M36.155 81C36.0179 80.9217 35.8554 80.9006 35.7028 80.9413C35.5503 80.982 35.4199 81.0812 35.34 81.2174L33.09 85.105C33.011 85.2419 32.9896 85.4046 33.0304 85.5574C33.0711 85.7102 33.1708 85.8405 33.3075 85.92C33.3983 85.9713 33.5007 85.9989 33.605 86C33.7094 85.9999 33.8119 85.9724 33.9023 85.9202C33.9927 85.868 34.0678 85.7929 34.12 85.7025L36.37 81.815C36.4492 81.6783 36.471 81.5158 36.4307 81.3631C36.3904 81.2104 36.2913 81.0798 36.155 81Z"
          fill="#939598"/>
    <path d="M35.825 72.385C35.7651 72.3345 35.6959 72.2963 35.6212 72.2726C35.5466 72.2488 35.468 72.2401 35.3899 72.2468C35.3119 72.2536 35.2359 72.2756 35.1665 72.3118C35.097 72.348 35.0353 72.3975 34.985 72.4575L25.6275 83.615C25.5261 83.736 25.4768 83.8924 25.4907 84.0497C25.5045 84.207 25.5802 84.3523 25.7012 84.4538C25.8223 84.5552 25.9786 84.6045 26.1359 84.5906C26.2932 84.5768 26.4386 84.501 26.54 84.38L35.8975 73.2225C35.9988 73.1018 36.048 72.9458 36.0345 72.7888C36.0209 72.6318 35.9455 72.4866 35.825 72.385Z"
          fill="#939598"/>
    <path d="M29.8275 71.3325C29.8835 71.4019 29.9543 71.458 30.0348 71.4965C30.1152 71.535 30.2033 71.555 30.2925 71.555C30.4282 71.5552 30.5599 71.5084 30.665 71.4225L32.085 70.28C32.208 70.1805 32.2864 70.0363 32.3031 69.879C32.3197 69.7217 32.2732 69.5642 32.1737 69.4412C32.0743 69.3183 31.93 69.2398 31.7728 69.2232C31.6155 69.2065 31.458 69.253 31.335 69.3525L29.9175 70.5C29.7964 70.5993 29.7191 70.7422 29.7023 70.8978C29.6854 71.0535 29.7304 71.2096 29.8275 71.3325Z"
          fill="#939598"/>
    <path d="M27.3525 73.3225C27.3037 73.2613 27.2432 73.2103 27.1745 73.1726C27.1059 73.1349 27.0304 73.1111 26.9525 73.1028C26.8746 73.0944 26.7959 73.1015 26.7208 73.1238C26.6457 73.1461 26.5757 73.183 26.515 73.2325L23.0625 76C22.9399 76.0994 22.8617 76.2433 22.8448 76.4002C22.828 76.5571 22.8739 76.7143 22.9725 76.8375C23.0281 76.9074 23.0989 76.9637 23.1794 77.0022C23.26 77.0408 23.3482 77.0605 23.4375 77.06C23.5728 77.0601 23.7041 77.0143 23.81 76.93L27.26 74.155C27.382 74.0565 27.4602 73.9137 27.4776 73.7578C27.4949 73.6019 27.4499 73.4454 27.3525 73.3225Z"
          fill="#939598"/>
    <path d="M30 65.2775C29.9609 65.2096 29.9088 65.15 29.8466 65.1023C29.7844 65.0546 29.7134 65.0196 29.6377 64.9994C29.562 64.9792 29.483 64.9741 29.4053 64.9845C29.3276 64.9949 29.2528 65.0206 29.185 65.06L16.5775 72.3425C16.5075 72.3803 16.4457 72.4318 16.396 72.4939C16.3462 72.5559 16.3094 72.6274 16.2877 72.7039C16.266 72.7805 16.2599 72.8607 16.2697 72.9396C16.2796 73.0186 16.3051 73.0948 16.345 73.1637C16.3848 73.2326 16.438 73.2928 16.5015 73.3408C16.565 73.3888 16.6374 73.4235 16.7146 73.443C16.7918 73.4625 16.872 73.4663 16.9507 73.4541C17.0293 73.442 17.1048 73.4143 17.1725 73.3725L29.78 66.09C29.8478 66.0511 29.9073 65.9992 29.9551 65.9374C30.0028 65.8755 30.0379 65.8048 30.0584 65.7293C30.0788 65.6539 30.0842 65.5751 30.0741 65.4976C30.0641 65.4201 30.0389 65.3453 30 65.2775Z"
          fill="#939598"/>
    <path d="M26.83 60.9025L25.1725 61.5C25.0403 61.5475 24.9292 61.6402 24.8587 61.7617C24.7883 61.8832 24.7631 62.0257 24.7877 62.164C24.8122 62.3023 24.8849 62.4275 24.9928 62.5173C25.1008 62.6072 25.237 62.656 25.3775 62.655C25.4467 62.6547 25.5153 62.642 25.58 62.6175L27.2375 62.015C27.386 61.961 27.507 61.8502 27.5738 61.707C27.6406 61.5637 27.6478 61.3998 27.5938 61.2513C27.5397 61.1028 27.4289 60.9818 27.2857 60.915C27.1424 60.8482 26.9785 60.841 26.83 60.895V60.9025Z"
          fill="#939598"/>
    <path d="M21.2025 62.9526L17.1775 64.4176C17.0453 64.465 16.9341 64.5577 16.8637 64.6792C16.7933 64.8007 16.7681 64.9433 16.7927 65.0815C16.8172 65.2198 16.8899 65.345 16.9978 65.4348C17.1058 65.5247 17.242 65.5735 17.3825 65.5725C17.4517 65.5722 17.5203 65.5595 17.585 65.5351L21.61 64.0701C21.6856 64.045 21.7553 64.005 21.8152 63.9525C21.875 63.9 21.9237 63.836 21.9584 63.7644C21.9931 63.6927 22.013 63.6148 22.017 63.5353C22.021 63.4557 22.009 63.3762 21.9818 63.3014C21.9545 63.2266 21.9125 63.1581 21.8582 63.0998C21.804 63.0415 21.7386 62.9948 21.6659 62.9622C21.5932 62.9297 21.5148 62.9121 21.4352 62.9104C21.3556 62.9087 21.2764 62.9231 21.2025 62.9526Z"
          fill="#939598"/>
    <path d="M26.955 56.6075C26.9275 56.4518 26.8395 56.3133 26.7102 56.2224C26.5809 56.1315 26.4208 56.0956 26.265 56.1225L11.9275 58.6525C11.779 58.6762 11.6449 58.7553 11.5523 58.8738C11.4598 58.9924 11.4155 59.1416 11.4285 59.2914C11.4415 59.4413 11.5107 59.5806 11.6223 59.6815C11.7339 59.7823 11.8796 59.8372 12.03 59.835C12.0641 59.8385 12.0984 59.8385 12.1325 59.835L26.4725 57.305C26.5504 57.2918 26.6249 57.2631 26.6916 57.2207C26.7582 57.1782 26.8158 57.1229 26.8607 57.0579C26.9057 56.9929 26.9372 56.9196 26.9534 56.8422C26.9696 56.7649 26.9701 56.685 26.955 56.6075Z"
          fill="#939598"/>
    <path d="M59.5975 81.1599L59.2775 79.3499C59.2503 79.1945 59.1625 79.0561 59.0333 78.9654C58.9041 78.8747 58.7442 78.839 58.5887 78.8662C58.4333 78.8934 58.2949 78.9812 58.2042 79.1104C58.1135 79.2395 58.0778 79.3995 58.105 79.5549L58.425 81.3674C58.4475 81.5066 58.5186 81.6332 58.6258 81.7247C58.7329 81.8163 58.8691 81.8669 59.01 81.8674C59.0449 81.871 59.0801 81.871 59.115 81.8674C59.1938 81.854 59.2691 81.8248 59.3363 81.7816C59.4036 81.7385 59.4615 81.6822 59.5065 81.6162C59.5515 81.5501 59.5828 81.4757 59.5984 81.3973C59.6141 81.3189 59.6137 81.2382 59.5975 81.1599Z"
          fill="#939598"/>
    <path d="M60.3625 85.4999C60.335 85.3444 60.2468 85.2062 60.1174 85.1158C59.988 85.0253 59.828 84.9899 59.6725 85.0174C59.517 85.0449 59.3788 85.1331 59.2883 85.2625C59.1979 85.3919 59.1625 85.5519 59.19 85.7074L59.965 90.1099C59.9875 90.249 60.0587 90.3756 60.1658 90.4672C60.2729 90.5588 60.4091 90.6093 60.55 90.6099C60.5849 90.6136 60.6201 90.6136 60.655 90.6099C60.7322 90.5966 60.8059 90.5682 60.872 90.5263C60.9381 90.4843 60.9953 90.4297 61.0401 90.3655C61.085 90.3014 61.1167 90.2289 61.1334 90.1525C61.1501 90.076 61.1515 89.9969 61.1375 89.9199L60.3625 85.4999Z"
          fill="#939598"/>
    <path d="M63.6925 77.425C63.6352 77.2812 63.5241 77.1654 63.3829 77.1022C63.2417 77.0389 63.0813 77.0332 62.9359 77.0862C62.7905 77.1393 62.6715 77.2468 62.6041 77.3861C62.5368 77.5255 62.5263 77.6856 62.575 77.8325L67.555 91.5175C67.5962 91.6323 67.6719 91.7317 67.7716 91.8019C67.8714 91.8722 67.9905 91.9099 68.1125 91.91C68.1824 91.9107 68.2518 91.8989 68.3175 91.875C68.4656 91.8209 68.5863 91.7102 68.6528 91.5672C68.7194 91.4242 68.7265 91.2607 68.6725 91.1125L63.6925 77.425Z"
          fill="#939598"/>
    <path d="M68.1825 75.7775C68.0985 75.6504 67.9692 75.5601 67.8209 75.5252C67.6726 75.4903 67.5165 75.5133 67.3846 75.5896C67.2527 75.6659 67.155 75.7898 67.1114 75.9358C67.0678 76.0818 67.0816 76.2389 67.15 76.375L68.075 77.9725C68.1267 78.0636 68.2016 78.1393 68.292 78.192C68.3825 78.2447 68.4853 78.2725 68.59 78.2725C68.6944 78.2721 68.7969 78.2445 68.8875 78.1925C69.0242 78.1131 69.1239 77.9827 69.1646 77.83C69.2054 77.6772 69.184 77.5145 69.105 77.3775L68.1825 75.7775Z"
          fill="#939598"/>
    <path d="M71.3175 81.21C71.2383 81.0734 71.108 80.9739 70.9554 80.9333C70.8028 80.8927 70.6403 80.9145 70.5038 80.9937C70.3672 81.0729 70.2676 81.2032 70.2271 81.3558C70.1865 81.5084 70.2083 81.6709 70.2875 81.8075L72.5375 85.695C72.5897 85.7854 72.6648 85.8604 72.7552 85.9127C72.8456 85.9649 72.9481 85.9924 73.0525 85.9925C73.1569 85.992 73.2594 85.9645 73.35 85.9125C73.4867 85.833 73.5864 85.7027 73.6271 85.5499C73.6679 85.3971 73.6465 85.2344 73.5675 85.0975L71.3175 81.21Z"
          fill="#939598"/>
    <path d="M71.6725 72.4575C71.5711 72.3365 71.4257 72.2607 71.2684 72.2469C71.1111 72.2331 70.9548 72.2823 70.8338 72.3838C70.7128 72.4852 70.637 72.6306 70.6232 72.7879C70.6093 72.9451 70.6586 73.1015 70.76 73.2225L80.12 84.38C80.2216 84.5003 80.3665 84.5757 80.5233 84.5898C80.6802 84.6038 80.8362 84.5554 80.9575 84.455C81.0786 84.3534 81.1544 84.2079 81.1685 84.0505C81.1825 83.8931 81.1337 83.7365 81.0325 83.615L71.6725 72.4575Z"
          fill="#939598"/>
    <path d="M74.4825 69.445C74.4336 69.5059 74.3971 69.5758 74.3753 69.6507C74.3534 69.7256 74.3466 69.8042 74.3552 69.8818C74.3638 69.9594 74.3876 70.0345 74.4253 70.1028C74.4631 70.1712 74.5139 70.2314 74.575 70.28L75.995 71.4225C76.0999 71.5088 76.2317 71.5557 76.3675 71.555C76.4566 71.5547 76.5446 71.5345 76.625 71.496C76.7054 71.4576 76.7763 71.4017 76.8325 71.3325C76.9311 71.2108 76.9777 71.0552 76.9623 70.8993C76.9468 70.7435 76.8705 70.6 76.75 70.5L75.33 69.3575C75.269 69.3067 75.1985 69.2685 75.1225 69.2454C75.0466 69.2222 74.9668 69.2145 74.8878 69.2226C74.8088 69.2308 74.7323 69.2547 74.6627 69.2929C74.5931 69.3311 74.5318 69.3828 74.4825 69.445Z"
          fill="#939598"/>
    <path d="M83.595 76L80.1425 73.2275C80.0195 73.128 79.862 73.0815 79.7048 73.0982C79.5475 73.1148 79.4032 73.1933 79.3038 73.3162C79.2043 73.4392 79.1578 73.5967 79.1744 73.754C79.1911 73.9113 79.2695 74.0555 79.3925 74.155L82.845 76.93C82.9683 77.0294 83.1261 77.0758 83.2836 77.059C83.4412 77.0421 83.5856 76.9633 83.685 76.84C83.7845 76.7167 83.8309 76.5589 83.814 76.4014C83.7971 76.2438 83.7183 76.0994 83.595 76Z"
          fill="#939598"/>
    <path d="M90.0825 72.3425L77.4725 65.06C77.4048 65.0182 77.3293 64.9905 77.2507 64.9784C77.172 64.9663 77.0918 64.97 77.0146 64.9895C76.9374 65.009 76.865 65.0437 76.8015 65.0917C76.738 65.1397 76.6847 65.1999 76.6449 65.2688C76.6051 65.3377 76.5796 65.4139 76.5697 65.4929C76.5599 65.5719 76.566 65.652 76.5877 65.7286C76.6093 65.8051 76.6462 65.8766 76.696 65.9387C76.7457 66.0007 76.8075 66.0522 76.8775 66.09L89.5 73.3725C89.5901 73.4256 89.6929 73.4533 89.7975 73.4525C89.9284 73.4524 90.0556 73.4091 90.1594 73.3294C90.2632 73.2497 90.3378 73.138 90.3717 73.0115C90.4056 72.8851 90.3969 72.751 90.3468 72.6301C90.2968 72.5091 90.2083 72.4081 90.095 72.3425H90.0825Z"
          fill="#939598"/>
    <path d="M79.4225 62.0225L81.08 62.625C81.1447 62.6497 81.2133 62.6624 81.2825 62.6625C81.4227 62.6628 81.5586 62.6136 81.6661 62.5236C81.7736 62.4335 81.8458 62.3084 81.87 62.1702C81.8942 62.0321 81.8689 61.8899 81.7984 61.7686C81.728 61.6474 81.617 61.5549 81.485 61.5075L79.83 60.9025C79.6815 60.8485 79.5176 60.8556 79.3743 60.9224C79.2311 60.9892 79.1203 61.1102 79.0663 61.2587C79.0122 61.4073 79.0194 61.5712 79.0862 61.7144C79.153 61.8576 79.274 61.9685 79.4225 62.0225Z"
          fill="#939598"/>
    <path d="M89.0725 65.5351C89.2194 65.5838 89.3795 65.5733 89.5188 65.5059C89.6581 65.4385 89.7657 65.3195 89.8187 65.1741C89.8717 65.0287 89.866 64.8684 89.8028 64.7272C89.7396 64.5859 89.6238 64.4749 89.48 64.4176L85.455 62.9526C85.381 62.9231 85.3019 62.9087 85.2223 62.9104C85.1427 62.9121 85.0643 62.9297 84.9916 62.9622C84.9189 62.9948 84.8535 63.0415 84.7993 63.0998C84.745 63.1581 84.703 63.2266 84.6757 63.3014C84.6485 63.3762 84.6365 63.4557 84.6405 63.5353C84.6445 63.6148 84.6644 63.6927 84.6991 63.7644C84.7338 63.836 84.7825 63.9 84.8423 63.9525C84.9022 64.005 84.9719 64.045 85.0475 64.0701L89.0725 65.5351Z"
          fill="#939598"/>
    <path d="M94.7325 58.6525L80.3925 56.1225C80.237 56.0953 80.0771 56.131 79.9479 56.2217C79.8188 56.3124 79.7309 56.4507 79.7038 56.6062C79.6766 56.7617 79.7123 56.9216 79.803 57.0508C79.8937 57.18 80.032 57.2678 80.1875 57.295L94.525 59.825C94.5599 59.8287 94.5951 59.8287 94.63 59.825C94.7804 59.8272 94.926 59.7723 95.0376 59.6715C95.1492 59.5706 95.2185 59.4313 95.2315 59.2814C95.2445 59.1316 95.2002 58.9824 95.1077 58.8638C95.0151 58.7453 94.881 58.6662 94.7325 58.6425V58.6525Z"
          fill="#939598"/>
    <path d="M97.6225 115.735L88.7175 107.942C88.2129 107.498 87.8256 106.935 87.59 106.305L85.46 100.542C85.3558 100.259 85.2845 99.9647 85.2475 99.665C85.2533 99.5935 85.2465 99.5216 85.2275 99.4525C85.191 98.9557 85.2469 98.4564 85.3925 97.98L86.905 93.1275C86.9132 93.0997 86.9191 93.0713 86.9225 93.0425C92.7317 88.104 97.4008 81.9645 100.608 75.0473C103.815 68.1301 105.484 60.5996 105.5 52.975C105.5 24.0275 81.9575 0.474976 53.02 0.474976C24.0825 0.474976 0.540009 24.0275 0.540009 52.975C0.555803 60.7862 2.3069 68.4963 5.66673 75.548C9.02656 82.5997 13.9112 88.8168 19.9675 93.75L21.25 97.98C21.51 98.8182 21.4872 99.7186 21.185 100.542L19.0525 106.305C18.8188 106.936 18.4312 107.499 17.925 107.942L9.02001 115.735C8.7892 115.953 8.60537 116.216 8.47983 116.507C8.35429 116.799 8.2897 117.113 8.29001 117.43C8.27224 117.755 8.32119 118.079 8.43385 118.384C8.54651 118.689 8.72048 118.967 8.94501 119.202C13.8575 124 35.92 125.75 53.3225 125.775C70.7225 125.742 92.785 124.005 97.6975 119.202C97.9221 118.967 98.096 118.689 98.2087 118.384C98.3213 118.079 98.3703 117.755 98.3525 117.43C98.3528 117.113 98.2882 116.799 98.1627 116.507C98.0372 116.216 97.8533 115.953 97.6225 115.735ZM1.73001 52.975C1.73001 24.6825 24.73 1.66498 53.02 1.66498C81.31 1.66498 104.31 24.6825 104.31 52.975C104.295 61.0524 102.381 69.0131 98.7227 76.2146C95.0644 83.4161 89.7643 89.6566 83.25 94.4325C79.4375 97.22 67.575 99.02 53.025 99.02C38.475 99.02 26.61 97.22 22.8 94.4325C16.2839 89.6577 10.9818 83.4176 7.32177 76.216C3.66172 69.0145 1.74625 61.0532 1.73001 52.975ZM22.0925 95.395C25.13 97.615 35.055 100.21 53.02 100.21C70.985 100.21 80.9075 97.615 83.9475 95.395C84.3925 95.07 84.8308 94.7366 85.2625 94.395L84.2625 97.6225C84.1086 98.1238 84.0319 98.6456 84.035 99.17C64.0225 105.042 43.925 105.04 22.6225 99.17C22.626 98.648 22.5493 98.1286 22.395 97.63L21.605 95.0225C21.7625 95.145 21.925 95.2725 22.0925 95.395ZM22.3 100.955C22.3708 100.762 22.4292 100.565 22.475 100.365C33.175 103.302 43.5775 104.772 53.82 104.772C64.0947 104.762 74.3149 103.281 84.17 100.375C84.2164 100.571 84.274 100.765 84.3425 100.955L86.475 106.72C86.5 106.79 86.5375 106.855 86.565 106.925C64.9 113.322 43.1475 113.322 20.0775 106.925C20.1075 106.855 20.1425 106.79 20.1675 106.72L22.3 100.955ZM96.865 118.35C93.0925 122.04 75.5925 124.545 53.3225 124.585C31.05 124.545 13.55 122.04 9.77751 118.35C9.56501 118.105 9.45806 117.786 9.48001 117.462C9.47631 117.309 9.50313 117.157 9.55892 117.014C9.61472 116.871 9.69837 116.74 9.80501 116.63L18.71 108.837C18.9982 108.582 19.2573 108.295 19.4825 107.982C19.5204 108.001 19.5597 108.017 19.6 108.03C31.3 111.28 42.6625 112.917 53.85 112.917C65.136 112.909 76.3603 111.252 87.1675 108C87.3904 108.311 87.6479 108.595 87.935 108.847L96.8375 116.64C96.9444 116.75 97.0282 116.88 97.084 117.023C97.1398 117.166 97.1665 117.319 97.1625 117.472C97.1815 117.793 97.0748 118.107 96.865 118.35Z"
          fill="#939598"/>
</svg>
