<svg width="106" height="126" viewBox="0 0 106 126" fill="none" xmlns="http://www.w3.org/2000/svg">
<path d="M56.3075 68.9424L54.38 68.2249C54.3543 68.2149 54.3312 68.1991 54.3125 68.1787C54.2939 68.1583 54.2802 68.1339 54.2725 68.1074L53.605 65.5949C53.5964 65.5291 53.5639 65.4687 53.5136 65.4254C53.4633 65.382 53.3989 65.3587 53.3325 65.3599H53.31C53.2436 65.3587 53.1792 65.382 53.1289 65.4254C53.0786 65.4687 53.0461 65.5291 53.0375 65.5949L52.37 68.1074C52.3623 68.1339 52.3486 68.1583 52.33 68.1787C52.3113 68.1991 52.2882 68.2149 52.2625 68.2249L50.335 68.9424C50.2702 68.9532 50.2113 68.9866 50.1688 69.0367C50.1263 69.0869 50.103 69.1504 50.103 69.2162C50.103 69.2819 50.1263 69.3455 50.1688 69.3956C50.2113 69.4457 50.2702 69.4791 50.335 69.4899L52.2625 70.2099C52.2887 70.2192 52.3121 70.2348 52.3309 70.2553C52.3496 70.2758 52.363 70.3005 52.37 70.3274L53.0375 72.8274C53.0461 72.8932 53.0786 72.9536 53.1289 72.9969C53.1792 73.0403 53.2436 73.0636 53.31 73.0624H53.3325C53.3989 73.0636 53.4633 73.0403 53.5136 72.9969C53.5639 72.9536 53.5964 72.8932 53.605 72.8274L54.2725 70.3274C54.2795 70.3005 54.2929 70.2758 54.3116 70.2553C54.3304 70.2348 54.3538 70.2192 54.38 70.2099L56.3075 69.4899C56.3723 69.4791 56.4312 69.4457 56.4737 69.3956C56.5162 69.3455 56.5395 69.2819 56.5395 69.2162C56.5395 69.1504 56.5162 69.0869 56.4737 69.0367C56.4312 68.9866 56.3723 68.9532 56.3075 68.9424Z" fill="#939598"/>
<path d="M71.195 60.37C70.0775 60.37 70.075 62.12 71.195 62.12C72.315 62.12 72.315 60.37 71.195 60.37Z" fill="#939598"/>
<path d="M64.25 65.5C62.58 65.5 62.5775 68.0975 64.25 68.0975C65.9225 68.0975 65.935 65.5 64.25 65.5Z" fill="#939598"/>
<path d="M43.2675 64.6475C40.5175 64.6475 40.5175 68.935 43.2675 68.935C46.0175 68.935 46.03 64.6475 43.2675 64.6475Z" fill="#939598"/>
<path d="M37.9275 61.6475L36.6775 61.1775C36.6606 61.171 36.6454 61.1606 36.6332 61.1472C36.621 61.1337 36.6122 61.1175 36.6075 61.1L36.1725 59.4575C36.1659 59.4147 36.144 59.3757 36.111 59.3477C36.0779 59.3196 36.0358 59.3045 35.9925 59.305H35.9775C35.9345 59.3046 35.8927 59.3198 35.8601 59.3479C35.8274 59.3759 35.8061 59.4149 35.8 59.4575L35.3625 61.1C35.3582 61.1177 35.3495 61.1341 35.3373 61.1476C35.3251 61.1611 35.3097 61.1714 35.2925 61.1775L34.0425 61.6475C33.9994 61.6525 33.9598 61.6735 33.9316 61.7064C33.9033 61.7393 33.8885 61.7817 33.89 61.825C33.889 61.8685 33.9039 61.9108 33.932 61.944C33.9601 61.9772 33.9994 61.9989 34.0425 62.005L35.2925 62.475C35.3096 62.4805 35.325 62.4902 35.3373 62.5034C35.3495 62.5165 35.3582 62.5326 35.3625 62.55L35.8 64.1925C35.8055 64.2354 35.8267 64.2746 35.8595 64.3028C35.8923 64.3309 35.9343 64.346 35.9775 64.345H35.9925C36.036 64.3461 36.0783 64.3311 36.1115 64.303C36.1447 64.2749 36.1664 64.2356 36.1725 64.1925L36.6075 62.55C36.6122 62.5328 36.621 62.5169 36.6332 62.5038C36.6454 62.4908 36.6606 62.4809 36.6775 62.475L37.9275 62.005C37.9706 61.9989 38.0099 61.9772 38.038 61.944C38.0661 61.9108 38.0811 61.8685 38.08 61.825C38.0816 61.7817 38.0667 61.7393 38.0385 61.7064C38.0102 61.6735 37.9706 61.6525 37.9275 61.6475Z" fill="#939598"/>
<path d="M49.9675 35.41L51.895 36.1275C51.9207 36.1371 51.9437 36.1529 51.9619 36.1733C51.9802 36.1938 51.9933 36.2184 52 36.245L52.6675 38.75C52.6777 38.8156 52.711 38.8753 52.7615 38.9184C52.8119 38.9616 52.8761 38.9852 52.9425 38.985H52.9625C53.0313 38.9894 53.0991 38.9676 53.1525 38.924C53.2058 38.8804 53.2407 38.8182 53.25 38.75L53.905 36.25C53.9127 36.2235 53.9264 36.1991 53.9451 36.1787C53.9637 36.1583 53.9868 36.1425 54.0125 36.1325L55.9375 35.415C56.0035 35.4058 56.0639 35.3728 56.1072 35.3221C56.1505 35.2714 56.1738 35.2066 56.1725 35.14C56.1742 35.0735 56.1511 35.0087 56.1077 34.9583C56.0642 34.9079 56.0036 34.8755 55.9375 34.8675L54.0125 34.1475C53.9866 34.1378 53.9633 34.1221 53.9446 34.1017C53.9259 34.0812 53.9124 34.0567 53.905 34.03L53.2375 31.53C53.2283 31.4639 53.1953 31.4036 53.1446 31.3603C53.0939 31.317 53.0292 31.2937 52.9625 31.295H52.9425C52.876 31.2943 52.8115 31.3177 52.7609 31.3609C52.7104 31.4041 52.6772 31.4642 52.6675 31.53L52 34.03C51.9937 34.0568 51.9808 34.0815 51.9624 34.1021C51.9441 34.1226 51.9209 34.1382 51.895 34.1475L49.9675 34.8675C49.9017 34.8756 49.8413 34.908 49.7982 34.9585C49.7552 35.0089 49.7326 35.0737 49.735 35.14C49.7344 35.2055 49.7576 35.2691 49.8004 35.3188C49.8432 35.3685 49.9026 35.4009 49.9675 35.41Z" fill="#939598"/>
<path d="M35.08 43.9825C36.1975 43.9825 36.1975 42.2325 35.08 42.2325C33.9625 42.2325 33.96 43.9825 35.08 43.9825Z" fill="#939598"/>
<path d="M42.0125 38.86C43.685 38.86 43.6875 36.2599 42.0125 36.2599C40.3375 36.2599 40.34 38.86 42.0125 38.86Z" fill="#939598"/>
<path d="M63 39.705C65.75 39.705 65.75 35.4175 63 35.4175C60.25 35.4175 60.25 39.705 63 39.705Z" fill="#939598"/>
<path d="M68.3475 42.705L69.5975 43.175C69.6142 43.1814 69.6291 43.1918 69.6409 43.2053C69.6526 43.2188 69.6609 43.235 69.665 43.2525L70.1025 44.8925C70.1086 44.9357 70.1302 44.9753 70.1633 45.0039C70.1964 45.0324 70.2388 45.0479 70.2825 45.0475H70.295C70.3387 45.0479 70.3811 45.0324 70.4142 45.0039C70.4473 44.9753 70.4689 44.9357 70.475 44.8925L70.91 43.2525C70.9147 43.2349 70.9235 43.2188 70.9357 43.2053C70.9479 43.1918 70.9631 43.1814 70.98 43.175L72.23 42.705C72.2729 42.6994 72.3121 42.6782 72.3403 42.6454C72.3684 42.6127 72.3835 42.5706 72.3825 42.5275C72.3836 42.484 72.3686 42.4416 72.3405 42.4085C72.3124 42.3753 72.2731 42.3536 72.23 42.3475L70.98 41.8775C70.9628 41.8713 70.9474 41.8611 70.9352 41.8475C70.923 41.834 70.9143 41.8177 70.91 41.8L70.475 40.16C70.4689 40.1167 70.4473 40.0771 70.4142 40.0485C70.3811 40.02 70.3387 40.0045 70.295 40.005H70.2825C70.2388 40.0045 70.1964 40.02 70.1633 40.0485C70.1302 40.0771 70.1086 40.1167 70.1025 40.16L69.665 41.8C69.6611 41.8175 69.6529 41.8338 69.6411 41.8473C69.6293 41.8608 69.6143 41.8712 69.5975 41.8775L68.3475 42.3475C68.3044 42.3536 68.2651 42.3753 68.237 42.4085C68.2089 42.4416 68.194 42.484 68.195 42.5275C68.194 42.5706 68.2091 42.6127 68.2372 42.6454C68.2654 42.6782 68.3047 42.6994 68.3475 42.705Z" fill="#939598"/>
<path d="M53.3877 55.2451C55.0638 55.2416 56.4198 53.8799 56.4163 52.2037C56.4128 50.5276 55.0511 49.1716 53.3749 49.1751C51.6988 49.1786 50.3428 50.5403 50.3463 52.2165C50.3498 53.8926 51.7115 55.2486 53.3877 55.2451Z" fill="#939598"/>
<path d="M53.3825 76.6475C58.2169 76.65 62.9435 75.2187 66.9643 72.5346C70.9851 69.8505 74.1196 66.0342 75.9713 61.5684C77.8229 57.1027 78.3086 52.1881 77.3667 47.4463C76.4249 42.7045 74.098 38.3485 70.6802 34.9294C67.2625 31.5102 62.9075 29.1815 58.1661 28.2377C53.4247 27.294 48.5099 27.7776 44.0434 29.6274C39.5769 31.4773 35.7593 34.6102 33.0735 38.6299C30.3878 42.6496 28.9545 47.3756 28.955 52.21C28.9616 58.6875 31.537 64.8979 36.1164 69.4791C40.6957 74.0603 46.905 76.6383 53.3825 76.6475ZM60.6325 52.21C60.6325 57.025 57.5875 60.96 53.7725 61.21C53.63 61.21 53.4875 61.21 53.3475 61.21C49.375 61.18 46.1525 57.1475 46.1525 52.1925C46.1525 47.2375 49.375 43.1925 53.3475 43.1725C53.4875 43.1725 53.63 43.1725 53.7725 43.1725C57.5775 43.4475 60.6225 47.3925 60.6225 52.21H60.6325ZM57.8825 43.575C63.845 44.56 69.8825 47.4525 75.8825 52.21C69.8825 56.96 63.8525 59.8575 57.8825 60.8425C60.245 59.0325 61.8175 55.8425 61.8175 52.21C61.8175 48.5775 60.25 45.3875 57.8775 43.575H57.8825ZM44.9575 52.21C44.9575 55.87 46.5575 59.0875 48.9575 60.89C42.935 59.945 36.8775 57.0325 30.8975 52.21C36.8775 47.385 42.935 44.46 48.9575 43.53C46.5525 45.3325 44.9525 48.5475 44.9525 52.21H44.9575ZM53.3875 75.46C47.3901 75.4517 41.6275 73.1279 37.3021 68.9734C32.9767 64.819 30.4225 59.1547 30.1725 53.1625C37.5958 59.1425 45.0825 62.2159 52.6325 62.3825C52.8815 62.4104 53.1319 62.4246 53.3825 62.425C53.6599 62.4248 53.9371 62.4081 54.2125 62.375C61.6625 62.14 69.1242 59.0675 76.5975 53.1575C76.3475 59.1497 73.7933 64.814 69.4679 68.9684C65.1425 73.1229 59.3799 75.4467 53.3825 75.455L53.3875 75.46ZM53.3875 28.96C59.3857 28.9684 65.149 31.2929 69.4746 35.4484C73.8001 39.604 76.3537 45.2695 76.6025 51.2625C69.1425 45.3525 61.6808 42.28 54.2175 42.045C53.9421 42.012 53.6649 41.9953 53.3875 41.995C53.1369 41.9955 52.8865 42.0097 52.6375 42.0375C45.1025 42.2042 37.6158 45.2775 30.1775 51.2575C30.4281 45.2675 32.9811 39.6054 37.3043 35.4517C41.6276 31.298 47.3872 28.9734 53.3825 28.9625L53.3875 28.96Z" fill="#939598"/>
<path d="M97.6225 115.735L88.7175 107.942C88.2129 107.498 87.8256 106.935 87.59 106.305L85.46 100.542C85.3558 100.259 85.2845 99.9647 85.2475 99.665C85.2533 99.5935 85.2465 99.5216 85.2275 99.4525C85.191 98.9557 85.2469 98.4564 85.3925 97.98L86.905 93.1275C86.9132 93.0997 86.9191 93.0713 86.9225 93.0425C92.7317 88.104 97.4008 81.9645 100.608 75.0473C103.815 68.1301 105.484 60.5996 105.5 52.975C105.5 24.0275 81.9575 0.474976 53.02 0.474976C24.0825 0.474976 0.540009 24.0275 0.540009 52.975C0.555803 60.7862 2.3069 68.4963 5.66673 75.548C9.02656 82.5997 13.9112 88.8168 19.9675 93.75L21.25 97.98C21.51 98.8182 21.4872 99.7186 21.185 100.542L19.0525 106.305C18.8188 106.936 18.4312 107.499 17.925 107.942L9.02001 115.735C8.7892 115.953 8.60537 116.216 8.47983 116.507C8.35429 116.799 8.2897 117.113 8.29001 117.43C8.27224 117.755 8.32119 118.079 8.43385 118.384C8.54651 118.689 8.72048 118.967 8.94501 119.202C13.8575 124 35.92 125.75 53.3225 125.775C70.7225 125.742 92.785 124.005 97.6975 119.202C97.9221 118.967 98.096 118.689 98.2087 118.384C98.3213 118.079 98.3703 117.755 98.3525 117.43C98.3528 117.113 98.2882 116.799 98.1627 116.507C98.0372 116.216 97.8533 115.953 97.6225 115.735ZM1.73001 52.975C1.73001 24.6825 24.73 1.66498 53.02 1.66498C81.31 1.66498 104.31 24.6825 104.31 52.975C104.295 61.0524 102.381 69.0131 98.7227 76.2146C95.0644 83.4161 89.7643 89.6566 83.25 94.4325C79.4375 97.22 67.575 99.02 53.025 99.02C38.475 99.02 26.61 97.22 22.8 94.4325C16.2839 89.6577 10.9818 83.4176 7.32177 76.216C3.66172 69.0145 1.74625 61.0532 1.73001 52.975ZM22.0925 95.395C25.13 97.615 35.055 100.21 53.02 100.21C70.985 100.21 80.9075 97.615 83.9475 95.395C84.3925 95.07 84.8308 94.7366 85.2625 94.395L84.2625 97.6225C84.1086 98.1238 84.0319 98.6456 84.035 99.17C64.0225 105.042 43.925 105.04 22.6225 99.17C22.626 98.648 22.5493 98.1286 22.395 97.63L21.605 95.0225C21.7625 95.145 21.925 95.2725 22.0925 95.395ZM22.3 100.955C22.3708 100.762 22.4292 100.565 22.475 100.365C33.175 103.302 43.5775 104.772 53.82 104.772C64.0947 104.762 74.3149 103.281 84.17 100.375C84.2164 100.571 84.274 100.765 84.3425 100.955L86.475 106.72C86.5 106.79 86.5375 106.855 86.565 106.925C64.9 113.322 43.1475 113.322 20.0775 106.925C20.1075 106.855 20.1425 106.79 20.1675 106.72L22.3 100.955ZM96.865 118.35C93.0925 122.04 75.5925 124.545 53.3225 124.585C31.05 124.545 13.55 122.04 9.77751 118.35C9.56501 118.105 9.45806 117.786 9.48001 117.462C9.47631 117.309 9.50313 117.157 9.55892 117.014C9.61472 116.871 9.69837 116.74 9.80501 116.63L18.71 108.837C18.9982 108.582 19.2573 108.295 19.4825 107.982C19.5204 108.001 19.5597 108.017 19.6 108.03C31.3 111.28 42.6625 112.917 53.85 112.917C65.136 112.909 76.3603 111.252 87.1675 108C87.3904 108.311 87.6479 108.595 87.935 108.847L96.8375 116.64C96.9444 116.75 97.0282 116.88 97.084 117.023C97.1398 117.166 97.1665 117.319 97.1625 117.472C97.1815 117.793 97.0748 118.107 96.865 118.35Z" fill="#939598"/>
</svg>
