<svg width="116" height="116" viewBox="0 0 116 116" fill="none" xmlns="http://www.w3.org/2000/svg">
<path d="M45.9895 106.448C47.7395 106.448 47.7395 103.742 45.9895 103.742C44.2395 103.742 44.2461 106.448 45.9895 106.448Z" fill="#C6C8CC"/>
<path d="M78.5833 104.479C80.3332 104.479 80.3333 101.773 78.5833 101.773C76.8333 101.773 76.8398 104.479 78.5833 104.479Z" fill="#C6C8CC"/>
<path d="M58.3652 104.398C57.0352 104.398 57.0331 106.465 58.3652 106.465C59.6974 106.465 59.6974 104.398 58.3652 104.398Z" fill="#C6C8CC"/>
<path d="M79.0202 97.6695C80.1818 97.6695 80.184 95.867 79.0202 95.867C77.8565 95.867 77.8587 97.6695 79.0202 97.6695Z" fill="#C6C8CC"/>
<path d="M56.706 73.7732C55.5466 73.7732 55.5444 75.5757 56.706 75.5757C57.8676 75.5757 57.8698 73.7732 56.706 73.7732Z" fill="#C6C8CC"/>
<path d="M81.864 37.9529C83.0255 37.9529 83.0277 36.1482 81.864 36.1482C80.7002 36.1482 80.7024 37.9529 81.864 37.9529Z" fill="#C6C8CC"/>
<path d="M56.6232 29.7738C56.6413 29.8287 56.6415 29.8879 56.6238 29.943C56.6061 29.998 56.5715 30.046 56.5248 30.0801L55.2867 30.9945C55.2407 31.0289 55.2068 31.0769 55.1897 31.1317C55.1726 31.1865 55.1732 31.2452 55.1913 31.2997C55.2095 31.3541 55.2443 31.4015 55.2908 31.435C55.3374 31.4686 55.3933 31.4866 55.4507 31.4866L56.982 31.4757C57.0397 31.4753 57.0961 31.493 57.1432 31.5264C57.1903 31.5598 57.2257 31.6071 57.2445 31.6616L57.7301 33.1251C57.7478 33.1802 57.7826 33.2283 57.8293 33.2624C57.8761 33.2965 57.9325 33.3148 57.9904 33.3148C58.0483 33.3148 58.1047 33.2965 58.1515 33.2624C58.1983 33.2283 58.233 33.1802 58.2507 33.1251L58.7145 31.6551C58.7314 31.5999 58.7656 31.5515 58.8121 31.5173C58.8586 31.483 58.9148 31.4646 58.9726 31.4648L60.5148 31.4516C60.5727 31.4519 60.6292 31.4336 60.6759 31.3994C60.7227 31.3652 60.7573 31.3169 60.7746 31.2617C60.792 31.2064 60.7912 31.1471 60.7724 31.0923C60.7536 31.0375 60.7177 30.9902 60.6701 30.9573L59.4167 30.0604C59.3695 30.0272 59.3343 29.9797 59.3162 29.925C59.2981 29.8702 59.298 29.8111 59.316 29.7563L59.7885 28.2732C59.8064 28.2182 59.8062 28.159 59.7881 28.1042C59.7699 28.0493 59.7347 28.0017 59.6876 27.9682C59.6404 27.9348 59.5839 27.9173 59.5261 27.9182C59.4683 27.9192 59.4124 27.9385 59.3664 27.9735L58.126 28.8879C58.0798 28.922 58.0238 28.9404 57.9663 28.9404C57.9089 28.9404 57.8529 28.922 57.8067 28.8879L56.5532 27.991C56.5063 27.9578 56.45 27.9402 56.3925 27.9408C56.335 27.9413 56.2791 27.96 56.2328 27.9942C56.1865 28.0284 56.1522 28.0763 56.1347 28.1311C56.1172 28.1859 56.1175 28.2448 56.1354 28.2995L56.6232 29.7738Z" fill="#C6C8CC"/>
<path d="M68.8754 88.5351C68.8935 88.59 68.8937 88.6492 68.876 88.7043C68.8583 88.7593 68.8237 88.8073 68.777 88.8414L67.5389 89.7558C67.493 89.7902 67.459 89.8382 67.4419 89.893C67.4248 89.9478 67.4254 90.0065 67.4435 90.061C67.4617 90.1154 67.4965 90.1628 67.5431 90.1963C67.5896 90.2299 67.6455 90.2479 67.7029 90.2479L69.2342 90.237C69.2919 90.2366 69.3483 90.2543 69.3954 90.2877C69.4425 90.3211 69.4779 90.3684 69.4967 90.4229L69.9823 91.8864C70 91.9415 70.0348 91.9895 70.0816 92.0236C70.1283 92.0577 70.1847 92.0761 70.2426 92.0761C70.3005 92.0761 70.3569 92.0577 70.4037 92.0236C70.4505 91.9895 70.4852 91.9415 70.5029 91.8864L70.9667 90.4164C70.9836 90.3612 71.0178 90.3128 71.0643 90.2786C71.1108 90.2443 71.167 90.2259 71.2248 90.2261L72.767 90.2129C72.8249 90.2132 72.8814 90.1949 72.9281 90.1607C72.9749 90.1265 73.0095 90.0782 73.0268 90.023C73.0442 89.9677 73.0434 89.9084 73.0246 89.8536C73.0058 89.7988 72.9699 89.7515 72.9223 89.7186L71.6689 88.8217C71.6217 88.7885 71.5865 88.741 71.5684 88.6863C71.5503 88.6315 71.5502 88.5724 71.5682 88.5176L72.0407 87.0345C72.0586 86.9796 72.0584 86.9203 72.0403 86.8655C72.0221 86.8106 71.9869 86.763 71.9398 86.7295C71.8926 86.6961 71.8361 86.6786 71.7783 86.6795C71.7205 86.6805 71.6645 86.6998 71.6186 86.7348L70.3782 87.6492C70.332 87.6833 70.276 87.7017 70.2186 87.7017C70.1611 87.7017 70.1051 87.6833 70.0589 87.6492L68.8054 86.7523C68.7585 86.7191 68.7022 86.7015 68.6447 86.7021C68.5872 86.7026 68.5313 86.7213 68.485 86.7555C68.4387 86.7897 68.4044 86.8376 68.3869 86.8924C68.3694 86.9472 68.3697 87.0061 68.3876 87.0608L68.8754 88.5351Z" fill="#C6C8CC"/>
<path d="M61.5231 48.4463L62.3085 48.4463C62.3375 48.4458 62.366 48.4547 62.3896 48.4717C62.4132 48.4886 62.4308 48.5127 62.4397 48.5404L62.6891 49.2841C62.698 49.3119 62.7155 49.3362 62.7391 49.3534C62.7627 49.3706 62.7911 49.3799 62.8203 49.3799C62.8495 49.3799 62.878 49.3706 62.9016 49.3534C62.9252 49.3362 62.9427 49.3119 62.9516 49.2841L63.1878 48.536C63.197 48.5083 63.2145 48.4841 63.238 48.4668C63.2616 48.4496 63.2899 48.4401 63.3191 48.4397L64.1044 48.4397C64.1339 48.4399 64.1627 48.4307 64.1866 48.4133C64.2104 48.3959 64.2281 48.3713 64.2369 48.3431C64.2457 48.3149 64.2452 48.2847 64.2356 48.2568C64.2259 48.2289 64.2075 48.2048 64.1832 48.1882L63.5466 47.7332C63.5226 47.7161 63.5046 47.6919 63.4952 47.664C63.4858 47.6361 63.4854 47.606 63.4941 47.5779L63.7303 46.8319C63.74 46.8034 63.7402 46.7725 63.7309 46.7438C63.7217 46.7152 63.7034 46.6902 63.6788 46.6728C63.6542 46.6554 63.6247 46.6463 63.5946 46.647C63.5644 46.6477 63.5353 46.6581 63.5116 46.6766L62.8816 47.1426C62.8578 47.1601 62.8291 47.1696 62.7996 47.1696C62.77 47.1696 62.7413 47.1601 62.7175 47.1426L62.081 46.6876C62.0576 46.667 62.0281 46.655 61.9971 46.6534C61.9661 46.6517 61.9354 46.6606 61.9101 46.6786C61.8848 46.6966 61.8663 46.7226 61.8576 46.7524C61.8489 46.7822 61.8505 46.8141 61.8622 46.8429L62.1094 47.5866C62.1189 47.6143 62.1193 47.6442 62.1107 47.6721C62.102 47.7 62.0847 47.7245 62.0613 47.7419L61.4291 48.2079C61.4089 48.2268 61.3949 48.2513 61.3888 48.2782C61.3827 48.3052 61.3849 48.3334 61.395 48.3591C61.4052 48.3848 61.4228 48.4068 61.4457 48.4224C61.4685 48.438 61.4955 48.4463 61.5231 48.4463Z" fill="#C6C8CC"/>
<path d="M46.1296 44.51L46.9149 44.51C46.944 44.5096 46.9724 44.5185 46.9961 44.5354C47.0197 44.5523 47.0373 44.5764 47.0462 44.6041L47.2955 45.3478C47.3044 45.3757 47.322 45.3999 47.3455 45.4171C47.3691 45.4344 47.3976 45.4436 47.4268 45.4436C47.456 45.4436 47.4844 45.4344 47.508 45.4171C47.5316 45.3999 47.5491 45.3757 47.558 45.3478L47.7943 44.5997C47.8034 44.572 47.821 44.5478 47.8445 44.5306C47.868 44.5133 47.8964 44.5038 47.9255 44.5035L48.7108 44.5035C48.7404 44.5037 48.7692 44.4944 48.793 44.477C48.8169 44.4596 48.8345 44.435 48.8433 44.4068C48.8521 44.3787 48.8517 44.3484 48.842 44.3205C48.8323 44.2926 48.814 44.2686 48.7896 44.2519L48.153 43.7969C48.1291 43.7798 48.1111 43.7556 48.1017 43.7277C48.0922 43.6999 48.0918 43.6697 48.1005 43.6416L48.3368 42.8957C48.3465 42.8671 48.3467 42.8362 48.3374 42.8075C48.3281 42.7789 48.3098 42.754 48.2853 42.7365C48.2607 42.7191 48.2311 42.71 48.201 42.7107C48.1709 42.7114 48.1418 42.7218 48.118 42.7403L47.488 43.2063C47.4643 43.2239 47.4355 43.2334 47.406 43.2334C47.3765 43.2334 47.3477 43.2239 47.324 43.2063L46.6874 42.7513C46.6641 42.7308 46.6346 42.7187 46.6035 42.7171C46.5725 42.7155 46.5419 42.7244 46.5166 42.7423C46.4912 42.7603 46.4727 42.7863 46.464 42.8161C46.4553 42.8459 46.457 42.8778 46.4687 42.9066L46.7158 43.6503C46.7253 43.678 46.7258 43.7079 46.7171 43.7359C46.7085 43.7638 46.6912 43.7882 46.6677 43.8057L46.0355 44.2716C46.0154 44.2905 46.0013 44.315 45.9953 44.342C45.9892 44.3689 45.9914 44.3971 46.0015 44.4228C46.0116 44.4485 46.0293 44.4706 46.0521 44.4861C46.075 44.5017 46.102 44.51 46.1296 44.51Z" fill="#C6C8CC"/>
<path d="M50.0237 80.7946L49.1072 80.1383C49.0738 80.1139 49.0488 80.0798 49.0355 80.0407C49.0221 80.0016 49.0212 79.9593 49.0328 79.9196L49.3718 78.8433C49.3842 78.8033 49.3836 78.7604 49.3701 78.7207C49.3566 78.681 49.3309 78.6466 49.2968 78.6224C49.2626 78.5982 49.2216 78.5853 49.1797 78.5857C49.1378 78.5861 49.0971 78.5997 49.0634 78.6246L48.1556 79.2961C48.1215 79.3206 48.0805 79.3337 48.0386 79.3337C47.9966 79.3337 47.9557 79.3206 47.9215 79.2961L47.0028 78.6399C46.9688 78.6172 46.9287 78.6055 46.8879 78.6061C46.8471 78.6068 46.8074 78.6198 46.7742 78.6436C46.7409 78.6673 46.7157 78.7006 46.7018 78.739C46.688 78.7774 46.6861 78.8192 46.6965 78.8586L47.0531 79.9305C47.0661 79.9697 47.0664 80.012 47.0538 80.0513C47.0412 80.0906 47.0165 80.1249 46.9831 80.1493L46.0753 80.8208C46.0407 80.8456 46.0149 80.8808 46.0017 80.9213C45.9886 80.9617 45.9888 81.0053 46.0022 81.0457C46.0157 81.0861 46.0417 81.1211 46.0765 81.1456C46.1113 81.1701 46.1531 81.1827 46.1956 81.1818L47.3243 81.1818C47.3665 81.1807 47.4078 81.1934 47.4421 81.2179C47.4764 81.2423 47.5019 81.2772 47.5147 81.3174L47.8712 82.3893C47.8849 82.4289 47.9105 82.4633 47.9446 82.4877C47.9788 82.512 48.0196 82.5251 48.0615 82.5251C48.1034 82.5251 48.1443 82.512 48.1784 82.4877C48.2126 82.4633 48.2382 82.4289 48.2519 82.3893L48.5843 81.3043C48.5977 81.2645 48.6229 81.2299 48.6565 81.2048C48.6901 81.1798 48.7306 81.1657 48.7725 81.1643L49.9012 81.1643C49.9466 81.1693 49.9923 81.1586 50.0307 81.134C50.0691 81.1094 50.0979 81.0724 50.1122 81.0291C50.1266 80.9857 50.1256 80.9388 50.1095 80.8961C50.0934 80.8535 50.0631 80.8176 50.0237 80.7946Z" fill="#C6C8CC"/>
<path d="M72.2062 42.2268L73.335 42.2268C73.377 42.2261 73.4182 42.2389 73.4524 42.2633C73.4867 42.2877 73.5122 42.3225 73.5253 42.3624L73.8818 43.4343C73.8955 43.4739 73.9211 43.5083 73.9552 43.5327C73.9894 43.557 74.0302 43.5701 74.0721 43.5701C74.1141 43.5701 74.1549 43.557 74.189 43.5327C74.2232 43.5083 74.2488 43.4739 74.2625 43.4343L74.6037 42.3581C74.6159 42.3176 74.6408 42.2822 74.6747 42.257C74.7085 42.2318 74.7496 42.2181 74.7918 42.2181L75.9206 42.2181C75.9626 42.2176 76.0033 42.2039 76.0371 42.1789C76.0708 42.1539 76.0957 42.1189 76.1083 42.0788C76.121 42.0388 76.1206 41.9958 76.1073 41.956C76.094 41.9161 76.0685 41.8815 76.0343 41.8571L75.1156 41.2009C75.0825 41.1763 75.0576 41.1421 75.0443 41.1031C75.031 41.064 75.03 41.0218 75.0412 40.9821L75.3825 39.9059C75.3948 39.8658 75.3942 39.8229 75.3807 39.7832C75.3672 39.7436 75.3415 39.7092 75.3074 39.6849C75.2732 39.6607 75.2322 39.6479 75.1903 39.6482C75.1484 39.6486 75.1077 39.6622 75.074 39.6871L74.1662 40.3587C74.1317 40.3833 74.0904 40.3965 74.0481 40.3965C74.0057 40.3965 73.9644 40.3833 73.93 40.3587L73.0134 39.7024C72.9794 39.6798 72.9394 39.668 72.8985 39.6686C72.8577 39.6693 72.818 39.6824 72.7848 39.7061C72.7515 39.7298 72.7263 39.7631 72.7125 39.8015C72.6986 39.84 72.6967 39.8817 72.7072 39.9212L73.0637 40.9931C73.0764 41.0323 73.0765 41.0745 73.0639 41.1137C73.0514 41.1529 73.0268 41.1873 72.9937 41.2118L72.0859 41.8834C72.0578 41.9098 72.038 41.9437 72.0289 41.9811C72.0197 42.0186 72.0217 42.0578 72.0344 42.0942C72.0471 42.1306 72.0701 42.1624 72.1006 42.186C72.1311 42.2095 72.1678 42.2237 72.2062 42.2268Z" fill="#C6C8CC"/>
<path d="M60.3981 72.4143L61.5268 72.4143C61.5691 72.4141 61.6103 72.4273 61.6445 72.4521C61.6787 72.4769 61.7042 72.5119 61.7172 72.5521L62.0737 73.6218C62.0874 73.6614 62.113 73.6958 62.1471 73.7201C62.1813 73.7445 62.2221 73.7576 62.264 73.7576C62.306 73.7576 62.3468 73.7445 62.3809 73.7201C62.4151 73.6958 62.4407 73.6614 62.4543 73.6218L62.7956 72.5455C62.8078 72.5051 62.8327 72.4697 62.8665 72.4444C62.9004 72.4192 62.9415 72.4056 62.9837 72.4055L64.1125 72.4055C64.1545 72.4051 64.1952 72.3914 64.2289 72.3664C64.2627 72.3414 64.2876 72.3063 64.3002 72.2663C64.3129 72.2262 64.3125 72.1832 64.2992 72.1434C64.2859 72.1036 64.2604 72.069 64.2262 72.0446L63.3097 71.3883C63.2755 71.3646 63.2499 71.3305 63.2365 71.2912C63.2231 71.2518 63.2227 71.2092 63.2353 71.1696L63.5743 70.0933C63.5867 70.0533 63.5861 70.0104 63.5726 69.9707C63.5591 69.931 63.5334 69.8966 63.4993 69.8724C63.4651 69.8481 63.4241 69.8353 63.3822 69.8357C63.3403 69.8361 63.2996 69.8497 63.2659 69.8746L62.3581 70.5439C62.3242 70.569 62.2832 70.5825 62.2411 70.5825C62.1989 70.5825 62.1579 70.569 62.124 70.5439L61.2053 69.8877C61.1715 69.8637 61.1311 69.8508 61.0897 69.8508C61.0483 69.8509 61.0079 69.8638 60.9742 69.8879C60.9405 69.912 60.9151 69.946 60.9017 69.9852C60.8882 70.0243 60.8873 70.0667 60.899 70.1064L61.2556 71.1783C61.2683 71.2175 61.2684 71.2597 61.2558 71.299C61.2432 71.3382 61.2187 71.3725 61.1856 71.3971L60.2778 72.0664C60.2483 72.0926 60.2272 72.1269 60.2172 72.165C60.2071 72.2031 60.2087 72.2434 60.2216 72.2806C60.2345 72.3179 60.2581 72.3504 60.2895 72.3742C60.321 72.398 60.3587 72.412 60.3981 72.4143Z" fill="#C6C8CC"/>
<path d="M80.9607 98.6642L82.0895 98.6642C82.1317 98.6641 82.1729 98.6773 82.2071 98.7021C82.2413 98.7269 82.2668 98.7619 82.2798 98.8021L82.6363 99.8718C82.65 99.9114 82.6756 99.9458 82.7098 99.9701C82.7439 99.9945 82.7847 100.008 82.8267 100.008C82.8686 100.008 82.9094 99.9945 82.9436 99.9701C82.9777 99.9458 83.0033 99.9114 83.017 99.8718L83.3582 98.7955C83.3704 98.7551 83.3953 98.7196 83.4292 98.6944C83.463 98.6692 83.5041 98.6556 83.5463 98.6555L84.6751 98.6555C84.7171 98.6551 84.7578 98.6414 84.7916 98.6164C84.8253 98.5914 84.8502 98.5563 84.8629 98.5163C84.8755 98.4762 84.8751 98.4332 84.8618 98.3934C84.8485 98.3536 84.823 98.319 84.7888 98.2946L83.8723 97.6383C83.8382 97.6146 83.8125 97.5805 83.7991 97.5412C83.7858 97.5018 83.7853 97.4592 83.7979 97.4196L84.137 96.3433C84.1493 96.3033 84.1487 96.2604 84.1352 96.2207C84.1217 96.181 84.0961 96.1466 84.0619 96.1224C84.0277 96.0981 83.9868 96.0853 83.9449 96.0857C83.903 96.0861 83.8623 96.0997 83.8285 96.1246L82.9207 96.7939C82.8868 96.819 82.8458 96.8325 82.8037 96.8325C82.7616 96.8325 82.7205 96.819 82.6867 96.7939L81.7679 96.1377C81.7342 96.1137 81.6937 96.1008 81.6523 96.1008C81.6109 96.1009 81.5705 96.1138 81.5368 96.1379C81.5031 96.162 81.4778 96.196 81.4643 96.2352C81.4508 96.2743 81.4499 96.3167 81.4617 96.3564L81.8182 97.4283C81.8309 97.4675 81.831 97.5097 81.8184 97.549C81.8059 97.5882 81.7813 97.6225 81.7482 97.6471L80.8404 98.3164C80.8109 98.3426 80.7898 98.3769 80.7798 98.415C80.7698 98.4531 80.7713 98.4933 80.7842 98.5306C80.7971 98.5679 80.8207 98.6004 80.8522 98.6242C80.8836 98.648 80.9214 98.662 80.9607 98.6642Z" fill="#C6C8CC"/>
<path d="M40.492 99.5392L41.6207 99.5392C41.663 99.5391 41.7042 99.5523 41.7384 99.5771C41.7726 99.6019 41.798 99.6369 41.811 99.6771L42.1676 100.747C42.1812 100.786 42.2069 100.821 42.241 100.845C42.2751 100.869 42.316 100.883 42.3579 100.883C42.3998 100.883 42.4407 100.869 42.4748 100.845C42.5089 100.821 42.5346 100.786 42.5482 100.747L42.8895 99.6705C42.9017 99.6301 42.9265 99.5946 42.9604 99.5694C42.9943 99.5442 43.0354 99.5306 43.0776 99.5305L44.2063 99.5305C44.2483 99.5301 44.2891 99.5164 44.3228 99.4914C44.3565 99.4664 44.3815 99.4313 44.3941 99.3913C44.4067 99.3512 44.4064 99.3082 44.3931 99.2684C44.3798 99.2286 44.3542 99.194 44.3201 99.1696L43.4035 98.5133C43.3694 98.4896 43.3438 98.4555 43.3304 98.4162C43.317 98.3768 43.3166 98.3342 43.3292 98.2946L43.6682 97.2183C43.6805 97.1783 43.6799 97.1354 43.6664 97.0957C43.653 97.056 43.6273 97.0216 43.5931 96.9974C43.559 96.9731 43.518 96.9603 43.4761 96.9607C43.4342 96.9611 43.3935 96.9747 43.3598 96.9996L42.452 97.6689C42.4181 97.694 42.3771 97.7075 42.3349 97.7075C42.2928 97.7075 42.2518 97.694 42.2179 97.6689L41.2992 97.0127C41.2654 96.9887 41.225 96.9758 41.1836 96.9758C41.1422 96.9759 41.1018 96.9888 41.0681 97.0129C41.0344 97.037 41.009 97.071 40.9955 97.1102C40.9821 97.1493 40.9811 97.1917 40.9929 97.2314L41.3495 98.3033C41.3622 98.3425 41.3622 98.3847 41.3497 98.424C41.3371 98.4632 41.3126 98.4975 41.2795 98.5221L40.3717 99.1914C40.3421 99.2176 40.321 99.2519 40.311 99.29C40.301 99.3281 40.3026 99.3683 40.3154 99.4056C40.3283 99.4429 40.352 99.4754 40.3834 99.4992C40.4148 99.523 40.4526 99.537 40.492 99.5392Z" fill="#C6C8CC"/>
<path d="M58.1675 63.2732C57.9659 63.2732 57.7688 63.333 57.6012 63.445C57.4336 63.557 57.3029 63.7162 57.2257 63.9025C57.1486 64.0888 57.1284 64.2937 57.1677 64.4915C57.2071 64.6892 57.3042 64.8709 57.4467 65.0134C57.5893 65.156 57.7709 65.2531 57.9686 65.2924C58.1664 65.3317 58.3713 65.3115 58.5576 65.2344C58.7439 65.1572 58.9031 65.0266 59.0151 64.8589C59.1271 64.6913 59.1869 64.4942 59.1869 64.2926C59.1869 64.0223 59.0795 63.763 58.8883 63.5718C58.6972 63.3806 58.4379 63.2732 58.1675 63.2732Z" fill="#C6C8CC"/>
<path d="M51.3863 100.679C51.1847 100.679 50.9876 100.739 50.8199 100.851C50.6523 100.963 50.5216 101.122 50.4445 101.309C50.3673 101.495 50.3472 101.7 50.3865 101.898C50.4258 102.095 50.5229 102.277 50.6655 102.42C50.808 102.562 50.9897 102.659 51.1874 102.699C51.3851 102.738 51.5901 102.718 51.7764 102.641C51.9626 102.563 52.1218 102.433 52.2338 102.265C52.3459 102.098 52.4056 101.9 52.4056 101.699C52.4056 101.428 52.2982 101.169 52.1071 100.978C51.9159 100.787 51.6566 100.679 51.3863 100.679Z" fill="#C6C8CC"/>
<path d="M65.3513 105.577C65.4627 105.578 65.5716 105.545 65.6644 105.483C65.7572 105.422 65.8296 105.334 65.8724 105.231C65.9153 105.128 65.9266 105.015 65.905 104.906C65.8833 104.797 65.8297 104.696 65.751 104.618C65.6722 104.539 65.5719 104.485 65.4626 104.464C65.3533 104.442 65.2401 104.453 65.1373 104.496C65.0345 104.539 64.9467 104.611 64.8851 104.704C64.8235 104.797 64.7908 104.906 64.7913 105.017C64.7919 105.166 64.851 105.308 64.9559 105.413C65.0608 105.518 65.2029 105.577 65.3513 105.577Z" fill="#C6C8CC"/>
<path d="M64.1175 93.417C64.2283 93.417 64.3365 93.3841 64.4286 93.3226C64.5207 93.261 64.5925 93.1736 64.6349 93.0713C64.6772 92.9689 64.6883 92.8563 64.6667 92.7477C64.6451 92.6391 64.5918 92.5393 64.5135 92.461C64.4352 92.3827 64.3354 92.3293 64.2267 92.3077C64.1181 92.2861 64.0055 92.2972 63.9032 92.3396C63.8009 92.382 63.7134 92.4537 63.6519 92.5458C63.5903 92.6379 63.5575 92.7462 63.5575 92.857C63.5572 92.9306 63.5715 93.0035 63.5995 93.0716C63.6276 93.1397 63.6688 93.2015 63.7209 93.2536C63.7729 93.3056 63.8348 93.3469 63.9029 93.3749C63.9709 93.403 64.0439 93.4172 64.1175 93.417Z" fill="#C6C8CC"/>
<path d="M51.3514 105.334C51.2401 105.334 51.1312 105.367 51.0384 105.428C50.9457 105.49 50.8733 105.577 50.8304 105.68C50.7875 105.783 50.7761 105.896 50.7975 106.005C50.819 106.114 50.8724 106.215 50.9509 106.293C51.0294 106.372 51.1296 106.426 51.2387 106.448C51.3478 106.47 51.461 106.459 51.5638 106.416C51.6667 106.374 51.7546 106.302 51.8165 106.209C51.8783 106.117 51.9114 106.008 51.9114 105.897C51.9114 105.748 51.8524 105.605 51.7475 105.5C51.6425 105.395 51.5001 105.335 51.3514 105.334Z" fill="#C6C8CC"/>
<path d="M38.2438 93.4607C38.1326 93.4603 38.0236 93.4929 37.9309 93.5544C37.8382 93.6159 37.7658 93.7035 37.7229 93.8062C37.68 93.9089 37.6686 94.022 37.69 94.1312C37.7114 94.2404 37.7648 94.3408 37.8433 94.4196C37.9219 94.4985 38.022 94.5522 38.1312 94.5741C38.2403 94.596 38.3534 94.585 38.4563 94.5425C38.5591 94.5 38.6471 94.4279 38.7089 94.3354C38.7708 94.2429 38.8038 94.1342 38.8038 94.0229C38.8038 93.8742 38.7449 93.7315 38.6399 93.6261C38.535 93.5208 38.3926 93.4613 38.2438 93.4607Z" fill="#C6C8CC"/>
<path d="M62.641 101.183C62.7517 101.182 62.8598 101.149 62.9516 101.087C63.0434 101.025 63.1148 100.938 63.1568 100.835C63.1989 100.733 63.2097 100.62 63.1878 100.512C63.166 100.404 63.1125 100.304 63.0341 100.226C62.9557 100.148 62.8559 100.095 62.7473 100.073C62.6387 100.052 62.5262 100.063 62.424 100.105C62.3218 100.148 62.2345 100.22 62.1731 100.312C62.1116 100.404 62.0788 100.512 62.0788 100.623C62.0788 100.696 62.0934 100.769 62.1217 100.837C62.15 100.905 62.1914 100.967 62.2436 101.019C62.2959 101.071 62.3579 101.113 62.4261 101.141C62.4943 101.169 62.5673 101.183 62.641 101.183Z" fill="#C6C8CC"/>
<path d="M53.5782 92.1832C53.4675 92.1837 53.3595 92.2169 53.2677 92.2787C53.1759 92.3405 53.1044 92.4281 53.0624 92.5304C53.0203 92.6328 53.0096 92.7453 53.0314 92.8538C53.0533 92.9623 53.1068 93.0619 53.1852 93.14C53.2636 93.2181 53.3634 93.2712 53.4719 93.2926C53.5805 93.3141 53.693 93.3028 53.7952 93.2604C53.8974 93.2179 53.9847 93.1462 54.0462 93.0541C54.1076 92.9621 54.1404 92.8539 54.1404 92.7432C54.1404 92.6695 54.1258 92.5965 54.0975 92.5284C54.0693 92.4603 54.0278 92.3985 53.9756 92.3465C53.9234 92.2944 53.8614 92.2532 53.7932 92.2252C53.725 92.1972 53.6519 92.1829 53.5782 92.1832Z" fill="#C6C8CC"/>
<path d="M73.2241 101.117C73.0731 101.117 72.9255 101.162 72.8 101.246C72.6744 101.33 72.5766 101.449 72.5188 101.588C72.461 101.728 72.4459 101.881 72.4753 102.029C72.5048 102.177 72.5775 102.313 72.6843 102.42C72.791 102.527 72.9271 102.6 73.0752 102.629C73.2233 102.659 73.3768 102.643 73.5163 102.586C73.6558 102.528 73.775 102.43 73.8589 102.305C73.9428 102.179 73.9875 102.031 73.9875 101.88C73.9875 101.78 73.9678 101.681 73.9294 101.588C73.8911 101.496 73.8348 101.411 73.7639 101.341C73.6931 101.27 73.6089 101.213 73.5163 101.175C73.4236 101.137 73.3244 101.117 73.2241 101.117Z" fill="#C6C8CC"/>
<path d="M46.7313 29.8242C48.011 29.8242 48.0132 27.8357 46.7313 27.8357C45.4494 27.8357 45.4582 29.8242 46.7313 29.8242Z" fill="#C6C8CC"/>
<path d="M68.6457 25.8975C68.7571 25.898 68.8661 25.8653 68.9589 25.8037C69.0517 25.7421 69.1241 25.6543 69.1669 25.5515C69.2097 25.4487 69.221 25.3355 69.1994 25.2262C69.1778 25.117 69.1242 25.0166 69.0454 24.9378C68.9667 24.8591 68.8663 24.8055 68.757 24.7839C68.6478 24.7623 68.5346 24.7736 68.4318 24.8164C68.3289 24.8592 68.2412 24.9316 68.1796 25.0244C68.118 25.1172 68.0853 25.2262 68.0857 25.3376C68.0857 25.4861 68.1447 25.6285 68.2497 25.7335C68.3548 25.8385 68.4972 25.8975 68.6457 25.8975Z" fill="#C6C8CC"/>
<path d="M50.0629 37.3251C49.8465 37.3251 49.6351 37.3892 49.4552 37.5094C49.2754 37.6296 49.1352 37.8004 49.0524 38.0002C48.9696 38.2001 48.9479 38.42 48.9901 38.6322C49.0323 38.8443 49.1365 39.0392 49.2895 39.1922C49.4424 39.3452 49.6373 39.4493 49.8495 39.4915C50.0617 39.5337 50.2816 39.5121 50.4814 39.4293C50.6813 39.3465 50.8521 39.2063 50.9723 39.0265C51.0925 38.8466 51.1566 38.6351 51.1566 38.4188C51.1566 38.1287 51.0414 37.8505 50.8363 37.6454C50.6312 37.4403 50.3529 37.3251 50.0629 37.3251Z" fill="#C6C8CC"/>
<path d="M55.9582 46.6788C56.0695 46.6792 56.1784 46.6466 56.2711 46.5851C56.3639 46.5236 56.4363 46.436 56.4792 46.3333C56.522 46.2306 56.5335 46.1175 56.512 46.0083C56.4906 45.8991 56.4372 45.7987 56.3587 45.7199C56.2802 45.641 56.18 45.5873 56.0709 45.5654C55.9618 45.5435 55.8486 45.5545 55.7458 45.597C55.6429 45.6395 55.555 45.7116 55.4931 45.8041C55.4312 45.8965 55.3982 46.0053 55.3982 46.1166C55.3982 46.2653 55.4571 46.408 55.5621 46.5134C55.6671 46.6187 55.8095 46.6782 55.9582 46.6788Z" fill="#C6C8CC"/>
<path d="M55.7154 56.5598C55.8268 56.5602 55.9358 56.5276 56.0286 56.4659C56.1214 56.4043 56.1938 56.3166 56.2366 56.2137C56.2794 56.1109 56.2907 55.9977 56.2691 55.8885C56.2475 55.7792 56.1939 55.6788 56.1151 55.6001C56.0364 55.5213 55.936 55.4677 55.8267 55.4461C55.7175 55.4245 55.6043 55.4358 55.5015 55.4786C55.3986 55.5214 55.3109 55.5938 55.2492 55.6866C55.1876 55.7794 55.155 55.8884 55.1554 55.9998C55.1554 56.1483 55.2144 56.2907 55.3194 56.3958C55.4245 56.5008 55.5669 56.5598 55.7154 56.5598Z" fill="#C6C8CC"/>
<path d="M63.7763 81.7357C63.6655 81.7357 63.5573 81.7685 63.4652 81.8301C63.3731 81.8916 63.3013 81.9791 63.2589 82.0814C63.2165 82.1837 63.2054 82.2963 63.2271 82.405C63.2487 82.5136 63.302 82.6134 63.3803 82.6917C63.4586 82.77 63.5584 82.8233 63.667 82.845C63.7757 82.8666 63.8883 82.8555 63.9906 82.8131C64.0929 82.7707 64.1804 82.6989 64.2419 82.6068C64.3035 82.5147 64.3363 82.4065 64.3363 82.2957C64.3363 82.1472 64.2773 82.0047 64.1723 81.8997C64.0673 81.7947 63.9248 81.7357 63.7763 81.7357Z" fill="#C6C8CC"/>
<path d="M54.451 85.3932C54.278 85.3932 54.1088 85.4445 53.9649 85.5407C53.821 85.6368 53.7089 85.7735 53.6427 85.9334C53.5764 86.0933 53.5591 86.2692 53.5929 86.4389C53.6266 86.6087 53.71 86.7646 53.8323 86.887C53.9547 87.0093 54.1106 87.0927 54.2803 87.1264C54.4501 87.1602 54.626 87.1429 54.7859 87.0766C54.9458 87.0104 55.0824 86.8982 55.1786 86.7544C55.2747 86.6105 55.326 86.4413 55.326 86.2682C55.326 86.0362 55.2339 85.8136 55.0698 85.6495C54.9057 85.4854 54.6831 85.3932 54.451 85.3932Z" fill="#C6C8CC"/>
<path d="M52.8935 71.1482C52.7828 71.1487 52.6748 71.1819 52.583 71.2437C52.4912 71.3055 52.4197 71.3931 52.3777 71.4954C52.3356 71.5978 52.3249 71.7103 52.3467 71.8188C52.3686 71.9273 52.4221 72.0269 52.5005 72.105C52.5789 72.1831 52.6787 72.2362 52.7872 72.2576C52.8958 72.2791 53.0083 72.2678 53.1105 72.2254C53.2127 72.183 53.3 72.1112 53.3615 72.0191C53.4229 71.9271 53.4557 71.8189 53.4557 71.7082C53.4557 71.6345 53.4411 71.5615 53.4129 71.4934C53.3846 71.4253 53.3431 71.3635 53.2909 71.3115C53.2387 71.2595 53.1767 71.2182 53.1085 71.1902C53.0403 71.1622 52.9672 71.1479 52.8935 71.1482Z" fill="#C6C8CC"/>
<path d="M61.6457 39.2413C61.757 39.2417 61.8659 39.2091 61.9586 39.1476C62.0514 39.0861 62.1238 38.9985 62.1667 38.8958C62.2095 38.7931 62.221 38.68 62.1995 38.5708C62.1781 38.4616 62.1247 38.3612 62.0462 38.2824C61.9677 38.2035 61.8675 38.1498 61.7584 38.1279C61.6493 38.106 61.5361 38.117 61.4333 38.1595C61.3304 38.202 61.2425 38.274 61.1806 38.3665C61.1187 38.459 61.0857 38.5678 61.0857 38.6791C61.0857 38.8278 61.1446 38.9705 61.2496 39.0759C61.3545 39.1812 61.497 39.2407 61.6457 39.2413Z" fill="#C6C8CC"/>
<path d="M49.6144 49.2995C49.7252 49.2995 49.8335 49.2666 49.9256 49.2051C50.0177 49.1436 50.0894 49.0561 50.1318 48.9538C50.1742 48.8515 50.1853 48.7389 50.1637 48.6302C50.1421 48.5216 50.0887 48.4218 50.0104 48.3435C49.9321 48.2652 49.8323 48.2119 49.7237 48.1902C49.6151 48.1686 49.5025 48.1797 49.4001 48.2221C49.2978 48.2645 49.2103 48.3363 49.1488 48.4284C49.0873 48.5205 49.0544 48.6287 49.0544 48.7395C49.055 48.8878 49.1142 49.0299 49.2191 49.1348C49.324 49.2397 49.4661 49.2989 49.6144 49.2995Z" fill="#C6C8CC"/>
<path d="M45.6813 91.7107C45.5701 91.7102 45.4611 91.7428 45.3684 91.8044C45.2757 91.8659 45.2033 91.9535 45.1604 92.0562C45.1175 92.1589 45.1061 92.272 45.1275 92.3812C45.1489 92.4904 45.2023 92.5908 45.2808 92.6696C45.3594 92.7485 45.4596 92.8022 45.5687 92.8241C45.6778 92.846 45.7909 92.835 45.8938 92.7925C45.9966 92.75 46.0846 92.6779 46.1464 92.5854C46.2083 92.4929 46.2413 92.3842 46.2413 92.2729C46.2413 92.1241 46.1824 91.9815 46.0774 91.8761C45.9725 91.7707 45.8301 91.7113 45.6813 91.7107Z" fill="#C6C8CC"/>
<path d="M60.9894 58.242C60.8787 58.242 60.7704 58.2748 60.6783 58.3364C60.5862 58.3979 60.5144 58.4853 60.4721 58.5877C60.4297 58.69 60.4186 58.8026 60.4402 58.9112C60.4618 59.0199 60.5151 59.1196 60.5935 59.198C60.6718 59.2763 60.7716 59.3296 60.8802 59.3512C60.9888 59.3728 61.1014 59.3617 61.2037 59.3194C61.3061 59.277 61.3935 59.2052 61.4551 59.1131C61.5166 59.021 61.5494 58.9127 61.5494 58.802C61.5489 58.6536 61.4897 58.5115 61.3848 58.4066C61.2799 58.3017 61.1378 58.2426 60.9894 58.242Z" fill="#C6C8CC"/>
<path d="M40.3045 42.6144C40.304 42.7258 40.3367 42.8348 40.3983 42.9276C40.4599 43.0204 40.5477 43.0928 40.6505 43.1356C40.7533 43.1784 40.8665 43.1897 40.9758 43.1681C41.085 43.1465 41.1854 43.0929 41.2642 43.0141C41.3429 42.9354 41.3965 42.835 41.4181 42.7258C41.4398 42.6165 41.4284 42.5033 41.3856 42.4005C41.3428 42.2977 41.2704 42.2099 41.1776 42.1483C41.0848 42.0867 40.9758 42.054 40.8645 42.0544C40.7161 42.055 40.574 42.1142 40.4691 42.2191C40.3642 42.324 40.305 42.4661 40.3045 42.6144Z" fill="#C6C8CC"/>
<path d="M43.1044 33.8732C43.2688 33.8732 43.4295 33.8245 43.5662 33.7331C43.7029 33.6418 43.8095 33.512 43.8724 33.3601C43.9353 33.2082 43.9518 33.0411 43.9197 32.8798C43.8876 32.7186 43.8085 32.5705 43.6922 32.4542C43.5759 32.3379 43.4278 32.2588 43.2666 32.2267C43.1053 32.1946 42.9382 32.2111 42.7863 32.274C42.6344 32.3369 42.5046 32.4435 42.4133 32.5802C42.3219 32.7169 42.2732 32.8776 42.2732 33.042C42.2732 33.1511 42.2947 33.2592 42.3364 33.3601C42.3782 33.4609 42.4394 33.5526 42.5166 33.6298C42.5938 33.7069 42.6855 33.7682 42.7863 33.81C42.8872 33.8517 42.9953 33.8732 43.1044 33.8732Z" fill="#C6C8CC"/>
<path d="M68.777 33.9366C68.1826 33.9366 67.7008 34.4185 67.7008 35.0129C67.7008 35.6073 68.1826 36.0891 68.777 36.0891C69.3714 36.0891 69.8533 35.6073 69.8533 35.0129C69.8533 34.4185 69.3714 33.9366 68.777 33.9366Z" fill="#C6C8CC"/>
<path d="M34.8182 103.742C34.2238 103.742 33.7419 104.224 33.7419 104.818C33.7419 105.413 34.2238 105.894 34.8182 105.894C35.4126 105.894 35.8944 105.413 35.8944 104.818C35.8944 104.224 35.4126 103.742 34.8182 103.742Z" fill="#C6C8CC"/>
<path d="M49.2179 58.1326L49.7628 56.8201C44.8702 44.4943 28.993 41.8808 26.1673 26.2767C24.4806 16.9306 24.4451 15.2576 24.4451 15.2576C24.4451 15.2576 40.4138 18.867 59.117 18.3201C77.8201 17.7732 93.0232 15.2576 93.0232 15.2576C93.0232 15.2576 92.8698 16.9306 91.1786 26.2767C88.3487 41.8811 72.473 44.4934 67.58 56.8201L68.1341 58.1326C72.4047 45.3739 89.3433 42.1627 92.2028 26.3935C94.0283 16.4004 94.0076 14.0545 94.0076 14.0545C94.0076 14.0545 85.0388 17.2263 59.117 17.2263C33.1951 17.2263 23.3513 14.0545 23.3513 14.0545C23.3513 14.0545 23.3445 16.3961 25.1519 26.3935C28.0108 42.1623 44.9455 45.3738 49.2179 58.1326Z" fill="#C6C8CC"/>
<path d="M49.8703 58.117L49.2247 57.0388C44.9542 69.7975 28.0156 73.0086 25.156 88.7779C23.3306 98.771 23.4606 100.133 23.4606 100.133C23.4606 100.133 26.4138 108.664 57.695 108.664C88.9763 108.664 94.2263 100.789 94.2263 100.789C94.2263 100.789 94.0143 98.7752 92.207 88.7779C89.348 73.0085 72.2448 69.6837 68.0785 56.8493L67.3874 57.8044C71.9878 70.3676 88.3624 73.2714 91.1915 88.8946C92.8783 98.2407 93.3513 99.4763 93.3513 99.4763C93.3513 99.4763 90.6169 107.789 57.695 107.57C24.7731 107.351 24.5544 99.4763 24.5544 99.4763C24.5544 99.4763 24.4891 98.2408 26.1802 88.8946C29.0117 73.2815 45.1028 70.5463 49.8703 58.117Z" fill="#C6C8CC"/>
<path d="M68.8452 99.215C69.7627 98.5846 70.5893 97.8306 71.302 96.9741C71.3395 96.9276 71.362 96.8707 71.3662 96.811C71.3704 96.7513 71.3563 96.6917 71.3256 96.6404C71.295 96.589 71.2493 96.5484 71.1949 96.524C71.1404 96.4995 71.0798 96.4925 71.0212 96.5038C68.709 96.9516 66.3168 96.7121 64.1384 95.8147C61.9601 94.9173 60.0904 93.4011 58.7591 91.4524C57.4278 89.5036 56.6928 87.2072 56.6444 84.8452C56.596 82.4832 57.2363 80.1584 58.4867 78.1564C58.5191 78.1059 58.535 78.0465 58.5322 77.9865C58.5294 77.9265 58.5081 77.8688 58.4712 77.8215C58.4342 77.7743 58.3835 77.7397 58.3261 77.7226C58.2687 77.7056 58.2074 77.7069 58.1508 77.7263C56.5145 78.28 55.0156 79.1791 53.755 80.3631C52.4944 81.547 51.5013 82.9883 50.8427 84.5898C50.1842 86.1912 49.8754 87.9157 49.9372 89.647C49.999 91.3784 50.43 93.0763 51.2011 94.6264C51.9721 96.1765 53.0654 97.5428 54.4073 98.6332C55.7491 99.7236 57.3083 100.513 58.9798 100.948C60.6514 101.382 62.3964 101.453 64.0973 101.154C65.7982 100.855 67.4155 100.194 68.8402 99.215H68.8452Z" fill="#C6C8CC"/>
<path d="M65.2655 57.9073L67.1577 58.6117C67.1828 58.6218 67.2053 58.6375 67.2235 58.6576C67.2417 58.6777 67.2551 58.7016 67.2627 58.7276L67.9189 61.1929C67.9308 61.2553 67.9643 61.3114 68.0135 61.3514C68.0628 61.3915 68.1246 61.4128 68.188 61.4117H68.2099C68.2733 61.4128 68.3351 61.3915 68.3843 61.3514C68.4336 61.3114 68.4671 61.2553 68.4789 61.1929L69.1352 58.7276C69.1428 58.7016 69.1562 58.6777 69.1744 58.6576C69.1926 58.6375 69.2151 58.6218 69.2402 58.6117L71.1193 57.9073C71.1831 57.8973 71.2413 57.8648 71.2833 57.8157C71.3253 57.7665 71.3484 57.704 71.3484 57.6393C71.3484 57.5747 71.3253 57.5122 71.2833 57.463C71.2413 57.4139 71.1831 57.3814 71.1193 57.3714L69.2271 56.6648C69.2018 56.655 69.1791 56.6394 69.1609 56.6192C69.1427 56.5991 69.1294 56.575 69.1221 56.5489L68.4658 54.0858C68.454 54.0234 68.4205 53.9673 68.3712 53.9272C68.322 53.8872 68.2602 53.8659 68.1968 53.867H68.1749C68.1114 53.8659 68.0496 53.8872 68.0004 53.9272C67.9512 53.9673 67.9177 54.0234 67.9058 54.0858L67.2496 56.5489C67.2423 56.575 67.229 56.5991 67.2107 56.6192C67.1925 56.6394 67.1699 56.655 67.1446 56.6648L65.2524 57.3714C65.1885 57.3814 65.1303 57.4139 65.0883 57.463C65.0463 57.5122 65.0232 57.5747 65.0232 57.6393C65.0232 57.704 65.0463 57.7665 65.0883 57.8157C65.1303 57.8648 65.1885 57.8973 65.2524 57.9073H65.2655Z" fill="#C6C8CC"/>
<path d="M90.6405 69.2823L92.5327 69.9867C92.5578 69.9968 92.5803 70.0125 92.5985 70.0326C92.6167 70.0527 92.6301 70.0766 92.6377 70.1026L93.2939 72.568C93.3058 72.6303 93.3393 72.6864 93.3885 72.7265C93.4378 72.7665 93.4996 72.7878 93.563 72.7867H93.5849C93.6483 72.7878 93.7101 72.7665 93.7593 72.7265C93.8086 72.6864 93.8421 72.6303 93.8539 72.568L94.5102 70.1026C94.5178 70.0766 94.5312 70.0527 94.5494 70.0326C94.5676 70.0125 94.5901 69.9968 94.6152 69.9867L96.4943 69.2823C96.5581 69.2723 96.6163 69.2398 96.6583 69.1907C96.7003 69.1415 96.7234 69.079 96.7234 69.0144C96.7234 68.9497 96.7003 68.8872 96.6583 68.838C96.6163 68.7889 96.5581 68.7564 96.4943 68.7464L94.6021 68.0398C94.5768 68.03 94.5541 68.0144 94.5359 67.9942C94.5177 67.9741 94.5044 67.95 94.4971 67.9239L93.8408 65.4608C93.829 65.3984 93.7955 65.3423 93.7462 65.3022C93.697 65.2622 93.6352 65.2409 93.5718 65.242H93.5499C93.4864 65.2409 93.4246 65.2622 93.3754 65.3022C93.3262 65.3423 93.2927 65.3984 93.2808 65.4608L92.6246 67.9239C92.6173 67.95 92.604 67.9741 92.5857 67.9942C92.5675 68.0144 92.5449 68.03 92.5196 68.0398L90.6274 68.7464C90.5635 68.7564 90.5053 68.7889 90.4633 68.838C90.4213 68.8872 90.3982 68.9497 90.3982 69.0144C90.3982 69.079 90.4213 69.1415 90.4633 69.1907C90.5053 69.2398 90.5635 69.2723 90.6274 69.2823H90.6405Z" fill="#C6C8CC"/>
<path d="M46.0155 57.9073L47.9077 58.6117C47.9328 58.6218 47.9553 58.6375 47.9735 58.6576C47.9917 58.6777 48.0051 58.7016 48.0127 58.7276L48.6689 61.1929C48.6808 61.2553 48.7143 61.3114 48.7635 61.3514C48.8128 61.3915 48.8746 61.4128 48.938 61.4117H48.9599C49.0233 61.4128 49.0851 61.3915 49.1344 61.3514C49.1836 61.3114 49.2171 61.2553 49.2289 61.1929L49.8852 58.7276C49.8928 58.7016 49.9062 58.6777 49.9244 58.6576C49.9426 58.6375 49.9651 58.6218 49.9902 58.6117L51.8693 57.9073C51.9331 57.8973 51.9913 57.8648 52.0333 57.8157C52.0754 57.7665 52.0984 57.704 52.0984 57.6393C52.0984 57.5747 52.0754 57.5122 52.0333 57.463C51.9913 57.4139 51.9331 57.3814 51.8693 57.3714L49.9771 56.6648C49.9518 56.655 49.9291 56.6394 49.9109 56.6192C49.8927 56.5991 49.8794 56.575 49.8721 56.5489L49.2158 54.0858C49.204 54.0234 49.1705 53.9673 49.1212 53.9272C49.072 53.8872 49.0102 53.8659 48.9468 53.867H48.9249C48.8614 53.8659 48.7996 53.8872 48.7504 53.9272C48.7012 53.9673 48.6677 54.0234 48.6558 54.0858L47.9996 56.5489C47.9923 56.575 47.979 56.5991 47.9607 56.6192C47.9425 56.6394 47.9199 56.655 47.8946 56.6648L46.0024 57.3714C45.9385 57.3814 45.8803 57.4139 45.8383 57.463C45.7963 57.5122 45.7732 57.5747 45.7732 57.6393C45.7732 57.704 45.7963 57.7665 45.8383 57.8157C45.8803 57.8648 45.9385 57.8973 46.0024 57.9073H46.0155Z" fill="#C6C8CC"/>
<path d="M21.7343 52.0011L23.6264 52.7054C23.6516 52.7156 23.6741 52.7313 23.6922 52.7514C23.7104 52.7714 23.7238 52.7954 23.7314 52.8214L24.3877 55.2867C24.3995 55.349 24.4331 55.4052 24.4823 55.4452C24.5315 55.4852 24.5933 55.5066 24.6568 55.5054H24.6786C24.7421 55.5066 24.8039 55.4852 24.8531 55.4452C24.9023 55.4052 24.9358 55.349 24.9477 55.2867L25.6039 52.8214C25.6116 52.7954 25.625 52.7714 25.6431 52.7514C25.6613 52.7313 25.6838 52.7156 25.7089 52.7054L27.588 52.0011C27.6519 51.991 27.7101 51.9585 27.7521 51.9094C27.7941 51.8603 27.8172 51.7977 27.8172 51.7331C27.8172 51.6684 27.7941 51.6059 27.7521 51.5568C27.7101 51.5077 27.6519 51.4751 27.588 51.4651L25.6958 50.7586C25.6705 50.7487 25.6479 50.7331 25.6296 50.713C25.6114 50.6929 25.5981 50.6688 25.5908 50.6426L24.9346 48.1795C24.9227 48.1172 24.8892 48.061 24.84 48.021C24.7907 47.981 24.7289 47.9596 24.6655 47.9608H24.6436C24.5802 47.9596 24.5184 47.981 24.4692 48.021C24.4199 48.061 24.3864 48.1172 24.3746 48.1795L23.7183 50.6426C23.711 50.6688 23.6977 50.6929 23.6795 50.713C23.6613 50.7331 23.6386 50.7487 23.6133 50.7586L21.7211 51.4651C21.6573 51.4751 21.5991 51.5077 21.5571 51.5568C21.515 51.6059 21.4919 51.6684 21.4919 51.7331C21.4919 51.7977 21.515 51.8603 21.5571 51.9094C21.5991 51.9585 21.6573 51.991 21.7211 52.0011H21.7343Z" fill="#C6C8CC"/>
<path fill-rule="evenodd" clip-rule="evenodd" d="M93.8984 14.0418C93.8984 14.0416 93.8984 14.0415 94.4451 14.0544C94.9918 14.0673 94.9918 14.0675 94.9918 14.0677L94.9585 15.4789C94.9371 16.3847 94.9064 17.6903 94.8688 19.2899C94.7936 22.4891 94.6911 26.864 94.5817 31.5671C94.3629 40.9736 94.1169 51.6916 94.0075 56.9408C93.8985 62.1745 94.144 73.1519 94.4176 82.8358C94.5542 87.6745 94.6978 92.1853 94.8071 95.4865C94.8618 97.137 94.9079 98.4851 94.9404 99.4206C94.9566 99.8883 94.9694 100.253 94.9782 100.5L94.9916 100.878C94.9916 100.878 94.9916 100.879 94.4451 100.898C93.8986 100.918 93.8986 100.918 93.8986 100.917L93.8851 100.539C93.8764 100.291 93.8635 99.9265 93.8473 99.4585C93.8148 98.5226 93.7687 97.1739 93.714 95.5227C93.6046 92.2203 93.461 87.7077 93.3242 82.8667C93.0509 73.1913 92.8043 62.1843 92.914 56.918C93.0234 51.6672 93.2695 40.9477 93.4882 31.5417C93.5976 26.8385 93.7001 22.4635 93.7753 19.2642C93.8129 17.6646 93.8437 16.3589 93.8651 15.4531L93.8984 14.0418Z" fill="#C6C8CC"/>
<path fill-rule="evenodd" clip-rule="evenodd" d="M22.5864 14.0815C22.5864 14.0812 22.5864 14.0811 23.1326 14.0544C23.6788 14.0277 23.6788 14.0279 23.6788 14.0282L23.6841 14.1374C23.6876 14.2098 23.6928 14.3174 23.6996 14.458C23.7131 14.7394 23.7328 15.1532 23.7577 15.6833C23.8075 16.7434 23.878 18.2687 23.9609 20.1294C24.1267 23.8508 24.3421 28.9142 24.5404 34.2823C24.9365 45.0035 25.2663 56.9832 24.9911 61.882C24.7181 66.7407 24.3902 76.4948 24.1304 85.0417C24.0005 89.3136 23.8877 93.2813 23.8074 96.1811C23.7673 97.631 23.7352 98.8139 23.7132 99.6343C23.7022 100.044 23.6937 100.364 23.688 100.581L23.6793 100.912C23.6793 100.912 23.6793 100.912 23.1326 100.898C22.5859 100.884 22.5859 100.884 22.5859 100.884L22.5946 100.552C22.6004 100.335 22.6089 100.015 22.6199 99.605C22.6419 98.7843 22.6739 97.6011 22.7141 96.1508C22.7944 93.2504 22.9072 89.2816 23.0371 85.0085C23.2968 76.4655 23.6251 66.6962 23.8991 61.8206C24.1707 56.985 23.8443 45.0662 23.4474 34.3226C23.2492 28.9582 23.034 23.8977 22.8682 20.1781C22.7854 18.3184 22.7149 16.794 22.6651 15.7346C22.6403 15.2049 22.6206 14.7914 22.6071 14.5104C22.6003 14.3699 22.5952 14.2626 22.5917 14.1903L22.5864 14.0815Z" fill="#C6C8CC"/>
<path fill-rule="evenodd" clip-rule="evenodd" d="M97.5464 11.2349C97.9683 10.816 98.0544 10.5183 98.0544 10.3358C98.0544 9.84299 97.6363 9.04822 95.8913 8.12728C94.2197 7.24501 91.6573 6.43264 88.2077 5.76414C81.3273 4.4308 71.1863 3.71918 58.265 3.99178C45.3171 4.26494 35.1579 4.97557 28.2558 6.17804C24.7942 6.78112 22.2289 7.49556 20.5558 8.29961C18.8082 9.13947 18.4294 9.87201 18.4294 10.3358C18.4294 10.5183 18.5156 10.816 18.9375 11.2349C19.3619 11.6564 20.0456 12.1155 21.024 12.5855C22.9756 13.5231 25.8699 14.397 29.5347 15.1417C36.8462 16.6275 46.9964 17.5545 58.2419 17.5545C69.4875 17.5545 79.6377 16.6275 86.9492 15.1417C90.614 14.397 93.5083 13.5231 95.4599 12.5855C96.4383 12.1155 97.122 11.6564 97.5464 11.2349ZM58.2419 18.6483C80.8338 18.6483 99.1482 14.9266 99.1482 10.3358C99.1482 5.7449 84.1638 2.35139 58.2419 2.89827C32.3201 3.44514 17.3357 5.7449 17.3357 10.3358C17.3357 14.9266 35.65 18.6483 58.2419 18.6483Z" fill="#C6C8CC"/>
<path fill-rule="evenodd" clip-rule="evenodd" d="M95.989 106.589C97.6388 105.685 98.0544 104.907 98.0544 104.398C98.0544 104.216 97.9683 103.918 97.5464 103.499C97.122 103.078 96.4383 102.619 95.4599 102.148C93.5083 101.211 90.614 100.337 86.9492 99.5922C79.6377 98.1065 69.4875 97.1795 58.2419 97.1795C46.9964 97.1795 36.8462 98.1065 29.5347 99.5922C25.8699 100.337 22.9756 101.211 21.024 102.148C20.0456 102.619 19.3619 103.078 18.9375 103.499C18.5156 103.918 18.4294 104.216 18.4294 104.398C18.4294 104.498 18.486 104.77 19.0169 105.202C19.537 105.625 20.3666 106.076 21.5288 106.529C23.8422 107.432 27.215 108.244 31.3534 108.923C39.6123 110.279 50.7069 111.07 61.9607 111.07C73.2181 111.07 82.4312 110.278 88.8003 108.932C91.9943 108.258 94.4046 107.457 95.989 106.589ZM61.9607 112.164C84.5526 112.164 99.1482 108.989 99.1482 104.398C99.1482 99.8073 80.8338 96.0857 58.2419 96.0857C35.65 96.0857 17.3357 99.8073 17.3357 104.398C17.3357 108.989 39.3688 112.164 61.9607 112.164Z" fill="#C6C8CC"/>
</svg>
